<?xml version="1.0" standalone="no"?>
<!DOCTYPE svg PUBLIC "-//W3C//DTD SVG 20010904//EN"
 "http://www.w3.org/TR/2001/REC-SVG-20010904/DTD/svg10.dtd">
<svg version="1.0" xmlns="http://www.w3.org/2000/svg"
 width="486.000000pt" height="421.000000pt" viewBox="0 0 486.000000 421.000000"
 preserveAspectRatio="xMidYMid meet">

<g transform="translate(0.000000,421.000000) scale(0.100000,-0.100000)"
fill="#000000" stroke="none">
<path d="M2467 4129 c-20 -5 -55 -18 -77 -29 -39 -20 -40 -22 -40 -70 l0 -50
60 32 c138 72 260 40 260 -69 0 -41 -5 -49 -75 -123 -90 -94 -105 -126 -105
-220 l0 -70 50 0 50 0 0 59 c0 33 4 71 9 84 6 14 46 64 90 110 44 47 83 97 87
112 12 47 -1 130 -26 165 -48 67 -168 96 -283 69z"/>
<path d="M976 3960 c-16 -5 -173 -51 -348 -101 l-318 -92 2 -205 3 -205 330
-99 c182 -54 339 -99 350 -100 11 -1 172 45 358 102 l337 104 -2 205 -3 204
-335 98 c-184 54 -337 98 -340 98 -3 0 -18 -5 -34 -9z m333 -104 c156 -45 280
-85 275 -88 -5 -3 -137 -47 -293 -98 l-285 -92 -298 93 c-164 51 -296 94 -293
97 6 6 577 171 595 171 8 0 143 -37 299 -83z m347 -473 c-5 -5 -617 -193 -629
-193 -4 0 -6 80 -5 177 l3 177 315 96 315 96 3 -174 c1 -96 1 -177 -2 -179z
m-991 254 l310 -93 3 -178 2 -178 -22 5 c-12 3 -156 46 -320 94 l-298 88 0
178 c0 97 3 177 8 177 4 -1 146 -42 317 -93z"/>
<path d="M1532 3603 c-28 -6 -55 -45 -50 -75 2 -19 9 -23 36 -22 17 1 32 -2
32 -8 0 -5 -15 -15 -32 -23 -28 -12 -29 -14 -10 -15 40 0 62 34 62 95 0 30 -3
54 -7 54 -5 -1 -18 -4 -31 -6z m16 -45 c3 -27 -20 -54 -38 -43 -14 9 -13 48 2
63 18 18 33 9 36 -20z"/>
<path d="M1388 3584 c-12 -11 -10 -134 2 -134 6 0 10 12 10 26 0 26 0 26 26 9
14 -9 29 -13 32 -10 4 4 -3 14 -15 22 l-23 15 21 29 c26 37 14 38 -15 2 l-21
-28 -5 39 c-3 21 -8 34 -12 30z"/>
<path d="M1228 3519 c-10 -5 -18 -14 -18 -20 0 -5 11 -2 25 7 23 15 25 15 31
0 4 -11 -5 -34 -25 -61 -41 -57 -39 -67 9 -48 22 9 40 20 40 25 0 5 -9 4 -21
-2 -31 -17 -33 -6 -4 35 32 48 33 75 3 75 -13 0 -31 -5 -40 -11z"/>
<path d="M1118 3479 c-22 -12 -24 -31 -3 -23 23 9 21 -82 -2 -95 -34 -18 -7
-20 32 -1 22 10 32 19 23 19 -15 1 -18 11 -18 56 0 57 -3 61 -32 44z"/>
<path d="M561 3564 c-1 -7 -10 -14 -21 -17 -11 -3 -20 -10 -20 -16 0 -6 9 -20
20 -31 28 -28 27 -53 -2 -45 l-23 6 21 -18 c12 -10 24 -25 27 -33 5 -12 6 -12
6 1 1 9 10 19 21 22 11 3 20 12 20 21 0 9 -9 21 -20 28 -25 16 -27 50 -2 42
15 -5 15 -4 1 8 -9 7 -18 20 -22 28 -3 8 -6 10 -6 4z m-1 -50 c0 -8 -4 -12
-10 -9 -5 3 -10 10 -10 16 0 5 5 9 10 9 6 0 10 -7 10 -16z m30 -60 c0 -8 -4
-14 -10 -14 -5 0 -10 9 -10 21 0 11 5 17 10 14 6 -3 10 -13 10 -21z"/>
<path d="M656 3487 c-15 -19 -26 -36 -26 -39 0 -4 14 -11 30 -17 17 -5 30 -17
30 -25 0 -9 5 -16 10 -16 6 0 10 7 10 16 0 8 5 12 10 9 6 -3 10 -1 10 4 0 6
-4 11 -10 11 -5 0 -10 20 -10 45 0 56 -18 59 -54 12z m31 -43 c-2 -3 -11 -2
-20 2 -15 5 -15 8 1 32 l17 26 3 -28 c2 -15 2 -30 -1 -32z"/>
<path d="M2480 3385 l0 -65 55 0 55 0 0 65 0 65 -55 0 -55 0 0 -65z"/>
<path d="M3827 3337 l-317 -92 2 -189 3 -189 312 -92 312 -93 53 18 c29 9 169
52 311 95 l257 78 0 188 c0 170 -2 188 -17 193 -27 8 -562 164 -581 170 -9 2
-160 -37 -335 -87z m592 -14 c145 -42 257 -79 250 -82 -8 -2 -130 -41 -272
-87 l-257 -82 -265 82 c-145 45 -267 84 -269 87 -5 5 503 155 534 158 8 1 134
-33 279 -76z m317 -430 c-2 -2 -134 -44 -293 -92 l-288 -88 -3 160 c-1 88 -1
161 0 163 2 1 134 42 293 91 l290 88 3 -159 c1 -87 1 -161 -2 -163z m-893 226
l277 -82 0 -162 0 -163 -147 44 c-82 24 -213 63 -293 86 l-145 43 -3 163 c-2
153 -1 163 15 158 10 -2 143 -42 296 -87z"/>
<path d="M4553 3066 c-22 -10 -33 -23 -38 -46 -9 -42 12 -67 44 -51 11 7 21 8
21 3 0 -14 -23 -32 -43 -32 -10 0 -16 -4 -12 -10 7 -11 33 -3 58 18 12 11 17
30 17 74 0 32 -3 58 -7 58 -5 -1 -22 -7 -40 -14z m27 -40 c0 -27 -24 -51 -40
-41 -15 9 -12 41 6 59 19 20 34 12 34 -18z"/>
<path d="M4418 3054 c-12 -11 -10 -134 2 -134 6 0 10 12 10 26 0 24 1 24 22
10 37 -26 57 -19 24 7 -20 16 -25 26 -18 31 7 4 17 17 23 29 10 18 6 17 -19
-7 l-31 -28 -3 37 c-2 20 -6 33 -10 29z"/>
<path d="M4258 2989 c-10 -5 -18 -15 -18 -21 0 -9 3 -9 12 0 15 15 48 16 48 0
0 -6 -14 -33 -31 -60 -17 -27 -29 -51 -27 -54 6 -5 78 24 78 32 0 3 -11 3 -25
0 -14 -4 -25 -5 -25 -3 0 2 11 18 25 37 32 44 33 80 3 80 -13 0 -31 -5 -40
-11z"/>
<path d="M3730 3062 c0 -7 -9 -12 -20 -12 -13 0 -20 -7 -20 -20 0 -11 9 -25
20 -32 11 -7 20 -21 20 -30 0 -21 -11 -23 -28 -6 -7 7 -12 8 -12 4 0 -5 11
-19 25 -32 14 -13 25 -19 25 -14 0 6 6 10 14 10 23 0 27 29 6 50 -25 25 -27
55 -3 46 14 -6 14 -4 -2 16 -11 13 -21 25 -22 27 -2 2 -3 -1 -3 -7z m0 -37 c0
-8 -4 -15 -10 -15 -5 0 -10 7 -10 15 0 8 5 15 10 15 6 0 10 -7 10 -15z m22
-77 c-9 -9 -12 -7 -12 12 0 19 3 21 12 12 9 -9 9 -15 0 -24z"/>
<path d="M3805 3030 c-3 -6 4 -10 18 -10 14 0 31 -7 38 -16 12 -15 9 -21 -24
-49 -20 -18 -37 -35 -37 -38 0 -9 81 -30 88 -23 3 3 -9 11 -26 17 l-31 11 29
25 c36 30 37 37 5 68 -25 26 -50 32 -60 15z"/>
<path d="M2146 3169 c-26 -23 -44 -73 -60 -171 -6 -31 -12 -38 -49 -53 -23 -9
-86 -37 -139 -62 -91 -43 -100 -50 -126 -97 -16 -28 -32 -65 -35 -83 -3 -18
-22 -54 -41 -80 -18 -26 -39 -66 -45 -88 -6 -23 -15 -204 -20 -425 l-9 -385
-41 -145 c-35 -126 -41 -158 -41 -246 l0 -102 33 -13 c17 -7 55 -34 82 -60 35
-33 65 -51 99 -60 27 -7 70 -29 98 -52 73 -58 149 -68 287 -39 55 12 141 40
190 62 118 53 195 67 426 75 273 10 330 25 439 119 91 79 101 108 99 296 0 85
-8 206 -17 268 -23 159 -21 182 14 239 17 27 35 74 42 105 12 55 11 59 -31
175 -58 159 -136 339 -167 386 -14 21 -40 71 -58 111 -19 40 -50 92 -70 114
-32 35 -45 42 -100 51 -34 6 -139 11 -233 11 -160 0 -171 1 -176 19 -11 43
-184 134 -280 147 -36 5 -48 2 -71 -17z m190 -95 c18 -8 38 -22 43 -33 9 -17
5 -19 -63 -25 -40 -4 -87 -11 -105 -16 -31 -9 -31 -9 -31 30 0 69 58 85 156
44z m561 -75 c89 -16 109 -40 220 -261 119 -238 203 -457 203 -530 0 -62 -33
-139 -76 -180 -63 -58 -200 -98 -344 -98 -110 0 -340 26 -410 46 -115 33 -145
59 -205 169 -21 39 -53 91 -71 117 l-33 47 63 46 c178 127 434 194 626 165 41
-7 133 -32 205 -56 127 -43 165 -52 165 -36 0 12 -267 100 -345 113 -91 16
-258 6 -355 -21 -94 -26 -260 -105 -323 -153 -26 -21 -50 -37 -53 -37 -11 0
-63 125 -79 191 -21 84 -62 134 -189 230 -47 35 -84 68 -83 73 4 13 226 112
318 141 46 14 109 30 139 34 85 13 554 13 627 0z m-916 -371 c50 -51 60 -72
78 -158 20 -100 69 -278 86 -312 10 -18 29 -49 43 -68 23 -29 26 -44 26 -105
-1 -149 -24 -423 -39 -480 -10 -33 -25 -101 -35 -152 -21 -103 -81 -224 -150
-301 -38 -42 -40 -43 -73 -33 -19 7 -43 21 -53 32 -24 26 -63 47 -124 65 -31
9 -58 27 -82 54 -20 21 -52 47 -72 57 l-36 17 0 90 c0 77 7 115 41 236 36 126
42 162 46 278 l6 134 26 -7 c14 -4 58 -13 96 -20 39 -7 84 -18 100 -24 17 -6
64 -22 105 -35 l75 -23 3 60 c2 33 -1 64 -5 68 -5 5 -49 20 -98 33 -50 13
-115 31 -145 39 -30 9 -77 19 -105 24 l-50 8 4 205 c4 223 6 234 65 320 20 29
36 61 36 71 0 11 10 39 23 63 l22 43 70 -66 c38 -36 90 -87 116 -113z m1270
-685 c0 -32 4 -80 9 -108 5 -27 14 -116 20 -197 9 -123 8 -160 -5 -220 -13
-64 -20 -78 -62 -120 -63 -64 -111 -96 -166 -113 l-45 -14 27 42 c48 71 99
198 117 288 16 82 16 90 -4 210 -38 228 -37 207 -7 219 15 6 43 24 63 40 20
17 40 30 44 30 5 0 8 -26 9 -57z m-874 13 c114 -55 151 -61 394 -61 l227 0 6
-64 c4 -35 2 -139 -5 -230 -12 -179 -34 -272 -87 -361 -14 -25 -25 -52 -24
-61 3 -15 -16 -18 -155 -23 -197 -8 -298 -26 -395 -70 -87 -39 -170 -66 -207
-66 l-25 0 25 28 c68 76 139 189 139 222 0 9 8 27 18 40 15 22 18 60 24 270 3
135 6 280 7 323 1 42 2 77 4 77 2 0 26 -11 54 -24z"/>
<path d="M2613 2888 c-11 -15 -45 -210 -37 -217 8 -9 26 17 33 48 l6 32 35
-29 c20 -17 42 -27 52 -24 16 4 13 10 -19 38 l-38 33 50 45 c62 56 45 60 -24
6 l-51 -40 7 60 c6 61 3 70 -14 48z"/>
<path d="M2880 2881 c0 -4 -12 -6 -26 -3 -65 12 -124 -73 -98 -142 7 -19 64
-22 82 -4 6 6 14 9 18 5 13 -13 -45 -57 -76 -57 -21 0 -30 -4 -27 -12 5 -16
51 -12 87 7 31 16 45 46 60 129 13 78 13 86 -5 86 -8 0 -15 -4 -15 -9z m-12
-58 c4 -38 -36 -87 -66 -81 -29 5 -28 63 3 94 34 34 59 28 63 -13z"/>
<path d="M2368 2838 c-44 -9 -48 -12 -54 -47 -3 -20 -8 -45 -11 -55 -4 -15 -2
-18 13 -11 35 14 72 17 79 5 11 -18 -4 -58 -26 -71 -12 -6 -37 -11 -55 -11
-24 0 -34 -5 -34 -15 0 -27 86 -11 121 23 53 51 33 123 -32 110 -27 -5 -30 -3
-27 16 2 17 13 25 47 33 25 6 46 16 49 23 4 14 -4 14 -70 0z"/>
<path d="M2154 2790 c-24 -9 -39 -28 -31 -36 3 -3 15 -1 26 6 25 13 26 6 10
-87 -9 -50 -15 -63 -29 -63 -19 0 -36 -17 -27 -26 11 -11 127 19 127 32 0 10
-7 13 -24 8 l-23 -6 13 84 c8 46 14 86 14 91 0 9 -29 8 -56 -3z"/>
<path d="M2816 2226 c-20 -23 -36 -47 -36 -52 0 -5 14 -24 31 -41 52 -56 129
-36 129 33 0 28 -8 42 -37 69 -21 19 -41 35 -45 35 -4 0 -23 -20 -42 -44z"/>
<path d="M2063 2220 c0 -30 2 -43 4 -27 2 15 2 39 0 55 -2 15 -4 2 -4 -28z"/>
<path d="M2053 2065 c0 -22 2 -30 4 -17 2 12 2 30 0 40 -3 9 -5 -1 -4 -23z"/>
<path d="M2041 1604 c0 -11 3 -14 6 -6 3 7 2 16 -1 19 -3 4 -6 -2 -5 -13z"/>
<path d="M355 2281 l-230 -67 -3 -140 -3 -140 218 -63 c120 -35 224 -67 231
-71 8 -4 118 25 245 65 l232 71 3 140 3 140 -229 67 c-125 37 -230 67 -232 66
-3 -1 -108 -31 -235 -68z m439 -8 l199 -58 -189 -62 c-104 -34 -198 -62 -210
-62 -16 -1 -332 92 -394 115 -11 5 345 116 390 123 3 1 95 -25 204 -56z m-425
-153 c112 -33 206 -60 207 -60 2 0 4 -55 4 -121 0 -111 -2 -121 -17 -117 -10
3 -109 32 -220 64 l-203 59 0 122 c0 94 3 121 13 118 6 -3 104 -32 216 -65z
m671 -50 c0 -66 -2 -120 -3 -120 -2 0 -100 -29 -217 -65 -117 -36 -215 -65
-217 -65 -1 0 -3 54 -3 120 l0 119 103 31 c56 18 149 47 207 65 58 18 111 34
118 34 9 1 12 -29 12 -119z"/>
<path d="M252 2097 c-27 -13 -28 -43 -2 -57 11 -6 20 -18 20 -27 0 -10 -6 -14
-20 -10 -26 7 -25 3 3 -25 21 -22 25 -22 40 -7 21 19 22 43 2 59 -18 15 -20
37 -2 42 9 2 9 7 -3 19 -12 11 -22 13 -38 6z m18 -32 c0 -8 -4 -15 -10 -15 -5
0 -10 7 -10 15 0 8 5 15 10 15 6 0 10 -7 10 -15z m30 -66 c0 -5 -4 -9 -10 -9
-5 0 -10 7 -10 16 0 8 5 12 10 9 6 -3 10 -10 10 -16z"/>
<path d="M340 2070 c0 -5 11 -10 24 -10 13 0 30 -7 37 -16 12 -14 8 -21 -26
-50 -22 -18 -37 -35 -35 -37 9 -8 84 -27 88 -22 3 3 -9 11 -26 18 l-32 13 30
26 c32 28 32 51 2 76 -19 14 -62 16 -62 2z"/>
<path d="M923 2093 c-13 -2 -30 -14 -38 -26 -32 -45 -7 -97 32 -66 14 12 16
12 11 -1 -2 -8 -15 -21 -29 -27 -18 -10 -20 -13 -6 -13 34 0 57 36 57 90 0 28
-1 49 -2 49 -2 -1 -13 -4 -25 -6z m5 -50 c-4 -36 -38 -45 -38 -10 0 27 7 37
27 37 10 0 13 -9 11 -27z"/>
<path d="M780 2010 c0 -33 4 -60 10 -60 6 0 10 9 10 20 0 23 10 26 28 8 6 -6
15 -9 19 -5 3 4 -2 13 -12 20 -17 13 -17 15 1 43 l18 29 -27 -24 -27 -24 0 26
c0 15 -4 27 -10 27 -6 0 -10 -27 -10 -60z"/>
<path d="M643 2013 c-7 -2 -13 -9 -13 -14 0 -4 7 -6 15 -3 12 5 15 -2 15 -33
0 -21 -5 -44 -12 -51 -9 -9 -9 -12 3 -12 18 0 59 29 42 30 -9 0 -13 16 -13 45
0 44 -6 51 -37 38z"/>
<path d="M4000 1774 c-102 -30 -202 -59 -223 -65 l-38 -10 3 -142 3 -142 229
-68 228 -68 217 66 c119 36 224 68 234 71 15 5 17 21 17 144 0 123 -2 139 -17
144 -230 69 -434 126 -449 125 -10 -1 -102 -25 -204 -55z m379 -10 c86 -25
171 -50 190 -56 33 -10 26 -13 -165 -74 l-198 -64 -203 62 c-112 35 -200 64
-196 65 62 21 383 111 397 112 10 1 89 -19 175 -45z m-404 -158 l210 -62 3
-121 3 -121 -168 49 c-92 27 -192 57 -220 65 l-53 15 0 120 c0 65 3 119 8 119
4 -1 102 -29 217 -64z m675 -54 l0 -118 -207 -63 c-115 -35 -214 -66 -221 -68
-10 -4 -12 21 -10 117 l3 123 205 63 c113 34 211 63 218 63 9 1 12 -29 12
-117z"/>
<path d="M3890 1580 c0 -5 -7 -10 -15 -10 -8 0 -15 -8 -15 -19 0 -10 7 -24 15
-31 22 -18 20 -51 -2 -44 -17 5 -17 5 0 -9 9 -8 17 -20 17 -28 0 -9 3 -10 8
-3 4 6 15 13 25 17 23 9 22 33 -3 54 -24 20 -27 48 -5 39 20 -7 19 0 -5 24
-11 11 -20 16 -20 10z m0 -36 c0 -8 -5 -12 -10 -9 -6 4 -8 11 -5 16 9 14 15
11 15 -7z m30 -65 c0 -5 -4 -9 -10 -9 -5 0 -10 7 -10 16 0 8 5 12 10 9 6 -3
10 -10 10 -16z"/>
<path d="M3975 1550 c-3 -4 4 -10 15 -13 16 -4 20 -14 20 -51 0 -37 -3 -46
-17 -46 -29 0 -1 -19 37 -26 32 -5 33 -4 18 9 -13 10 -18 29 -18 69 0 52 -2
56 -25 60 -14 3 -28 2 -30 -2z"/>
<path d="M4519 1562 c-23 -16 -26 -70 -3 -79 8 -3 20 -1 27 6 8 8 7 11 -5 11
-24 0 -31 16 -18 40 20 37 40 25 37 -22 -2 -33 -8 -45 -25 -53 -29 -13 -29
-27 1 -16 28 10 47 46 47 93 0 31 -3 37 -21 35 -11 -1 -29 -7 -40 -15z"/>
<path d="M4410 1499 c0 -37 4 -58 10 -54 6 3 10 13 10 21 0 12 4 13 21 4 27
-15 37 -5 11 11 l-21 13 21 30 22 31 -27 -24 -27 -24 0 26 c0 15 -4 27 -10 27
-6 0 -10 -27 -10 -61z"/>
<path d="M4273 1503 c-7 -2 -13 -9 -13 -14 0 -4 7 -6 15 -3 12 5 15 -3 15 -35
0 -28 -5 -44 -15 -47 -31 -12 -14 -22 20 -11 35 10 48 27 20 27 -11 0 -15 12
-15 45 0 44 -3 48 -27 38z"/>
<path d="M1979 661 c-146 -43 -271 -81 -277 -85 -8 -5 -12 -57 -12 -171 l0
-163 33 -11 c17 -6 147 -44 286 -86 l255 -75 265 81 c147 44 274 82 284 85 16
5 17 20 15 177 l-3 171 -265 78 c-146 43 -276 78 -290 77 -14 0 -145 -35 -291
-78z m541 -10 c170 -50 230 -71 215 -77 -10 -4 -120 -40 -243 -80 l-223 -72
-251 77 -250 78 109 32 c310 90 379 110 393 110 8 1 121 -30 250 -68z m-385
-226 l110 -32 3 -146 c1 -81 -1 -147 -4 -147 -4 0 -121 34 -261 75 -139 41
-255 75 -258 75 -3 0 -5 67 -5 149 l0 149 153 -45 c83 -25 202 -60 262 -78z
m673 -22 l-3 -146 -255 -78 c-140 -43 -258 -79 -263 -79 -4 0 -6 66 -5 147 l3
146 250 78 c138 42 256 77 263 78 10 1 12 -32 10 -146z"/>
<path d="M1816 438 c-20 -11 -21 -47 -1 -54 8 -4 15 -15 15 -26 0 -14 -5 -18
-15 -14 -8 3 -15 1 -15 -3 0 -5 7 -11 15 -15 8 -3 15 -13 15 -21 0 -15 1 -15
16 -1 8 9 20 16 25 16 17 0 9 40 -11 52 -24 15 -28 50 -5 42 20 -8 19 -2 -4
17 -12 11 -23 14 -35 7z m14 -34 c0 -8 -4 -12 -10 -9 -5 3 -10 10 -10 16 0 5
5 9 10 9 6 0 10 -7 10 -16z m30 -59 c0 -8 -4 -15 -10 -15 -5 0 -10 7 -10 15 0
8 5 15 10 15 6 0 10 -7 10 -15z"/>
<path d="M1920 411 c0 -6 7 -11 15 -11 11 0 15 -12 15 -51 0 -41 -3 -50 -15
-45 -8 3 -15 2 -15 -3 0 -4 16 -12 35 -18 20 -6 35 -7 35 -2 0 5 -4 9 -10 9
-5 0 -10 28 -12 63 -3 56 -5 62 -25 65 -13 2 -23 -1 -23 -7z"/>
<path d="M2035 373 c-18 -18 -19 -59 -2 -93 9 -18 21 -25 42 -25 28 0 30 3 33
42 2 23 -1 51 -7 61 -14 26 -48 34 -66 15z m50 -58 c0 -56 -22 -70 -39 -24
-12 36 0 81 22 77 13 -3 17 -14 17 -53z"/>
<path d="M2640 409 c-31 -13 -40 -26 -40 -63 0 -26 3 -28 29 -24 34 5 33 -17
-2 -26 -12 -3 -18 -8 -15 -11 11 -11 49 15 58 41 12 30 13 94 3 93 -5 0 -19
-5 -33 -10z m18 -36 c4 -26 -24 -51 -40 -35 -9 9 -8 18 0 38 14 29 35 28 40
-3z"/>
<path d="M2510 335 c0 -42 4 -64 10 -60 6 3 10 13 10 21 0 10 7 13 28 9 l27
-6 -27 21 c-17 13 -28 31 -28 45 0 13 -4 27 -10 30 -6 4 -10 -18 -10 -60z"/>
<path d="M2563 378 c-23 -30 -24 -41 -2 -21 12 12 20 25 17 28 -3 3 -10 0 -15
-7z"/>
<path d="M2376 306 c-33 -57 -33 -68 -1 -56 16 6 25 6 25 0 0 -6 5 -10 10 -10
6 0 10 6 10 14 0 8 6 17 13 19 10 4 10 6 0 6 -8 1 -13 15 -13 36 0 47 -13 44
-44 -9z m13 -37 c-20 -12 -21 -5 -7 27 13 28 13 28 16 5 2 -13 -2 -27 -9 -32z"/>
</g>
</svg>
