<?xml version="1.0" encoding="UTF-8"?>
<svg xmlns="http://www.w3.org/2000/svg" xmlns:xlink="http://www.w3.org/1999/xlink" width="150px" height="200px" viewBox="0 0 150 200" version="1.1">
<g id="surface1">
<path style=" stroke:none;fill-rule:nonzero;fill:rgb(0%,0%,0%);fill-opacity:1;" d="M 117.621094 5.515625 C 117.621094 8.546875 117.496094 11.03125 117.335938 11.03125 C 117.179688 11.03125 116.894531 10.632812 116.671875 10.140625 C 116.261719 9.191406 116.007812 9.039062 110.824219 6.832031 C 106.964844 5.175781 105.765625 5.117188 102.285156 6.371094 L 99.757812 7.292969 L 99.664062 27.175781 L 99.597656 47.058594 L 94.445312 48.039062 C 87.269531 49.417969 87.867188 49.570312 87.964844 46.324219 L 88.058594 43.65625 L 91.441406 42.554688 C 95.582031 41.207031 97.101562 40.289062 97.988281 38.542969 C 98.621094 37.253906 98.652344 36.703125 98.652344 28.859375 C 98.652344 19.761719 98.554688 19.117188 96.816406 17.371094 C 95.582031 16.113281 93.875 15.195312 89.796875 13.632812 C 84.898438 11.734375 83.378906 11.824219 77.085938 14.214844 C 75.570312 14.796875 73.546875 15.441406 72.566406 15.65625 L 70.828125 16.023438 L 70.761719 34.28125 L 70.667969 52.542969 L 70.605469 37.835938 L 70.511719 23.101562 L 68.769531 22.519531 L 67.03125 21.96875 L 67.03125 16.636719 C 67.03125 13.480469 66.90625 11.335938 66.714844 11.335938 C 66.273438 11.335938 56.34375 5.453125 50.75 1.898438 C 49.894531 1.347656 48.851562 0.828125 48.503906 0.734375 C 48.125 0.644531 46.480469 0.980469 44.867188 1.46875 L 41.894531 2.390625 L 41.800781 9.925781 C 41.769531 14.0625 41.832031 17.464844 41.988281 17.464844 C 42.148438 17.464844 43.316406 17.125 44.582031 16.699219 C 45.847656 16.269531 47.015625 15.929688 47.175781 15.929688 C 47.300781 15.929688 47.429688 16.390625 47.429688 16.972656 L 47.429688 18.046875 L 44.644531 18.902344 L 41.894531 19.761719 L 41.800781 26.746094 C 41.738281 33.210938 41.769531 33.699219 42.273438 33.699219 C 42.8125 33.699219 45.121094 33.148438 46.734375 32.660156 C 47.363281 32.445312 47.429688 32.535156 47.429688 33.671875 C 47.429688 34.4375 47.269531 34.925781 47.050781 34.925781 C 46.859375 34.925781 45.5625 35.203125 44.203125 35.570312 L 41.738281 36.214844 L 41.738281 43.230469 C 41.738281 51.257812 41.453125 50.644531 44.898438 49.632812 C 47.648438 48.835938 47.746094 48.835938 47.746094 50.0625 C 47.746094 51.074219 47.679688 51.101562 46.101562 51.46875 C 45.183594 51.683594 43.886719 51.992188 43.253906 52.175781 L 42.054688 52.480469 L 42.054688 66.542969 L 42.90625 66.359375 C 43.414062 66.269531 44.675781 66.023438 45.785156 65.839844 L 47.746094 65.472656 L 47.746094 51.410156 L 48.757812 51.625 C 51.160156 52.144531 51.222656 52.207031 51.222656 54.199219 C 51.222656 56.066406 51 56.371094 49.609375 56.371094 C 49.039062 56.371094 48.976562 56.554688 49.074219 58.886719 L 49.167969 61.425781 L 51.066406 61.335938 C 53.308594 61.214844 60.359375 60.261719 64.1875 59.589844 C 69.847656 58.546875 97.164062 53.277344 102.128906 52.238281 C 115.125 49.539062 123.691406 48.714844 128.6875 49.753906 C 130.964844 50.214844 135.011719 51.867188 135.011719 52.328125 C 135.011719 52.695312 127.773438 54.042969 125.9375 54.042969 C 124.640625 54.042969 124.136719 53.890625 123.472656 53.308594 C 123.027344 52.910156 122.679688 52.421875 122.679688 52.207031 C 122.679688 51.410156 113.007812 52.664062 99.597656 55.175781 C 96.910156 55.699219 92.863281 56.433594 90.621094 56.863281 C 87.585938 57.414062 86.257812 57.78125 85.527344 58.332031 C 84.167969 59.34375 82.683594 62.222656 80.183594 68.628906 C 76.898438 77.023438 76.800781 77.265625 75.820312 78.828125 C 74.746094 80.453125 73.546875 81.402344 72.1875 81.679688 C 71.332031 81.832031 71.269531 81.769531 70.066406 78.828125 C 67.476562 72.457031 63.109375 62.347656 62.890625 62.070312 C 62.480469 61.613281 58.496094 62.195312 58.273438 62.714844 C 58.179688 62.988281 58.589844 64.214844 59.222656 65.441406 C 60.835938 68.566406 60.738281 69.238281 58.683594 69.238281 C 58.082031 69.238281 57.769531 68.75 56.597656 66.144531 L 55.238281 63.050781 L 53.308594 63.265625 C 52.265625 63.359375 51.347656 63.511719 51.285156 63.542969 C 51.253906 63.601562 51.695312 64.765625 52.328125 66.144531 C 53.5 68.84375 53.5625 69.054688 53.183594 68.8125 C 53.023438 68.71875 51.792969 69.546875 50.402344 70.648438 L 47.902344 72.609375 L 47.714844 67.648438 L 46.542969 67.832031 C 45.910156 67.953125 44.613281 68.167969 43.730469 68.351562 L 42.054688 68.65625 L 42.054688 82.414062 L 43.316406 82.230469 C 46.035156 81.800781 44.394531 82.71875 39.777344 84.222656 C 35.539062 85.601562 34.8125 85.9375 33.609375 87.070312 L 32.25 88.359375 L 32.25 85.753906 L 31.238281 85.9375 C 30.671875 86.03125 29.5 86.214844 28.613281 86.335938 L 27.066406 86.550781 L 26.242188 88.96875 C 25.167969 92.15625 24.664062 92.308594 24.664062 89.492188 C 24.664062 88.328125 24.566406 87.285156 24.441406 87.222656 C 24.285156 87.164062 22.988281 87.253906 21.5 87.4375 L 18.8125 87.777344 L 18.65625 90.960938 L 18.496094 94.148438 L 9.328125 98.070312 C 1.800781 101.316406 0.125 102.113281 0.0625 102.664062 C 0 103.03125 0.09375 103.246094 0.253906 103.125 C 0.410156 103.03125 0.664062 103.523438 0.757812 104.257812 C 1.105469 106.433594 0.125 106.3125 11.160156 105.546875 C 13.5 105.390625 13.914062 105.453125 13.914062 105.851562 C 13.914062 106.464844 14.070312 106.433594 15.175781 105.667969 C 15.839844 105.175781 16.316406 105.054688 16.980469 105.207031 C 17.960938 105.453125 20.964844 108.394531 22.640625 110.753906 L 23.714844 112.285156 L 23.714844 134.253906 C 23.714844 156.15625 23.714844 156.21875 23.050781 156.3125 C 22.449219 156.402344 22.417969 156.617188 22.355469 160.234375 C 22.292969 163.878906 22.257812 164.0625 21.660156 164 C 21.3125 163.941406 19.953125 163.757812 18.625 163.574219 C 16.789062 163.296875 15.589844 163.296875 13.753906 163.574219 C 12.394531 163.757812 11.226562 163.847656 11.128906 163.757812 C 11.035156 163.664062 10.75 157.109375 10.496094 149.140625 C 10.148438 137.46875 9.960938 134.589844 9.613281 134.3125 C 9.328125 134.070312 9.167969 133.332031 9.167969 131.953125 C 9.167969 129.71875 9.359375 128.984375 9.960938 128.984375 C 10.625 128.984375 10.75 129.75 10.75 134.070312 L 10.75 138.175781 L 13.28125 138.175781 C 15.9375 138.175781 17.453125 138.632812 17.832031 139.550781 C 18.433594 141.054688 17.707031 143.414062 15.871094 146.046875 C 13.089844 150.0625 12.964844 151.410156 15.050781 154.871094 L 16.285156 156.894531 L 17.863281 156.710938 C 18.75 156.617188 20.046875 156.464844 20.804688 156.371094 L 22.132812 156.1875 L 22.132812 135.691406 C 22.132812 114.523438 22.070312 113.203125 20.804688 110.816406 C 19.792969 108.855469 16.757812 106.003906 15.714844 106.003906 C 15.523438 106.003906 15.398438 106.28125 13.121094 112.59375 C 10.65625 119.425781 10.75 119.179688 10.308594 119.179688 C 10.085938 119.179688 9.613281 118.871094 9.234375 118.472656 C 7.839844 117.035156 8.570312 114.246094 11.445312 110.019531 C 12.300781 108.792969 12.933594 107.71875 12.902344 107.660156 C 12.835938 107.628906 11.382812 108.179688 9.644531 108.914062 C 7.90625 109.652344 6.292969 110.261719 6.039062 110.292969 C 5.722656 110.292969 5.660156 110.539062 5.816406 111.273438 C 5.945312 111.824219 6.261719 113.449219 6.511719 114.890625 C 7.273438 119.238281 7.242188 119.179688 8 119.085938 C 8.535156 119.027344 8.664062 119.210938 8.726562 119.945312 C 8.757812 120.433594 8.886719 130.699219 8.980469 142.707031 L 9.167969 164.523438 L 8.472656 164.796875 C 7.210938 165.289062 5.058594 166.972656 4.425781 167.984375 C 2.75 170.648438 4.238281 173.132812 8.695312 175.152344 C 10.464844 175.917969 10.941406 176.011719 15.398438 176.101562 C 20.742188 176.257812 21.34375 176.132812 26.054688 174.019531 C 28.804688 172.792969 32.125 171.875 33.800781 171.875 C 34.621094 171.875 34.78125 171.96875 34.65625 172.394531 C 34.558594 172.703125 34.117188 174.664062 33.675781 176.777344 C 33.230469 178.890625 32.789062 180.820312 32.695312 181.128906 C 32.472656 181.863281 35.003906 184.773438 36.519531 185.476562 C 37.722656 186.058594 37.847656 186.058594 40.945312 185.570312 C 42.683594 185.261719 44.644531 185.050781 45.277344 185.050781 L 46.449219 185.050781 L 46.257812 189.460938 L 46.070312 193.84375 L 47.777344 194.027344 C 48.726562 194.148438 51.414062 194.300781 53.753906 194.394531 C 56.09375 194.484375 58.746094 194.636719 59.632812 194.730469 L 61.277344 194.882812 L 61.46875 197.058594 C 61.75 199.601562 61.910156 200.121094 62.414062 199.847656 C 62.730469 199.664062 75.253906 198.589844 77.5625 198.53125 C 78.257812 198.53125 78.414062 198.652344 78.414062 199.296875 C 78.414062 199.847656 78.574219 200.0625 79.015625 200.0625 C 79.363281 200.0625 79.679688 199.9375 79.742188 199.816406 C 79.804688 199.664062 83.695312 198.683594 88.375 197.640625 C 93.085938 196.597656 97.101562 195.679688 97.324219 195.617188 C 97.511719 195.527344 97.703125 195.128906 97.703125 194.730469 C 97.703125 194.179688 97.890625 193.902344 98.429688 193.78125 C 98.808594 193.6875 102.984375 192.921875 107.664062 192.066406 C 117.71875 190.226562 120.4375 189.367188 122.714844 187.222656 C 124.546875 185.507812 124.863281 184.496094 124.167969 182.566406 C 123.34375 180.363281 123.472656 179.933594 125.367188 178.0625 C 126.316406 177.113281 127.265625 175.886719 127.457031 175.304688 C 127.804688 174.296875 127.707031 174.019531 125.84375 170.433594 C 124.738281 168.351562 123.914062 166.605469 123.976562 166.542969 C 124.039062 166.511719 125.558594 166.300781 127.296875 166.113281 C 130.839844 165.71875 132.894531 165.164062 134.949219 164.03125 C 136.054688 163.386719 136.53125 162.804688 137.667969 160.601562 C 138.964844 158.117188 139.25 157.261719 139.15625 156.371094 C 139.15625 156.15625 137.828125 154.503906 136.246094 152.695312 C 133.117188 149.082031 132.039062 147.335938 132.324219 146.445312 C 132.671875 145.40625 136.878906 144.300781 140.578125 144.300781 C 144.53125 144.300781 144.941406 143.871094 146.300781 138.542969 L 147.1875 135.050781 L 146.523438 134.527344 C 146.140625 134.253906 144.085938 132.8125 141.96875 131.3125 L 138.078125 128.554688 L 138.269531 126.410156 C 138.460938 123.957031 139.125 122.363281 140.292969 121.507812 C 140.957031 121.015625 141.621094 120.957031 144.214844 120.988281 C 147.691406 121.015625 149.242188 120.558594 149.242188 119.484375 C 149.242188 119.148438 149.398438 118.871094 149.558594 118.871094 C 149.746094 118.871094 149.875 117.371094 149.875 115.011719 C 149.875 111.425781 149.808594 111.089844 149.179688 110.570312 C 148.578125 110.050781 144.878906 108.792969 141.148438 107.875 C 139.882812 107.535156 139.851562 107.507812 139.628906 105.914062 C 139.535156 105.054688 139.4375 103.402344 139.4375 102.265625 L 139.4375 100.183594 L 144.183594 97.886719 C 149.683594 95.21875 149.273438 96.015625 148.199219 90.074219 L 147.503906 86.242188 L 143.074219 85.875 C 140.640625 85.691406 138.238281 85.476562 137.730469 85.417969 C 136.847656 85.324219 136.785156 85.203125 136.121094 82.660156 L 135.457031 79.964844 L 139.34375 76.226562 C 142.0625 73.621094 143.234375 72.304688 143.234375 71.8125 C 143.234375 71.414062 142.726562 69.761719 142.125 68.105469 C 140.957031 64.921875 139.785156 63.417969 138.394531 63.417969 C 136.5625 63.386719 129.066406 62.53125 128.277344 62.222656 C 127.582031 61.980469 127.078125 61.242188 125.9375 58.976562 C 125.148438 57.351562 124.546875 55.972656 124.640625 55.914062 C 124.800781 55.730469 127.359375 55.300781 133.433594 54.410156 C 135.265625 54.136719 137.132812 53.828125 137.636719 53.738281 L 138.492188 53.554688 L 138.492188 45.773438 L 136.59375 44.882812 C 135.550781 44.394531 134.695312 43.871094 134.664062 43.6875 C 134.664062 43.503906 134.664062 34.160156 134.695312 22.949219 L 134.726562 2.511719 L 133.683594 2.359375 C 133.117188 2.265625 130.015625 1.808594 126.792969 1.347656 C 123.566406 0.859375 120.910156 0.367188 120.847656 0.246094 C 120.785156 0.121094 120.023438 0 119.171875 0 L 117.621094 0 Z M 129.003906 2.972656 L 132.800781 4.441406 L 132.800781 42.953125 L 128.941406 42.738281 C 126.792969 42.617188 124.957031 42.464844 124.832031 42.371094 C 124.453125 42.15625 124.515625 1.53125 124.894531 1.53125 C 125.085938 1.53125 126.917969 2.175781 129.003906 2.972656 Z M 49.546875 3.21875 L 50.90625 4.011719 L 50.90625 10.570312 C 50.90625 14.183594 50.84375 17.15625 50.75 17.15625 C 50.117188 17.15625 47.996094 16.054688 47.746094 15.59375 C 47.269531 14.765625 47.332031 2.449219 47.808594 2.449219 C 47.996094 2.449219 48.789062 2.789062 49.546875 3.21875 Z M 54.101562 5.972656 L 55.492188 6.710938 L 55.648438 12.777344 C 55.742188 16.113281 55.742188 18.996094 55.648438 19.179688 C 55.394531 19.761719 53.339844 18.964844 52.898438 18.074219 C 52.613281 17.523438 52.488281 15.503906 52.488281 11.242188 C 52.488281 7.933594 52.550781 5.207031 52.613281 5.207031 C 52.675781 5.207031 53.371094 5.546875 54.101562 5.972656 Z M 110.917969 8.117188 C 113.195312 9.128906 115.820312 11.613281 116.707031 13.574219 C 117.335938 14.949219 117.433594 15.746094 117.527344 19.699219 C 117.589844 22.210938 117.527344 24.386719 117.433594 24.570312 C 117.242188 24.878906 116.609375 23.773438 110.699219 12.777344 C 108.011719 7.75 107.851562 7.351562 108.515625 7.351562 C 108.925781 7.351562 110.003906 7.691406 110.917969 8.117188 Z M 59.128906 8.792969 L 60.707031 9.652344 L 60.707031 19.238281 L 59.726562 19.578125 C 59.160156 19.761719 58.367188 19.914062 57.988281 19.914062 L 57.230469 19.914062 L 57.230469 13.941406 C 57.230469 10.660156 57.292969 7.964844 57.386719 7.964844 C 57.484375 7.964844 58.242188 8.332031 59.128906 8.792969 Z M 64.28125 11.855469 L 65.449219 12.5625 L 65.449219 16.851562 C 65.449219 19.210938 65.386719 21.140625 65.324219 21.140625 C 65.261719 21.140625 64.535156 20.863281 63.742188 20.527344 L 62.289062 19.945312 L 62.289062 15.320312 C 62.289062 11.703125 62.382812 10.722656 62.699219 10.90625 C 62.890625 11.03125 63.617188 11.457031 64.28125 11.855469 Z M 92.675781 16.421875 C 95.046875 17.554688 96.628906 19.117188 96.910156 20.617188 C 97.039062 21.199219 97.070312 25.03125 97.007812 29.136719 C 96.910156 37.5625 96.722656 38.265625 94.570312 39.707031 C 92.863281 40.839844 88.628906 42.066406 87.109375 41.851562 C 86.445312 41.789062 84.453125 41.023438 82.683594 40.164062 C 80.945312 39.339844 79.171875 38.542969 78.730469 38.417969 C 78.097656 38.234375 78.382812 38.113281 80.21875 37.804688 C 84.613281 37.101562 86.730469 35.449219 87.996094 31.769531 C 88.628906 30.054688 88.660156 29.199219 88.660156 22.457031 L 88.660156 15.042969 L 89.640625 15.226562 C 90.144531 15.320312 91.535156 15.871094 92.675781 16.421875 Z M 49.671875 19.027344 L 51.222656 19.667969 L 51.222656 26.683594 C 51.222656 32.8125 51.160156 33.699219 50.75 33.699219 C 50.117188 33.699219 48.28125 32.8125 47.996094 32.351562 C 47.714844 31.953125 47.648438 18.382812 47.933594 18.382812 C 48.027344 18.382812 48.820312 18.6875 49.671875 19.027344 Z M 64.820312 22.609375 L 68.769531 24.082031 L 68.769531 52.820312 L 65.609375 53.371094 C 63.871094 53.644531 61.972656 53.984375 61.433594 54.074219 L 60.390625 54.257812 L 60.390625 37.683594 C 60.390625 28.585938 60.488281 21.140625 60.644531 21.140625 C 60.773438 21.140625 62.667969 21.8125 64.820312 22.609375 Z M 79.804688 24.234375 C 81.261719 24.785156 81.578125 25.03125 81.578125 25.644531 C 81.578125 27.207031 79.171875 30.636719 78.066406 30.636719 C 77.910156 30.636719 77.78125 29.042969 77.78125 27.113281 C 77.78125 25.183594 77.84375 23.589844 77.910156 23.589844 C 77.972656 23.589844 78.824219 23.898438 79.804688 24.234375 Z M 111.867188 33.609375 C 114.683594 38.632812 117.054688 42.984375 117.148438 43.261719 C 117.304688 43.65625 117.117188 43.8125 116.136719 43.996094 C 115.472656 44.085938 113.257812 44.515625 111.171875 44.914062 C 109.117188 45.3125 107.21875 45.648438 107 45.648438 C 106.617188 45.648438 106.554688 43.8125 106.554688 35.078125 C 106.554688 29.257812 106.617188 24.511719 106.683594 24.511719 C 106.746094 24.511719 109.085938 28.613281 111.867188 33.609375 Z M 49.769531 35.539062 L 51.222656 36.121094 L 51.222656 49.9375 L 50.367188 49.753906 C 49.863281 49.632812 49.136719 49.449219 48.691406 49.324219 L 47.902344 49.140625 L 47.808594 42.035156 C 47.777344 37.777344 47.839844 34.925781 48.027344 34.925781 C 48.1875 34.925781 48.976562 35.203125 49.769531 35.539062 Z M 84.832031 42.648438 L 86.320312 43.289062 L 86.320312 49.570312 L 82.304688 50.304688 C 80.058594 50.703125 78.160156 51.011719 78.035156 50.949219 C 77.75 50.796875 77.6875 40.320312 77.972656 40.074219 C 78.128906 39.921875 80.882812 40.929688 84.832031 42.648438 Z M 131.25 44.546875 C 132.703125 45.128906 134.570312 45.863281 135.421875 46.230469 L 136.910156 46.84375 L 136.910156 48.867188 C 136.910156 50.398438 136.816406 50.859375 136.433594 50.859375 C 135.675781 50.859375 129.351562 48.40625 128.847656 47.917969 C 128.53125 47.578125 128.371094 46.8125 128.371094 45.464844 C 128.371094 44.394531 128.4375 43.503906 128.5 43.503906 C 128.5625 43.503906 129.796875 43.964844 131.25 44.546875 Z M 123.628906 57.933594 C 124.863281 60.324219 125.84375 62.5 125.84375 62.777344 C 125.84375 63.113281 124.863281 63.632812 122.617188 64.492188 C 120.816406 65.164062 119.265625 65.71875 119.140625 65.71875 C 118.824219 65.71875 113.828125 56.003906 113.828125 55.390625 C 113.828125 55.054688 114.238281 54.75 115.03125 54.566406 C 116.988281 54.011719 118.980469 53.675781 120.246094 53.644531 L 121.417969 53.613281 Z M 101.054688 65.777344 C 102.320312 67.402344 104.34375 72.363281 105.765625 77.359375 C 106.933594 81.464844 108.390625 89.308594 108.074219 89.613281 C 107.757812 89.921875 87.585938 85.722656 87.585938 85.355469 C 87.585938 84.988281 90.242188 78.613281 92.296875 74.113281 C 94.003906 70.3125 96.214844 66.605469 97.480469 65.320312 C 98.808594 63.96875 99.726562 64.09375 101.054688 65.777344 Z M 136.847656 64.796875 C 138.808594 65.378906 139.976562 66.636719 140.832031 69.085938 C 141.179688 70.007812 141.367188 70.832031 141.304688 70.894531 C 141.113281 71.015625 132.515625 70.007812 132.324219 69.792969 C 132.230469 69.730469 131.691406 68.445312 131.09375 67.003906 L 130.015625 64.339844 L 132.609375 64.339844 C 134.03125 64.339844 135.929688 64.550781 136.847656 64.796875 Z M 138.269531 72.363281 C 139.4375 72.363281 140.484375 72.488281 140.546875 72.578125 C 140.609375 72.703125 139.914062 73.683594 139.027344 74.753906 C 136.847656 77.390625 134.824219 78.429688 131.882812 78.429688 C 129.003906 78.429688 125.527344 78.09375 125.527344 77.820312 C 125.527344 77.359375 128.371094 73.835938 129.164062 73.34375 C 130.710938 72.363281 132.261719 71.996094 134.222656 72.152344 C 135.265625 72.242188 137.097656 72.335938 138.269531 72.363281 Z M 60.296875 73.285156 C 61.785156 74.234375 63.554688 76.714844 64.28125 78.859375 C 65.039062 81.003906 65.007812 81.1875 63.679688 81.1875 C 62.605469 81.1875 62.574219 81.15625 62.730469 80.332031 C 62.921875 79.503906 62.859375 79.472656 57.640625 77.175781 C 51.347656 74.386719 51.539062 74.324219 51.539062 78.613281 L 51.539062 81.464844 L 50.148438 81.648438 C 47.679688 82.015625 46.480469 81.371094 46.480469 79.6875 C 46.511719 77.574219 49.578125 74.449219 52.992188 73.039062 C 55.523438 71.996094 58.464844 72.121094 60.296875 73.285156 Z M 55.839844 78.460938 C 55.742188 78.984375 55.648438 79.964844 55.648438 80.605469 C 55.648438 81.738281 55.585938 81.800781 54.699219 81.800781 L 53.753906 81.800781 L 53.753906 77.511719 L 54.890625 77.511719 C 56.027344 77.511719 56.027344 77.542969 55.839844 78.460938 Z M 59.664062 81.003906 C 59.539062 81.28125 59.253906 81.496094 58.96875 81.496094 C 58.621094 81.496094 58.496094 81.1875 58.496094 80.363281 L 58.496094 79.226562 L 59.160156 79.871094 C 59.570312 80.238281 59.757812 80.730469 59.664062 81.003906 Z M 130.523438 80.148438 C 133.683594 80.363281 133.746094 80.363281 133.9375 81.15625 C 134.03125 81.585938 134.316406 82.660156 134.570312 83.546875 C 134.824219 84.40625 135.011719 85.171875 135.011719 85.261719 C 135.011719 85.324219 133.304688 85.476562 131.25 85.601562 C 128.152344 85.785156 127.296875 85.722656 126.539062 85.355469 C 125.496094 84.835938 124.769531 83.273438 124.421875 80.914062 L 124.230469 79.566406 L 125.75 79.75 C 126.570312 79.871094 128.71875 80.023438 130.523438 80.148438 Z M 71.617188 83.914062 C 73.546875 84.253906 82.273438 86.089844 91.0625 88.050781 C 106.429688 91.453125 110.917969 92.371094 116.042969 93.199219 C 118.222656 93.566406 118.414062 93.65625 118.507812 94.363281 L 118.601562 95.160156 L 110.128906 95.832031 C 105.480469 96.199219 99.09375 96.722656 95.964844 96.96875 C 88.660156 97.550781 84.800781 97.855469 73.199219 98.804688 C 67.980469 99.234375 53.339844 100.398438 40.628906 101.410156 C 10.308594 103.828125 6.511719 104.136719 4.363281 104.351562 C 2.625 104.535156 2.53125 104.503906 2.53125 103.859375 C 2.53125 102.449219 5.5 100.644531 11.128906 98.621094 C 14.609375 97.394531 23.398438 93.566406 31.652344 89.738281 C 41.136719 85.324219 44.203125 84.375 51.476562 83.457031 C 56.34375 82.875 67.0625 83.089844 71.617188 83.914062 Z M 144.5 87.5625 L 146.238281 87.777344 L 146.648438 90.929688 C 146.902344 92.675781 147.027344 94.179688 146.933594 94.238281 C 146.648438 94.515625 138.175781 93.871094 137.828125 93.535156 C 137.636719 93.351562 137.414062 92.15625 137.320312 90.902344 C 137.164062 89 137.226562 88.417969 137.699219 87.746094 C 138.300781 86.855469 138.394531 86.855469 144.5 87.5625 Z M 143.707031 95.863281 C 144.214844 96.046875 143.800781 96.355469 141.496094 97.519531 L 138.648438 98.957031 L 134.601562 98.898438 L 130.554688 98.804688 L 136.75 95.617188 L 139.914062 95.617188 C 141.652344 95.617188 143.359375 95.742188 143.707031 95.863281 Z M 111.835938 98.714844 C 113.828125 100.519531 116.707031 103.953125 117.90625 106.035156 L 118.886719 107.75 L 118.886719 163.296875 L 118.128906 163.296875 C 117.71875 163.296875 117.304688 163.449219 117.242188 163.632812 C 117.117188 163.96875 112.59375 164.949219 112.34375 164.738281 C 112.277344 164.675781 112.753906 163.847656 113.386719 162.898438 L 114.523438 161.183594 L 115.757812 161.765625 C 116.421875 162.101562 117.054688 162.378906 117.148438 162.378906 C 117.242188 162.378906 117.304688 150.121094 117.304688 135.171875 L 117.304688 107.964844 L 116.515625 106.433594 C 115.597656 104.65625 114.175781 103.09375 113.828125 103.460938 C 113.667969 103.585938 113.511719 104.042969 113.449219 104.472656 C 113.355469 105.148438 113.164062 105.269531 111.613281 105.453125 C 109.148438 105.730469 104.34375 105.730469 104.34375 105.453125 C 104.375 105.332031 104.753906 104.78125 105.257812 104.257812 C 106.050781 103.308594 106.300781 103.246094 108.640625 103.0625 C 110.003906 102.972656 111.425781 102.820312 111.773438 102.789062 C 112.121094 102.726562 112.625 102.664062 112.878906 102.664062 C 113.132812 102.636719 112.59375 101.929688 111.613281 100.917969 L 109.875 99.234375 L 108.167969 101.011719 L 106.492188 102.789062 L 107.1875 101.410156 C 108.546875 98.773438 109.464844 97.425781 109.90625 97.425781 C 110.160156 97.425781 111.015625 98.007812 111.835938 98.714844 Z M 81.230469 100.734375 C 81.386719 101.042969 81.640625 102.023438 81.765625 102.941406 L 81.988281 104.566406 L 86.289062 104.382812 C 88.660156 104.257812 92.863281 104.042969 95.648438 103.828125 C 103.203125 103.339844 103.234375 103.339844 103.140625 103.828125 C 102.667969 105.945312 102.667969 106.003906 103.363281 106.003906 C 103.964844 106.003906 104.027344 106.1875 104.027344 107.535156 L 104.027344 109.070312 L 105.226562 109.070312 C 108.042969 109.070312 109.589844 111.183594 109.304688 114.582031 C 108.957031 118.472656 106.207031 131.738281 105.007812 135.261719 L 104.183594 137.714844 L 104.089844 123.375 L 104.027344 109.070312 L 102.445312 109.070312 L 102.445312 125.304688 C 102.445312 134.222656 102.570312 141.542969 102.730469 141.542969 C 102.855469 141.542969 103.203125 141.023438 103.488281 140.378906 C 103.929688 139.339844 103.964844 140.777344 103.996094 157.535156 L 104.027344 175.859375 L 102.445312 175.859375 L 102.414062 161.824219 C 102.382812 154.136719 102.285156 146.8125 102.160156 145.558594 L 101.972656 143.261719 L 101.210938 144.851562 C 100.769531 145.742188 100.261719 146.445312 100.042969 146.445312 C 99.347656 146.445312 97.703125 144.085938 95.996094 140.5625 C 93.84375 136.183594 87.902344 121.753906 87.902344 120.957031 C 87.902344 120.617188 88.40625 119.484375 89.007812 118.445312 C 89.609375 117.402344 90.589844 115.105469 91.15625 113.328125 C 91.980469 110.84375 92.390625 110.050781 92.992188 109.773438 C 93.464844 109.527344 95.109375 109.375 97.226562 109.375 C 102.035156 109.375 102.128906 109.3125 102.128906 107.566406 L 102.128906 106.128906 L 99.820312 106.066406 C 95.742188 105.914062 85.8125 106.617188 83.851562 107.167969 C 82.113281 107.691406 82.050781 107.75 81.671875 109.070312 C 81.164062 111.03125 81.164062 114.523438 81.734375 116.328125 C 81.988281 117.1875 82.90625 119.332031 83.757812 121.046875 C 84.613281 122.792969 86.257812 126.441406 87.425781 129.136719 C 91 137.40625 92.199219 140.011719 94.320312 144.300781 C 95.457031 146.570312 96.53125 149.050781 96.722656 149.816406 C 97.164062 151.65625 97.164062 153.859375 96.722656 154.933594 L 96.34375 155.789062 L 95.804688 154.566406 C 95.488281 153.890625 91.664062 145.160156 87.269531 135.171875 L 79.269531 117.035156 L 77.183594 119.238281 L 75.0625 121.414062 L 73.355469 119.667969 C 70.636719 116.882812 70.636719 116.910156 72.121094 116.269531 C 76.550781 114.308594 78.761719 108.671875 77.339844 102.847656 C 77.054688 101.683594 76.832031 100.644531 76.832031 100.460938 C 76.832031 100.304688 77.75 100.183594 78.890625 100.183594 C 80.535156 100.183594 80.976562 100.277344 81.230469 100.734375 Z M 137.667969 101.011719 C 137.761719 101.257812 137.859375 102.757812 137.859375 104.351562 L 137.859375 107.261719 L 133.242188 107.167969 L 128.625 107.078125 L 128.5 105.546875 C 128.4375 104.6875 128.308594 103.21875 128.183594 102.238281 L 127.992188 100.460938 L 132.734375 100.519531 C 136.625 100.550781 137.542969 100.644531 137.667969 101.011719 Z M 60.867188 102.972656 C 62.542969 103.554688 63.554688 105.023438 63.554688 106.925781 C 63.554688 108.515625 62.890625 109.773438 62.449219 109.039062 C 62.289062 108.824219 62.097656 108.148438 62.003906 107.566406 C 61.847656 106.648438 61.65625 106.496094 60.390625 106.15625 C 59.601562 105.945312 57.417969 105.332031 55.492188 104.839844 C 47.144531 102.605469 47.808594 102.820312 48.851562 102.574219 C 50.496094 102.207031 59.476562 102.480469 60.867188 102.972656 Z M 31.300781 105.851562 L 31.300781 107.535156 L 34.402344 107.351562 C 36.078125 107.261719 39.300781 107.078125 41.578125 106.925781 C 43.824219 106.769531 45.816406 106.769531 45.941406 106.894531 C 46.101562 107.046875 46.164062 107.414062 46.101562 107.71875 C 46.035156 108.179688 44.898438 108.425781 38.890625 109.40625 C 34.96875 110.050781 31.714844 110.570312 31.683594 110.570312 C 31.554688 110.601562 31.777344 112.898438 32.25 116.726562 C 32.410156 117.984375 32.789062 121.078125 33.042969 123.621094 C 33.292969 126.132812 33.609375 128.675781 33.707031 129.199219 C 33.800781 129.902344 33.738281 130.207031 33.453125 130.207031 C 33.230469 130.207031 32.21875 130.914062 31.207031 131.738281 C 30.195312 132.597656 29.246094 133.273438 29.121094 133.273438 C 28.996094 133.273438 28.648438 131.433594 28.332031 129.199219 C 28.046875 126.992188 27.570312 123.773438 27.351562 122.089844 C 25.421875 108.792969 25.296875 107.75 25.609375 107.382812 C 25.769531 107.167969 25.863281 106.585938 25.800781 106.035156 C 25.609375 104.535156 26.242188 104.167969 28.964844 104.167969 L 31.300781 104.167969 Z M 54.953125 107.78125 C 55.269531 107.996094 55.207031 108.242188 54.636719 108.914062 L 53.941406 109.773438 L 54.730469 110.355469 C 56.597656 111.765625 56.597656 111.796875 56.597656 113.359375 C 56.597656 114.183594 56.472656 114.890625 56.34375 114.890625 C 56.125 114.890625 52.011719 112.222656 51.253906 111.613281 C 51.160156 111.550781 51.347656 111.03125 51.632812 110.449219 C 51.917969 109.835938 52.171875 108.945312 52.171875 108.457031 C 52.171875 107.597656 52.265625 107.535156 53.371094 107.535156 C 54.003906 107.535156 54.730469 107.660156 54.953125 107.78125 Z M 49.324219 108.425781 C 49.324219 108.730469 49.039062 109.34375 48.660156 109.773438 C 47.871094 110.785156 48.09375 111.242188 50.304688 113.175781 C 52.359375 114.949219 56.09375 117.1875 60.234375 119.148438 C 76.390625 126.746094 78.476562 127.972656 80.566406 130.945312 C 82.082031 133.148438 81.988281 134.496094 80.183594 136.214844 C 79.425781 136.949219 78.699219 137.5625 78.542969 137.5625 C 78.382812 137.5625 78.257812 136.398438 78.257812 134.988281 C 78.257812 132.875 78.128906 132.230469 77.625 131.527344 C 76.960938 130.699219 67.886719 126.042969 59.757812 122.425781 C 53.277344 119.546875 47.902344 116.085938 46.511719 113.878906 C 46.132812 113.265625 45.847656 112.316406 45.847656 111.613281 C 45.847656 110.539062 46.035156 110.203125 47.269531 109.097656 C 48.820312 107.71875 49.324219 107.535156 49.324219 108.425781 Z M 59.378906 108.363281 C 58.84375 108.976562 58.273438 108.425781 69.816406 118.65625 C 72.3125 120.863281 74.210938 122.734375 74.050781 122.792969 C 73.894531 122.824219 71.078125 121.691406 67.789062 120.21875 C 64.503906 118.75 61.183594 117.308594 60.421875 116.972656 C 59.632812 116.605469 59.191406 116.269531 59.378906 116.144531 C 59.886719 115.839844 58.589844 110.601562 58.019531 110.601562 C 57.640625 110.601562 57.167969 108.578125 57.453125 108.058594 C 57.515625 107.933594 58.082031 107.84375 58.714844 107.84375 C 59.792969 107.84375 59.824219 107.875 59.378906 108.363281 Z M 87.425781 110.96875 C 87.078125 112.5625 85.875 115.289062 85.464844 115.410156 C 85.246094 115.503906 84.960938 114.859375 84.707031 113.785156 C 84.234375 111.765625 84.644531 110.632812 86.003906 110.261719 C 87.519531 109.863281 87.648438 109.925781 87.425781 110.96875 Z M 148.230469 111.980469 C 148.261719 112.011719 148.199219 113.542969 148.070312 115.378906 L 147.816406 118.71875 L 143.105469 118.8125 L 138.394531 118.933594 L 138.554688 116.054688 C 138.773438 112.777344 138.902344 112.316406 139.820312 111.917969 C 140.386719 111.671875 147.945312 111.734375 148.230469 111.980469 Z M 43.539062 112.683594 C 43.730469 112.804688 43.980469 113.234375 44.109375 113.664062 C 44.265625 114.339844 43.917969 114.765625 41.292969 117.125 C 39.648438 118.597656 38.226562 119.667969 38.132812 119.515625 C 37.816406 119.027344 37.53125 115.59375 37.753906 114.765625 C 37.972656 113.847656 39.332031 113.082031 41.390625 112.746094 C 42.179688 112.621094 42.90625 112.5 43 112.46875 C 43.097656 112.46875 43.316406 112.5625 43.539062 112.683594 Z M 49.484375 118.71875 C 52.265625 120.710938 55.207031 122.425781 58.652344 124.113281 C 61.433594 125.460938 64.089844 126.960938 64.535156 127.421875 C 65.578125 128.492188 66.589844 131.035156 66.875 133.300781 C 67.160156 135.417969 66.496094 137.101562 65.292969 137.5625 C 63.933594 138.050781 58.9375 137.960938 58.398438 137.40625 C 57.261719 136.335938 56.851562 131.128906 57.734375 129.136719 C 57.988281 128.523438 58.179688 127.972656 58.117188 127.941406 C 57.609375 127.605469 53.6875 126.164062 53.59375 126.285156 C 53.339844 126.53125 53.308594 130.363281 53.53125 130.851562 C 53.71875 131.25 53.152344 131.894531 51.066406 133.609375 L 48.375 135.84375 L 49.167969 136.519531 C 50.085938 137.285156 50.210938 138.019531 49.421875 137.804688 C 49.105469 137.714844 46.605469 137.039062 43.886719 136.335938 L 38.890625 134.988281 L 38.890625 133.027344 L 42.652344 132.167969 C 44.742188 131.679688 46.386719 131.25 46.320312 131.1875 C 46.257812 131.128906 43.855469 131.464844 40.976562 131.925781 L 35.730469 132.78125 L 35.699219 134.007812 C 35.699219 135.171875 35.667969 135.203125 35.382812 134.496094 C 35.191406 134.070312 35.097656 132.351562 35.160156 130.667969 C 35.253906 127.878906 35.382812 127.421875 36.363281 125.613281 C 37.089844 124.296875 38.734375 122.335938 41.261719 119.761719 C 43.347656 117.617188 45.121094 115.871094 45.214844 115.839844 C 45.308594 115.839844 47.238281 117.125 49.484375 118.71875 Z M 13.3125 120.035156 C 13.4375 120.160156 13.628906 121.507812 13.753906 123.039062 L 13.976562 125.828125 L 12.617188 126.929688 C 11.890625 127.574219 11.160156 128.0625 11.003906 128.0625 C 10.875 128.0625 10.75 126.101562 10.75 123.742188 L 10.75 119.425781 L 11.953125 119.636719 C 12.585938 119.730469 13.214844 119.945312 13.3125 120.035156 Z M 137.226562 122.152344 C 137.226562 122.855469 136.339844 128.09375 136.214844 128.21875 C 136.152344 128.246094 134 128.371094 131.441406 128.460938 C 127.203125 128.585938 126.792969 128.554688 126.917969 128.09375 C 126.980469 127.820312 127.234375 126.410156 127.425781 124.90625 C 127.644531 123.4375 127.835938 122.210938 127.867188 122.210938 C 127.898438 122.152344 134.191406 121.753906 135.898438 121.691406 C 136.972656 121.628906 137.226562 121.722656 137.226562 122.152344 Z M 75.191406 131.433594 C 75.789062 131.769531 76.453125 132.566406 76.707031 133.179688 C 78.542969 137.4375 72.089844 146.324219 64.628906 149.816406 C 59.0625 152.421875 52.265625 152.328125 46.636719 149.601562 C 44.425781 148.5 42.179688 146.96875 42.589844 146.84375 C 42.8125 146.753906 44.457031 147.058594 46.257812 147.488281 C 48.914062 148.132812 50.335938 148.285156 53.46875 148.285156 C 60.109375 148.285156 64.503906 146.9375 67.980469 143.8125 C 70.792969 141.269531 72.722656 136.765625 72.722656 132.691406 C 72.722656 130.945312 72.785156 130.820312 73.449219 130.820312 C 73.832031 130.820312 74.621094 131.097656 75.191406 131.433594 Z M 137.699219 132.691406 C 141.179688 133.058594 144.054688 133.363281 144.085938 133.394531 C 144.117188 133.425781 143.960938 134.007812 143.769531 134.742188 C 143.519531 135.660156 143.296875 136 142.917969 135.90625 C 128.53125 131.863281 127.804688 131.648438 130.113281 131.894531 C 130.808594 131.984375 134.222656 132.324219 137.699219 132.691406 Z M 33.199219 135.019531 C 33.390625 135.84375 33.925781 136.949219 34.339844 137.46875 C 35.382812 138.816406 39.902344 142.433594 42.054688 143.65625 L 43.792969 144.636719 L 42.527344 144.453125 C 40.03125 144.054688 36.046875 141.910156 33.769531 139.707031 L 31.617188 137.621094 L 31.617188 135.816406 C 31.617188 134.128906 32.03125 133.117188 32.566406 133.425781 C 32.695312 133.515625 32.976562 134.222656 33.199219 135.019531 Z M 43.191406 137.378906 C 46.984375 138.296875 50.179688 139 50.304688 138.941406 C 50.402344 138.847656 50.085938 140.042969 49.578125 141.542969 C 48.535156 144.636719 48.914062 144.453125 45.375 143.535156 C 43.507812 143.015625 40.441406 141.300781 38.953125 139.921875 C 37.246094 138.359375 35.507812 135.722656 36.171875 135.722656 C 36.234375 135.722656 39.398438 136.457031 43.191406 137.378906 Z M 145.003906 137.46875 C 144.625 139.921875 143.582031 141.605469 141.96875 142.371094 C 140.167969 143.199219 134.378906 143.628906 134.378906 142.921875 C 134.378906 142.707031 134.664062 141.269531 135.042969 139.738281 L 135.707031 136.980469 L 137.320312 136.824219 C 138.238281 136.734375 140.039062 136.519531 141.335938 136.398438 C 145.542969 135.90625 145.226562 135.816406 145.003906 137.46875 Z M 82.9375 139.03125 C 83.253906 139.980469 84.550781 143.105469 85.8125 145.988281 C 90.367188 156.25 90.523438 156.648438 90.652344 158.546875 C 90.839844 160.9375 90.207031 161.917969 87.679688 163.234375 C 81.039062 166.667969 69.78125 166.269531 63.585938 162.378906 C 60.707031 160.570312 58.714844 157.691406 58.304688 154.65625 L 58.117188 153.339844 L 60.835938 152.820312 C 64.089844 152.238281 67.03125 150.949219 69.53125 149.050781 C 71.363281 147.640625 72.34375 146.628906 75.410156 142.921875 C 78.351562 139.367188 80.753906 137.316406 82.050781 137.285156 C 82.242188 137.253906 82.621094 138.050781 82.9375 139.03125 Z M 37.5625 145.34375 C 40.1875 147.304688 42.371094 149.050781 42.371094 149.203125 C 42.371094 149.324219 42.8125 149.539062 43.316406 149.664062 C 44.234375 149.847656 44.582031 150.277344 43.949219 150.488281 C 43.570312 150.613281 45.816406 156.863281 46.226562 156.863281 C 46.386719 156.863281 47.015625 155.820312 47.648438 154.566406 C 48.25 153.308594 48.882812 152.265625 49.007812 152.265625 C 49.957031 152.265625 51.222656 152.726562 51.222656 153.0625 C 51.222656 153.308594 50.558594 154.75 49.769531 156.28125 C 48.375 159.007812 48.34375 159.070312 48.882812 159.863281 C 49.199219 160.324219 50.367188 161.582031 51.507812 162.652344 C 57.484375 168.261719 65.167969 171.570312 72.15625 171.570312 C 78.160156 171.570312 81.292969 170.066406 89.226562 163.386719 C 90.683594 162.164062 91.980469 161.152344 92.105469 161.152344 C 92.644531 161.152344 91.125 163.144531 89.324219 164.765625 C 86.035156 167.738281 80.121094 171.015625 75.09375 172.671875 C 71.710938 173.773438 64.753906 174.082031 61.246094 173.253906 C 52.109375 171.140625 44.171875 163.847656 36.867188 150.886719 C 34.371094 146.445312 31.746094 141.023438 32.316406 141.453125 C 32.535156 141.636719 34.90625 143.382812 37.5625 145.34375 Z M 127.644531 143.902344 C 131.21875 144.699219 131.503906 144.824219 131.34375 145.375 C 130.808594 146.96875 130.554688 147.363281 130.046875 147.363281 C 129.730469 147.363281 127.707031 147.578125 125.558594 147.824219 C 123.375 148.070312 121.542969 148.222656 121.480469 148.132812 C 121.351562 148.007812 122.050781 145.558594 122.714844 143.75 C 122.871094 143.382812 123.15625 143.074219 123.375 143.074219 C 123.597656 143.074219 125.527344 143.445312 127.644531 143.902344 Z M 134.0625 152.757812 C 137.289062 156.679688 137.257812 156.527344 134.570312 157.324219 C 131.027344 158.363281 127.804688 157.535156 125.335938 154.992188 C 123.597656 153.15625 121.605469 150.460938 121.859375 150.214844 C 122.113281 149.96875 127.488281 149.324219 129.667969 149.234375 L 131.15625 149.203125 Z M 136.785156 158.914062 C 136.085938 161.796875 133.117188 163.726562 128.59375 164.246094 C 127.042969 164.429688 125.714844 164.492188 125.621094 164.398438 C 125.367188 164.15625 127.390625 160.90625 128.339844 160.050781 C 129.699219 158.761719 131.789062 158.179688 135.140625 158.117188 L 136.972656 158.089844 Z M 18.8125 165.289062 C 21.375 165.59375 22.132812 165.777344 22.132812 166.113281 C 22.132812 166.328125 20.996094 166.359375 18.6875 166.207031 C 13.152344 165.871094 9.359375 166.757812 8.503906 168.628906 C 7.683594 170.3125 9.199219 172.027344 11.761719 172.363281 C 13.027344 172.519531 13.28125 172.425781 15.398438 170.925781 C 16.664062 170.035156 17.613281 169.210938 17.515625 169.054688 C 17.421875 168.933594 16.21875 168.8125 14.828125 168.8125 C 12.550781 168.8125 12.332031 168.75 12.332031 168.199219 C 12.332031 167.648438 12.550781 167.585938 14.355469 167.585938 C 15.429688 167.585938 17.230469 167.492188 18.277344 167.402344 C 19.792969 167.25 20.269531 167.28125 20.363281 167.617188 C 20.425781 167.863281 20.679688 168.71875 20.933594 169.515625 C 21.152344 170.34375 21.59375 171.140625 21.878906 171.292969 C 22.449219 171.597656 22.640625 172.949219 22.195312 173.621094 C 21.722656 174.355469 19.003906 174.695312 14.765625 174.570312 C 10.875 174.480469 10.433594 174.386719 8.695312 173.558594 C 7.175781 172.824219 6.671875 172.363281 6.101562 171.324219 C 4.425781 168.105469 7.367188 165.6875 13.597656 165.164062 C 15.082031 165.011719 16.503906 164.949219 16.757812 165.011719 C 17.011719 165.042969 17.960938 165.164062 18.8125 165.289062 Z M 121.765625 166.023438 C 121.921875 166.484375 122.429688 167.492188 122.871094 168.230469 C 123.3125 168.964844 124.105469 170.433594 124.640625 171.507812 L 125.621094 173.46875 L 124.988281 174.265625 C 124.230469 175.246094 123.472656 175.488281 120.941406 175.519531 L 119.046875 175.550781 L 119.140625 170.589844 C 119.234375 165.378906 119.296875 165.136719 120.722656 165.136719 C 121.226562 165.136719 121.542969 165.378906 121.765625 166.023438 Z M 117.371094 168.105469 C 117.589844 174.511719 117.054688 177.175781 115.882812 175.703125 C 115.3125 174.9375 112.027344 167.953125 111.867188 167.125 C 111.773438 166.605469 112.058594 166.484375 113.984375 166.175781 C 117.589844 165.59375 117.304688 165.441406 117.371094 168.105469 Z M 25.484375 167.25 C 26.78125 168.015625 27.539062 169.546875 27.128906 170.679688 C 26.8125 171.597656 24.566406 173.253906 24.0625 172.949219 C 23.398438 172.578125 23.683594 171.046875 24.503906 170.527344 C 24.949219 170.25 25.296875 169.761719 25.296875 169.484375 C 25.296875 169.179688 24.949219 168.597656 24.503906 168.199219 C 23.019531 166.851562 23.683594 166.175781 25.484375 167.25 Z M 33.292969 170.375 C 32.976562 170.464844 31.871094 170.679688 30.859375 170.800781 L 28.996094 171.015625 L 30.386719 169.453125 L 31.777344 167.921875 L 32.820312 169.027344 C 33.738281 170.035156 33.800781 170.191406 33.292969 170.375 Z M 123.472656 177.695312 C 122.808594 178.371094 122.113281 178.921875 121.953125 178.921875 C 121.480469 178.921875 119.457031 177.636719 119.644531 177.480469 C 119.835938 177.265625 123.21875 176.53125 124.105469 176.5 C 124.578125 176.46875 124.484375 176.714844 123.472656 177.695312 Z M 112.878906 177.390625 C 115.1875 177.695312 116.421875 178.246094 117.117188 179.320312 C 117.683594 180.175781 117.117188 180.207031 114.554688 179.535156 C 109.496094 178.1875 104.40625 178.460938 100.328125 180.269531 C 97.101562 181.738281 96.5 183.300781 98.554688 185.050781 C 101.085938 187.222656 103.488281 187.378906 107.03125 185.632812 C 108.167969 185.078125 109.085938 184.527344 109.085938 184.40625 C 109.085938 184.3125 107.664062 183.976562 105.921875 183.671875 C 102.507812 183.117188 102.160156 182.8125 103.582031 181.710938 C 104.3125 181.15625 104.878906 181.066406 107.882812 181.066406 C 109.8125 181.066406 111.265625 181.1875 111.171875 181.34375 C 110.855469 181.832031 111.867188 182.324219 113.667969 182.507812 C 115.09375 182.660156 115.566406 182.84375 116.199219 183.578125 C 117.652344 185.234375 117.621094 187.4375 116.167969 188.757812 C 115.378906 189.492188 115.3125 189.492188 108.675781 189.492188 C 102.539062 189.492188 101.78125 189.429688 99.914062 188.785156 C 96.628906 187.714844 94.539062 185.632812 94.539062 183.488281 C 94.539062 181.527344 96.628906 179.472656 99.789062 178.339844 C 102.917969 177.207031 108.230469 176.808594 112.878906 177.390625 Z M 44.773438 179.902344 C 46.195312 180.820312 46.320312 181.003906 46.320312 182.136719 L 46.320312 183.332031 L 43.160156 183.824219 C 41.421875 184.097656 39.933594 184.28125 39.871094 184.253906 C 39.714844 184.128906 42.8125 178.921875 43.035156 178.921875 C 43.160156 178.921875 43.949219 179.382812 44.773438 179.902344 Z M 121.257812 180.851562 C 122.523438 182.015625 122.679688 182.351562 122.679688 183.515625 C 122.679688 184.652344 122.492188 184.988281 121.289062 186.152344 C 120.53125 186.886719 119.773438 187.5 119.550781 187.5 C 119.046875 187.5 119.109375 185.875 119.710938 184.4375 C 120.214844 183.242188 120.183594 183.117188 119.644531 181.894531 C 119.011719 180.574219 118.917969 180.148438 119.109375 179.75 C 119.359375 179.320312 119.867188 179.566406 121.257812 180.851562 Z M 92.484375 189.859375 C 93.875 192.15625 95.046875 194.148438 95.109375 194.269531 C 95.171875 194.394531 93.242188 194.945312 90.839844 195.464844 C 88.4375 196.015625 86.320312 196.539062 86.128906 196.597656 C 85.75 196.753906 85.527344 195.191406 85.179688 189.890625 L 84.960938 186.582031 L 86.035156 186.121094 C 86.636719 185.875 87.742188 185.691406 88.53125 185.691406 L 89.957031 185.691406 Z M 60.109375 187.746094 C 60.265625 188.175781 60.421875 189.339844 60.488281 190.347656 L 60.550781 192.1875 L 57.386719 192.890625 C 55.648438 193.289062 54.066406 193.628906 53.878906 193.628906 C 53.40625 193.628906 55.554688 186.855469 56.15625 186.398438 C 56.882812 185.816406 59.757812 186.824219 60.109375 187.746094 Z M 75.980469 192.21875 C 76.644531 194.210938 77.085938 195.957031 76.929688 196.109375 C 76.613281 196.414062 69.53125 198.007812 69.339844 197.792969 C 69.054688 197.519531 70.257812 188.878906 70.605469 188.632812 C 70.828125 188.511719 71.839844 188.449219 72.882812 188.480469 L 74.746094 188.574219 Z M 75.980469 192.21875 "/>
<path style=" stroke:none;fill-rule:nonzero;fill:rgb(0%,0%,0%);fill-opacity:1;" d="M 59.128906 84.46875 C 58.179688 84.527344 55.082031 84.742188 52.234375 84.957031 L 47.082031 85.324219 L 51.570312 91.390625 C 54.035156 94.730469 56.1875 97.335938 56.3125 97.210938 C 56.628906 96.90625 61.65625 85.050781 61.65625 84.589844 C 61.65625 84.40625 61.46875 84.28125 61.277344 84.3125 C 61.054688 84.34375 60.074219 84.40625 59.128906 84.46875 Z M 56.375 88.96875 C 56.597656 91.542969 56.375 94.363281 55.996094 94.363281 C 55.648438 94.363281 53.941406 92.492188 52.992188 91.144531 C 52.359375 90.226562 52.171875 89.550781 52.171875 88.328125 L 52.171875 86.734375 L 53.6875 86.613281 C 54.511719 86.550781 55.394531 86.488281 55.679688 86.457031 C 56.09375 86.398438 56.21875 86.855469 56.375 88.96875 Z M 56.375 88.96875 "/>
<path style=" stroke:none;fill-rule:nonzero;fill:rgb(0%,0%,0%);fill-opacity:1;" d="M 63.238281 85.96875 C 61.941406 87.960938 57.894531 97.425781 58.335938 97.425781 C 58.496094 97.425781 79.710938 87.714844 79.871094 87.5625 C 80.152344 87.285156 66.589844 84.558594 64.945312 84.558594 C 64.375 84.558594 63.933594 84.925781 63.238281 85.96875 Z M 65.765625 90.839844 L 65.765625 92.523438 L 64.21875 93.261719 C 63.363281 93.6875 62.605469 93.933594 62.480469 93.84375 C 62.382812 93.71875 62.289062 93.230469 62.289062 92.707031 C 62.289062 91.972656 62.605469 91.484375 63.773438 90.472656 C 64.628906 89.765625 65.386719 89.183594 65.546875 89.15625 C 65.671875 89.15625 65.765625 89.921875 65.765625 90.839844 Z M 65.765625 90.839844 "/>
<path style=" stroke:none;fill-rule:nonzero;fill:rgb(0%,0%,0%);fill-opacity:1;" d="M 38.890625 88.417969 C 34.84375 90.347656 34.117188 90.777344 34.589844 91.054688 C 34.90625 91.207031 36.960938 91.941406 39.144531 92.675781 C 41.359375 93.414062 45.4375 94.761719 48.21875 95.710938 C 50.96875 96.660156 53.371094 97.394531 53.53125 97.335938 C 53.816406 97.242188 46.417969 87.101562 45.59375 86.488281 C 44.675781 85.84375 43.949219 86.058594 38.890625 88.417969 Z M 42.054688 90.53125 C 42.054688 91.972656 42.023438 92.003906 40.882812 91.726562 C 40.3125 91.574219 40.15625 91.300781 40.15625 90.53125 C 40.15625 89.796875 40.3125 89.460938 40.726562 89.367188 C 41.957031 89.0625 42.054688 89.15625 42.054688 90.53125 Z M 42.054688 90.53125 "/>
<path style=" stroke:none;fill-rule:nonzero;fill:rgb(0%,0%,0%);fill-opacity:1;" d="M 81.578125 88.726562 C 79.363281 89.277344 77.246094 90.164062 73.703125 92.066406 C 71.902344 93.015625 69.117188 94.394531 67.507812 95.097656 C 65.894531 95.832031 64.503906 96.570312 64.375 96.78125 C 63.679688 97.855469 69.433594 97.949219 78.160156 96.96875 C 86.921875 96.015625 99.03125 94.914062 103.203125 94.730469 L 107.664062 94.515625 L 107.664062 93.75 C 107.664062 93.136719 107.503906 92.953125 106.714844 92.890625 C 104.847656 92.707031 99 91.511719 92.042969 89.890625 C 84.738281 88.175781 84.011719 88.082031 81.578125 88.726562 Z M 95.742188 92.25 C 98.554688 92.769531 100.800781 93.289062 100.738281 93.351562 C 100.675781 93.445312 98.304688 93.65625 95.519531 93.871094 L 90.460938 94.238281 L 89.796875 92.769531 C 89.007812 90.960938 89.007812 90.902344 89.890625 91.085938 C 90.273438 91.175781 92.894531 91.699219 95.742188 92.25 Z M 77.5625 94.054688 C 78.066406 94.730469 78.414062 95.28125 78.351562 95.3125 C 77.8125 95.464844 70.511719 96.015625 70.511719 95.894531 C 70.511719 95.679688 75.949219 92.863281 76.359375 92.863281 C 76.550781 92.863281 77.085938 93.382812 77.5625 94.054688 Z M 77.5625 94.054688 "/>
<path style=" stroke:none;fill-rule:nonzero;fill:rgb(0%,0%,0%);fill-opacity:1;" d="M 30.195312 92.523438 C 28.679688 92.890625 17.769531 97.242188 15.273438 98.4375 C 12.964844 99.570312 10.75 101.226562 10.75 101.777344 C 10.75 102.113281 13.53125 101.992188 20.394531 101.410156 C 24.882812 101.011719 47.746094 99.265625 48.472656 99.265625 C 48.851562 99.265625 49.007812 99.019531 49.007812 98.34375 C 49.007812 97.578125 48.882812 97.425781 48.25 97.425781 C 47.015625 97.425781 43.570312 96.292969 39.839844 94.636719 C 36.488281 93.199219 33.136719 92.1875 31.777344 92.25 C 31.429688 92.28125 30.734375 92.402344 30.195312 92.523438 Z M 34.085938 94.578125 C 34.242188 94.882812 34.371094 95.957031 34.339844 96.96875 L 34.304688 98.804688 L 33.292969 98.898438 L 32.25 98.988281 L 32.25 96.539062 C 32.25 94.117188 32.25 94.054688 33.042969 94.054688 C 33.453125 94.054688 33.925781 94.300781 34.085938 94.578125 Z M 26.558594 97.734375 L 26.558594 99.570312 L 25.609375 99.570312 C 24.695312 99.570312 24.664062 99.539062 24.664062 98.039062 C 24.664062 96.9375 24.820312 96.445312 25.230469 96.230469 C 26.339844 95.589844 26.558594 95.832031 26.558594 97.734375 Z M 41.230469 96.8125 C 42.433594 97.242188 42.335938 98.34375 41.105469 98.34375 C 40.25 98.34375 40.15625 98.253906 40.15625 97.425781 C 40.15625 96.386719 40.125 96.386719 41.230469 96.8125 Z M 41.230469 96.8125 "/>
<path style=" stroke:none;fill-rule:nonzero;fill:rgb(0%,0%,0%);fill-opacity:1;" d="M 37.785156 3.644531 C 37.246094 3.769531 36.425781 4.136719 35.949219 4.441406 C 34.339844 5.453125 34.148438 6.464844 34.148438 13.664062 L 34.148438 20.191406 L 36.773438 19.332031 L 39.367188 18.472656 L 39.460938 10.9375 C 39.523438 4.964844 39.460938 3.371094 39.144531 3.402344 C 38.921875 3.429688 38.289062 3.523438 37.785156 3.644531 Z M 37.785156 3.644531 "/>
<path style=" stroke:none;fill-rule:nonzero;fill:rgb(0%,0%,0%);fill-opacity:1;" d="M 28.773438 7.414062 C 26.402344 8.578125 26.242188 9.191406 26.242188 16.605469 L 26.242188 22.949219 L 29.089844 21.96875 L 31.933594 20.988281 L 31.933594 6.738281 L 31.050781 6.738281 C 30.574219 6.738281 29.53125 7.046875 28.773438 7.414062 Z M 28.773438 7.414062 "/>
<path style=" stroke:none;fill-rule:nonzero;fill:rgb(0%,0%,0%);fill-opacity:1;" d="M 22.132812 10.109375 C 21.058594 10.449219 20.015625 11.089844 19.382812 11.765625 L 18.339844 12.867188 L 18.339844 19.148438 C 18.339844 22.609375 18.433594 25.429688 18.59375 25.429688 C 18.71875 25.429688 20.046875 25.0625 21.59375 24.632812 L 24.347656 23.804688 L 24.347656 16.636719 C 24.347656 12.714844 24.25 9.496094 24.125 9.496094 C 23.96875 9.527344 23.082031 9.773438 22.132812 10.109375 Z M 22.132812 10.109375 "/>
<path style=" stroke:none;fill-rule:nonzero;fill:rgb(0%,0%,0%);fill-opacity:1;" d="M 37.5625 20.957031 C 34.371094 21.78125 34.148438 22.363281 34.148438 30.023438 C 34.148438 33.394531 34.242188 36.152344 34.402344 36.152344 C 34.527344 36.152344 35.761719 35.816406 37.152344 35.449219 L 39.683594 34.742188 L 39.777344 27.636719 C 39.839844 22.058594 39.777344 20.527344 39.460938 20.558594 C 39.238281 20.558594 38.386719 20.742188 37.5625 20.957031 Z M 37.5625 20.957031 "/>
<path style=" stroke:none;fill-rule:nonzero;fill:rgb(0%,0%,0%);fill-opacity:1;" d="M 28.929688 24.171875 L 26.402344 25.03125 L 26.308594 31.800781 C 26.273438 35.539062 26.273438 38.601562 26.308594 38.601562 C 26.371094 38.601562 27.601562 38.265625 29.089844 37.867188 L 31.777344 37.164062 L 31.871094 30.207031 C 31.902344 26.410156 31.839844 23.285156 31.714844 23.316406 C 31.554688 23.316406 30.324219 23.714844 28.929688 24.171875 Z M 28.929688 24.171875 "/>
<path style=" stroke:none;fill-rule:nonzero;fill:rgb(0%,0%,0%);fill-opacity:1;" d="M 20.964844 26.867188 L 18.65625 27.636719 L 18.65625 34.222656 C 18.65625 40.320312 18.6875 40.777344 19.222656 40.625 C 19.507812 40.5625 20.804688 40.195312 22.070312 39.828125 L 24.347656 39.183594 L 24.347656 32.628906 C 24.347656 25.0625 24.664062 25.613281 20.964844 26.867188 Z M 20.964844 26.867188 "/>
<path style=" stroke:none;fill-rule:nonzero;fill:rgb(0%,0%,0%);fill-opacity:1;" d="M 37.910156 37.070312 C 34.402344 37.652344 34.148438 38.234375 34.148438 46.109375 C 34.148438 49.386719 34.210938 52.082031 34.273438 52.082031 C 34.496094 52.082031 38.636719 51.164062 39.300781 50.980469 C 39.808594 50.828125 39.839844 50.214844 39.839844 43.78125 C 39.839844 39.921875 39.746094 36.796875 39.617188 36.796875 C 39.460938 36.824219 38.703125 36.949219 37.910156 37.070312 Z M 37.910156 37.070312 "/>
<path style=" stroke:none;fill-rule:nonzero;fill:rgb(0%,0%,0%);fill-opacity:1;" d="M 29.5625 39.492188 C 28.203125 39.828125 27.253906 40.378906 26.875 41.054688 C 26.6875 41.390625 26.558594 44.179688 26.558594 47.792969 L 26.558594 53.953125 L 27.699219 53.738281 C 28.332031 53.613281 29.5 53.371094 30.324219 53.1875 L 31.777344 52.820312 L 31.871094 46.015625 L 31.933594 39.214844 L 31.238281 39.246094 C 30.828125 39.277344 30.101562 39.367188 29.5625 39.492188 Z M 29.5625 39.492188 "/>
<path style=" stroke:none;fill-rule:nonzero;fill:rgb(0%,0%,0%);fill-opacity:1;" d="M 21.121094 42.15625 L 18.65625 42.921875 L 18.65625 49.324219 C 18.65625 56.710938 18.308594 56.097656 21.976562 55.207031 L 24.1875 54.65625 L 24.285156 48.007812 C 24.347656 42.800781 24.285156 41.359375 23.96875 41.390625 C 23.746094 41.390625 22.449219 41.757812 21.121094 42.15625 Z M 21.121094 42.15625 "/>
<path style=" stroke:none;fill-rule:nonzero;fill:rgb(0%,0%,0%);fill-opacity:1;" d="M 36.773438 53.675781 L 34.148438 54.289062 L 34.148438 68.015625 L 35.570312 68.015625 C 37.5 68.015625 39.144531 67.308594 39.523438 66.328125 C 39.902344 65.410156 39.964844 52.972656 39.617188 53.03125 C 39.460938 53.0625 38.195312 53.339844 36.773438 53.675781 Z M 36.773438 53.675781 "/>
<path style=" stroke:none;fill-rule:nonzero;fill:rgb(0%,0%,0%);fill-opacity:1;" d="M 29.183594 55.574219 L 26.558594 56.1875 L 26.558594 69.609375 L 28.078125 69.425781 C 32.28125 68.84375 32.25 68.933594 32.25 61 C 32.25 57.8125 32.15625 55.148438 32.03125 55.085938 C 31.871094 55.023438 30.605469 55.238281 29.183594 55.574219 Z M 29.183594 55.574219 "/>
<path style=" stroke:none;fill-rule:nonzero;fill:rgb(0%,0%,0%);fill-opacity:1;" d="M 20.804688 57.535156 L 18.65625 58.027344 L 18.65625 64.582031 C 18.65625 69.945312 18.71875 71.109375 19.066406 70.988281 C 19.320312 70.894531 20.582031 70.648438 21.910156 70.433594 L 24.347656 70.035156 L 24.347656 56.984375 L 23.652344 57.015625 C 23.238281 57.046875 21.976562 57.261719 20.804688 57.535156 Z M 20.804688 57.535156 "/>
<path style=" stroke:none;fill-rule:nonzero;fill:rgb(0%,0%,0%);fill-opacity:1;" d="M 38.101562 69.394531 C 37.941406 69.453125 36.960938 69.667969 35.980469 69.851562 L 34.148438 70.191406 L 34.148438 76.929688 C 34.148438 83.210938 34.179688 83.671875 34.71875 83.515625 C 35.003906 83.457031 36.296875 83.210938 37.5625 83.027344 L 39.839844 82.660156 L 39.839844 69.238281 L 39.144531 69.269531 C 38.734375 69.269531 38.289062 69.332031 38.101562 69.394531 Z M 38.101562 69.394531 "/>
<path style=" stroke:none;fill-rule:nonzero;fill:rgb(0%,0%,0%);fill-opacity:1;" d="M 12.363281 71.199219 C 11.699219 71.96875 10.085938 77.511719 10.308594 78.21875 C 10.402344 78.585938 11.636719 80.023438 13.027344 81.402344 C 15.144531 83.515625 15.523438 84.070312 15.367188 84.621094 C 15.242188 85.019531 15.019531 86.273438 14.859375 87.40625 C 14.734375 88.574219 14.511719 89.582031 14.417969 89.707031 C 14.292969 89.796875 12.679688 89.980469 10.8125 90.074219 L 7.429688 90.226562 L 7.242188 91.757812 C 7.144531 92.585938 6.925781 94.363281 6.796875 95.710938 L 6.578125 98.132812 L 11.445312 95.648438 L 16.285156 93.199219 L 16.472656 82.199219 C 16.601562 76.164062 16.664062 71.199219 16.632812 71.199219 C 16.632812 71.171875 15.746094 71.078125 14.671875 70.957031 C 13.183594 70.800781 12.648438 70.863281 12.363281 71.199219 Z M 12.363281 71.199219 "/>
<path style=" stroke:none;fill-rule:nonzero;fill:rgb(0%,0%,0%);fill-opacity:1;" d="M 29.246094 71.109375 C 26.210938 71.753906 26.558594 70.863281 26.558594 78.125 L 26.558594 84.558594 L 28.109375 84.558594 C 30.355469 84.558594 31.523438 84.070312 31.902344 82.964844 C 32.09375 82.414062 32.25 79.59375 32.25 76.410156 L 32.25 70.773438 L 31.398438 70.800781 C 30.890625 70.832031 29.941406 70.957031 29.246094 71.109375 Z M 29.246094 71.109375 "/>
<path style=" stroke:none;fill-rule:nonzero;fill:rgb(0%,0%,0%);fill-opacity:1;" d="M 21.027344 72.734375 L 18.8125 73.070312 L 18.71875 79.441406 L 18.65625 85.816406 L 19.730469 85.601562 C 20.363281 85.507812 21.59375 85.324219 22.511719 85.203125 L 24.1875 85.019531 L 24.285156 78.644531 C 24.347656 72.734375 24.316406 72.304688 23.808594 72.335938 C 23.492188 72.363281 22.257812 72.550781 21.027344 72.734375 Z M 21.027344 72.734375 "/>
</g>
</svg>
