<?xml version="1.0" standalone="no"?>
<!DOCTYPE svg PUBLIC "-//W3C//DTD SVG 20010904//EN"
 "http://www.w3.org/TR/2001/REC-SVG-20010904/DTD/svg10.dtd">
<svg version="1.0" xmlns="http://www.w3.org/2000/svg"
 width="474.000000pt" height="123.000000pt" viewBox="0 0 474.000000 123.000000"
 preserveAspectRatio="xMidYMid meet">

<g transform="translate(0.000000,123.000000) scale(0.100000,-0.100000)"
fill="#000000" stroke="none">
<path d="M634 1208 c-3 -12 -6 -43 -5 -70 0 -26 -1 -48 -4 -48 -3 0 -14 18
-25 40 -15 28 -17 40 -8 40 8 1 7 4 -3 10 -8 5 -25 7 -37 3 -20 -5 -22 -12
-24 -130 l-3 -126 -50 -13 c-68 -18 -67 -19 -63 23 2 30 9 41 31 51 26 12 27
17 27 83 0 77 -4 80 -67 57 -24 -9 -33 -18 -33 -35 0 -17 -4 -21 -17 -17 -17
5 -17 5 0 -6 24 -16 26 -175 1 -184 -41 -16 -44 -10 -44 98 0 93 -2 104 -19
109 -18 4 -19 -3 -20 -111 -1 -64 -5 -119 -9 -122 -15 -11 -11 -30 5 -30 10 0
65 11 123 24 335 76 310 69 310 93 0 13 -4 23 -10 23 -6 0 -10 50 -10 130 0
122 -1 130 -19 130 -11 0 -23 -9 -27 -22z m-204 -159 c0 -10 -4 -19 -10 -19
-5 0 -10 12 -10 26 0 14 4 23 10 19 6 -3 10 -15 10 -26z m176 -40 c14 -28 24
-52 22 -54 -2 -2 -15 -6 -31 -10 l-27 -7 0 61 c0 34 2 61 5 61 2 0 16 -23 31
-51z"/>
<path d="M213 1193 c-8 -3 -13 -22 -13 -46 0 -40 2 -42 31 -43 21 -1 27 2 20
9 -6 6 -11 28 -11 49 0 38 -3 41 -27 31z"/>
<path d="M167 1173 c-4 -3 -7 -24 -7 -45 0 -54 24 -45 28 10 3 39 -5 52 -21
35z"/>
<path d="M121 1070 c0 -49 4 -90 9 -90 5 0 9 41 9 90 0 50 -4 90 -9 90 -5 0
-9 -40 -9 -90z"/>
<path d="M74 1115 c-8 -31 2 -58 18 -53 18 6 20 78 2 78 -7 0 -16 -11 -20 -25z"/>
<path d="M213 1093 c-8 -3 -13 -23 -13 -50 0 -41 2 -44 23 -39 l22 6 -22 -11
c-19 -10 -23 -21 -23 -55 0 -32 4 -44 18 -47 16 -4 16 -5 0 -6 -14 -1 -18 -10
-18 -47 0 -38 3 -45 18 -42 12 2 18 15 20 46 2 23 8 42 14 42 7 0 6 5 -2 14
-6 8 -11 34 -10 58 3 80 0 138 -7 137 -5 0 -14 -3 -20 -6z"/>
<path d="M158 1035 c-2 -36 0 -45 12 -43 21 4 27 88 7 88 -10 0 -16 -14 -19
-45z"/>
<path d="M74 1026 c-8 -32 3 -66 20 -60 16 6 15 76 -1 81 -7 3 -15 -7 -19 -21z"/>
<path d="M158 908 c-4 -93 0 -118 18 -118 18 0 20 86 2 93 -10 4 -10 6 0 6 18
1 16 91 -2 91 -11 0 -15 -18 -18 -72z"/>
<path d="M120 926 c0 -25 5 -46 10 -46 6 0 10 16 10 35 0 19 0 38 1 42 0 4 -4
9 -10 11 -7 2 -11 -14 -11 -42z"/>
<path d="M79 943 c0 -5 -2 -23 -5 -41 -3 -28 -1 -33 13 -30 23 4 29 78 7 78
-8 0 -14 -3 -15 -7z"/>
<path d="M541 877 l-84 -21 -29 -63 c-23 -52 -32 -63 -52 -63 -20 0 -28 9 -42
45 -9 25 -21 48 -27 52 -13 8 2 -55 20 -87 14 -23 14 -24 -1 -6 -16 19 -16 19
-16 -5 0 -19 5 -24 28 -25 15 0 44 -4 65 -8 30 -6 36 -10 28 -20 -21 -25 -2
-46 40 -46 37 0 39 2 29 20 -6 11 -21 21 -33 21 -17 1 -18 2 -4 6 9 2 17 9 17
14 0 6 -5 7 -11 3 -14 -8 -4 24 27 90 13 28 24 57 24 65 1 35 41 -51 55 -115
15 -71 12 -89 -12 -80 -8 3 -11 1 -8 -5 4 -5 15 -7 26 -4 30 10 40 -4 18 -26
-11 -11 -17 -24 -14 -29 4 -6 1 -10 -4 -10 -14 0 -14 6 0 32 11 20 10 21 -62
14 -82 -8 -89 -11 -89 -32 0 -11 15 -14 65 -14 37 0 65 -4 65 -10 0 -5 7 -10
15 -10 8 0 15 -9 15 -21 0 -35 -23 -159 -29 -159 -4 0 -6 -46 -5 -102 0 -64
-1 -76 -3 -31 -3 54 -7 71 -17 67 -9 -3 -23 21 -44 73 -27 67 -29 79 -17 93 7
8 18 27 24 43 11 27 51 40 51 15 0 -6 2 -9 5 -6 3 3 3 13 -1 22 -5 13 -18 16
-61 15 -52 -2 -54 -4 -61 -33 -3 -17 -5 -34 -4 -38 1 -4 -4 -5 -12 -2 -27 10
-28 -18 -1 -56 15 -21 24 -43 21 -48 -3 -5 6 -35 19 -68 31 -75 31 -88 0 -108
-68 -45 -185 -3 -169 61 5 19 2 23 -15 23 -21 0 -21 1 5 40 15 22 29 38 32 36
2 -3 -5 -18 -17 -35 -21 -28 -21 -30 -2 -28 10 0 17 7 14 13 -2 7 5 18 17 24
11 6 18 15 15 21 -4 5 6 10 22 10 23 2 24 2 6 6 -13 2 -23 8 -23 12 0 12 53
11 68 -1 8 -7 12 -7 12 0 0 5 -11 17 -25 26 -14 9 -25 12 -25 6 0 -5 -5 -10
-11 -10 -5 0 -8 4 -4 10 3 5 -8 16 -25 25 -16 8 -30 12 -30 8 0 -5 -5 -1 -10
7 -5 8 -15 15 -22 15 -7 0 -14 12 -16 27 -3 29 27 54 54 44 9 -3 12 -1 9 4 -3
6 -23 10 -43 10 -20 0 -45 7 -55 15 -11 7 -24 12 -30 11 -7 -2 -9 -1 -4 1 16
10 7 43 -12 43 -13 0 -19 -7 -19 -22 0 -13 -2 -32 -4 -43 -2 -16 4 -21 32 -26
l35 -6 -35 -4 c-38 -4 -39 -6 -24 -116 7 -53 24 -57 24 -5 0 20 4 44 10 52 6
9 5 19 -2 28 -14 16 5 32 36 32 19 0 19 0 0 -22 -10 -13 -13 -18 -5 -12 9 9
18 6 37 -13 20 -20 22 -27 12 -43 -7 -11 -19 -21 -28 -24 -12 -3 -11 -4 3 -5
31 -2 18 -21 -15 -22 -22 -1 -26 -3 -13 -6 25 -7 34 -20 28 -44 -5 -17 -8 -17
-39 -4 l-34 14 17 -27 c10 -15 20 -29 23 -32 3 -3 5 -11 6 -17 3 -34 4 -35 19
-23 13 11 14 10 9 -3 -10 -26 70 -72 125 -72 25 0 55 4 66 8 11 5 9 2 -5 -7
-56 -34 -154 -11 -211 51 -57 61 -99 185 -99 296 0 33 -4 57 -11 57 -5 0 -7 5
-4 10 4 6 11 8 16 5 17 -11 30 5 19 26 -7 12 -7 19 -1 19 6 0 8 7 5 15 -10 25
-27 17 -22 -10 4 -21 -1 -29 -33 -46 l-37 -22 29 -24 29 -25 0 -121 c0 -66 -2
-118 -5 -115 -3 3 -6 53 -6 113 0 105 -10 145 -35 145 -7 0 -15 -7 -18 -16 -9
-24 -7 -54 4 -54 15 0 12 -50 -4 -56 -8 -3 -11 -15 -8 -31 3 -18 1 -24 -7 -19
-6 4 -9 12 -6 17 4 5 -1 9 -9 9 -22 0 -20 -13 5 -28 14 -9 24 -10 33 -3 7 6
16 8 19 4 12 -11 7 -40 -8 -53 -15 -13 -20 -51 -8 -63 3 -4 15 0 25 10 17 15
18 15 18 0 0 -10 6 -17 13 -17 8 0 8 -3 -2 -9 -8 -5 -11 -16 -8 -25 4 -9 2
-16 -3 -16 -5 0 -7 -7 -3 -16 5 -13 7 -13 14 -2 5 7 9 9 9 4 0 -5 6 -3 14 3
20 17 31 -4 31 -58 0 -47 19 -66 30 -31 11 36 39 20 43 -25 4 -51 24 -65 36
-25 5 17 15 30 23 30 14 0 17 -6 27 -53 9 -38 34 -35 38 6 2 24 8 33 24 35 18
3 23 -4 28 -32 5 -28 12 -36 28 -36 18 0 20 4 15 40 -3 28 -1 43 10 52 12 10
17 9 23 -2 25 -43 38 -54 51 -43 8 6 28 13 44 16 29 4 28 4 -6 6 -19 0 -44 7
-54 15 -18 13 -18 14 2 40 14 18 23 22 26 14 4 -10 6 -10 6 0 1 10 6 10 21 2
11 -6 25 -8 30 -5 5 3 16 -5 24 -17 15 -22 16 -20 16 35 0 44 3 57 15 57 19 0
19 30 1 55 -13 18 -15 13 -21 -50 -9 -96 -9 -96 -32 -45 -14 32 -17 50 -11 63
7 15 12 16 24 6 12 -10 14 -6 14 25 0 21 5 36 12 36 9 0 9 3 0 12 -8 8 -12 52
-12 131 0 104 -3 123 -21 150 l-21 32 26 -30 c24 -28 26 -36 26 -138 l0 -107
30 -19 c16 -10 27 -21 22 -26 -4 -5 -1 -5 6 -1 22 13 14 62 -13 80 -16 10 -25
26 -25 41 0 14 1 25 3 25 1 0 16 -4 34 -9 28 -8 31 -7 36 15 5 26 -19 54 -47
54 -32 0 -15 44 22 55 24 7 32 15 32 31 0 18 -6 23 -32 26 -47 4 -51 41 -9 63
22 11 31 23 31 40 0 27 -6 30 -43 16 -21 -8 -26 -6 -31 12 -4 15 3 30 24 52
21 22 28 36 23 53 l-5 22 -34 -21 c-30 -18 -35 -19 -40 -5 -3 9 -1 23 6 31 16
19 8 19 -99 -8z m-62 -66 c-6 -18 -13 -30 -15 -28 -2 2 1 18 7 36 6 18 13 30
15 28 2 -2 -1 -18 -7 -36z m-31 -79 c-7 -18 -16 -32 -20 -32 -4 0 0 16 9 35
20 42 27 41 11 -3z m13 -239 c-12 -20 -14 -14 -5 12 4 9 9 14 11 11 3 -2 0
-13 -6 -23z m-11 -48 c0 -5 -5 -3 -10 5 -5 8 -10 20 -10 25 0 6 5 3 10 -5 5
-8 10 -19 10 -25z m29 -70 c0 -5 -6 1 -14 15 -8 14 -14 30 -14 35 0 6 6 -1 14
-15 8 -14 14 -29 14 -35z m30 -75 c11 -24 11 -24 -3 -6 -9 11 -16 24 -16 30 0
12 5 7 19 -24z"/>
<path d="M120 825 c0 -25 5 -45 10 -45 6 0 10 20 10 45 0 25 -4 45 -10 45 -5
0 -10 -20 -10 -45z"/>
<path d="M57 853 c-11 -11 -8 -23 7 -23 9 0 12 -10 10 -31 -3 -25 0 -30 14
-27 13 2 17 14 17 46 1 41 -7 53 -21 31 -5 -8 -8 -8 -13 0 -4 6 -10 8 -14 4z"/>
<path d="M1430 825 c0 -8 7 -15 15 -15 8 0 15 7 15 15 0 8 -7 15 -15 15 -8 0
-15 -7 -15 -15z"/>
<path d="M2410 750 c0 -73 3 -90 15 -90 12 0 15 17 15 90 0 73 -3 90 -15 90
-12 0 -15 -17 -15 -90z"/>
<path d="M2483 828 c2 -7 10 -13 17 -13 7 0 15 6 18 13 2 7 -5 12 -18 12 -13
0 -20 -5 -17 -12z"/>
<path d="M2706 825 c-6 -16 3 -19 28 -9 22 8 20 24 -3 24 -10 0 -21 -7 -25
-15z"/>
<path d="M3102 828 c5 -15 28 -18 29 -3 0 6 -7 12 -17 13 -10 3 -15 -1 -12
-10z"/>
<path d="M4005 831 c-3 -5 -1 -12 5 -16 12 -7 30 2 30 16 0 12 -27 12 -35 0z"/>
<path d="M4530 750 c0 -83 1 -90 20 -90 19 0 20 7 20 90 0 83 -1 90 -20 90
-19 0 -20 -7 -20 -90z"/>
<path d="M970 745 c0 -69 3 -85 15 -85 12 0 15 16 15 85 0 69 -3 85 -15 85
-12 0 -15 -16 -15 -85z"/>
<path d="M2090 745 c0 -78 2 -85 20 -85 15 0 20 7 20 25 0 21 5 25 30 25 36 0
70 31 70 63 0 38 -30 57 -88 57 l-52 0 0 -85z m98 43 c17 -17 -4 -48 -33 -48
-21 0 -25 5 -25 30 0 25 4 30 23 30 13 0 28 -5 35 -12z"/>
<path d="M3532 748 c2 -68 6 -83 20 -86 14 -3 17 6 20 49 l3 53 40 -52 c56
-74 69 -67 73 36 3 76 1 82 -17 82 -17 0 -20 -8 -23 -51 l-3 -50 -39 50 c-23
30 -46 51 -57 51 -18 0 -20 -7 -17 -82z"/>
<path d="M263 812 c-8 -5 -8 -13 2 -32 11 -19 14 -21 15 -7 0 9 4 17 10 17 5
0 7 7 4 15 -7 17 -13 18 -31 7z"/>
<path d="M1322 792 c-8 -17 -9 -28 -2 -30 5 -2 10 -21 10 -42 0 -30 5 -42 21
-50 25 -14 49 -6 49 14 0 10 -6 13 -15 10 -12 -5 -15 2 -15 30 0 25 4 36 15
36 8 0 15 7 15 15 0 8 -7 15 -15 15 -8 0 -15 7 -15 15 0 25 -34 16 -48 -13z"/>
<path d="M1502 792 c-8 -17 -9 -28 -2 -30 5 -2 10 -21 10 -42 0 -40 18 -64 46
-58 25 5 28 25 4 31 -29 7 -29 67 0 67 11 0 20 5 20 11 0 6 -9 13 -20 16 -11
3 -20 12 -20 19 0 24 -24 15 -38 -14z"/>
<path d="M1762 792 c-8 -17 -9 -28 -2 -30 5 -2 10 -21 10 -42 0 -40 18 -64 46
-58 22 4 31 28 10 28 -12 0 -16 10 -16 35 0 24 5 35 15 35 8 0 15 7 15 15 0 8
-7 15 -15 15 -8 0 -15 7 -15 15 0 25 -34 16 -48 -13z"/>
<path d="M2552 792 c-8 -17 -9 -28 -2 -30 5 -2 10 -21 10 -42 0 -40 18 -64 46
-58 22 4 31 28 10 28 -12 0 -16 10 -16 35 0 24 5 35 15 35 8 0 15 7 15 15 0 8
-7 15 -15 15 -8 0 -15 7 -15 15 0 25 -34 16 -48 -13z"/>
<path d="M200 745 c0 -38 3 -45 20 -45 17 0 20 7 20 45 0 38 -3 45 -20 45 -17
0 -20 -7 -20 -45z"/>
<path d="M1040 724 c0 -57 2 -64 20 -64 16 0 20 7 20 34 0 47 9 66 30 66 19 0
30 -26 30 -72 0 -18 5 -28 15 -28 19 0 21 102 3 118 -7 5 -37 10 -65 10 l-53
0 0 -64z"/>
<path d="M1207 784 c-4 -4 -7 -18 -7 -31 0 -18 8 -27 30 -34 39 -14 39 -31 0
-27 -37 4 -42 -14 -7 -26 35 -13 77 6 77 34 0 15 -11 26 -36 36 -38 16 -38 28
-1 29 12 0 24 5 27 10 6 11 -72 20 -83 9z"/>
<path d="M1430 724 c0 -57 2 -65 18 -62 14 3 17 15 18 66 1 54 -1 62 -17 62
-17 0 -19 -8 -19 -66z"/>
<path d="M1600 741 c0 -68 26 -94 71 -71 13 7 19 7 19 0 0 -5 9 -10 20 -10 18
0 20 7 20 65 0 58 -2 65 -20 65 -17 0 -20 -7 -20 -39 0 -39 -20 -68 -40 -56
-5 3 -10 26 -10 51 0 37 -3 44 -20 44 -17 0 -20 -7 -20 -49z"/>
<path d="M1876 771 c-26 -28 -18 -82 15 -100 71 -39 140 47 83 104 -22 21 -77
19 -98 -4z m79 -31 c7 -23 -10 -50 -31 -50 -21 0 -38 38 -23 56 17 21 47 17
54 -6z"/>
<path d="M2267 778 c-52 -40 -9 -127 56 -114 82 16 74 126 -9 126 -17 0 -38
-6 -47 -12z m72 -32 c9 -11 10 -20 1 -36 -13 -24 -38 -23 -53 1 -23 37 25 68
52 35z"/>
<path d="M2480 725 c0 -58 2 -65 20 -65 18 0 20 7 20 65 0 58 -2 65 -20 65
-18 0 -20 -7 -20 -65z"/>
<path d="M2667 772 c-19 -21 -22 -54 -7 -82 13 -24 63 -35 90 -20 27 15 18 25
-22 25 -17 0 -33 6 -35 13 -3 8 9 12 41 12 50 0 57 10 30 48 -19 28 -74 30
-97 4z m71 -20 c2 -7 -7 -12 -22 -12 -27 0 -35 15 -13 23 17 7 30 3 35 -11z"/>
<path d="M2806 768 c-30 -43 -13 -91 36 -103 28 -7 68 9 68 27 0 6 -11 8 -28
5 -37 -7 -55 5 -50 34 2 20 9 24 35 24 37 0 53 12 33 25 -28 18 -78 11 -94
-12z"/>
<path d="M2940 722 c0 -55 2 -63 18 -60 12 2 17 13 17 40 1 42 16 64 39 55 11
-5 16 -20 16 -52 0 -38 3 -45 20 -45 17 0 20 7 20 46 0 72 -11 84 -75 82 l-55
-2 0 -64z"/>
<path d="M3100 724 c0 -57 2 -65 18 -62 14 3 18 16 20 66 3 57 1 62 -18 62
-18 0 -20 -6 -20 -66z"/>
<path d="M3189 780 c-34 -20 -31 -88 5 -112 29 -20 97 6 82 31 -5 8 -13 8 -27
0 -26 -13 -51 5 -47 35 2 16 10 21 35 21 37 0 53 12 33 25 -19 12 -60 12 -81
0z"/>
<path d="M3317 772 c-37 -41 -6 -112 48 -112 39 0 79 44 70 78 -3 15 -13 33
-22 40 -25 18 -77 15 -96 -6z m81 -38 c4 -25 -22 -49 -43 -40 -15 5 -21 47 -8
60 14 14 48 1 51 -20z"/>
<path d="M3733 784 c-23 -10 -2 -30 26 -26 16 2 32 -1 35 -7 5 -7 -3 -11 -19
-11 -32 0 -65 -17 -65 -33 1 -28 20 -41 69 -43 l51 -2 0 52 c0 29 -5 57 -12
64 -12 12 -62 15 -85 6z m58 -79 c0 -5 -9 -11 -21 -13 -20 -3 -27 8 -13 22 10
9 34 3 34 -9z"/>
<path d="M3876 774 c-9 -8 -16 -31 -16 -49 0 -44 38 -73 77 -59 39 14 43 38 6
30 -36 -8 -58 12 -48 44 5 17 13 21 33 17 37 -7 56 2 41 19 -15 19 -74 18 -93
-2z"/>
<path d="M4000 725 c0 -58 2 -65 20 -65 18 0 20 7 20 65 0 58 -2 65 -20 65
-18 0 -20 -7 -20 -65z"/>
<path d="M4081 763 c-24 -30 -20 -58 11 -85 43 -38 108 -7 108 50 0 62 -80 85
-119 35z m78 -17 c15 -18 -2 -56 -23 -56 -21 0 -38 27 -31 50 7 23 37 27 54 6z"/>
<path d="M4230 723 c0 -49 3 -63 15 -63 10 0 15 10 15 33 0 41 21 73 44 64 12
-5 16 -19 16 -52 0 -39 3 -46 18 -43 21 4 28 61 13 101 -10 24 -14 26 -66 25
l-55 -2 0 -63z"/>
<path d="M4401 781 c-22 -14 -5 -28 29 -23 18 2 30 0 30 -7 0 -6 -9 -11 -21
-11 -31 0 -59 -19 -59 -40 0 -26 16 -33 72 -36 l48 -2 0 52 c0 29 -5 57 -12
64 -14 14 -67 16 -87 3z m59 -76 c0 -8 -9 -15 -19 -15 -24 0 -36 16 -19 23 24
10 38 7 38 -8z"/>
<path d="M160 735 c0 -33 4 -45 15 -45 11 0 15 12 15 45 0 33 -4 45 -15 45
-11 0 -15 -12 -15 -45z"/>
<path d="M120 725 c0 -25 5 -45 10 -45 6 0 10 20 10 45 0 25 -4 45 -10 45 -5
0 -10 -20 -10 -45z"/>
<path d="M23 744 c-7 -20 17 -46 38 -41 12 3 16 0 12 -10 -4 -11 0 -14 13 -11
14 2 19 12 19 38 0 32 -2 34 -38 36 -26 2 -40 -2 -44 -12z"/>
<path d="M200 679 c0 -5 5 -7 10 -4 6 3 10 8 10 11 0 2 -4 4 -10 4 -5 0 -10
-5 -10 -11z"/>
<path d="M314 658 c1 -18 6 -39 10 -47 7 -11 5 -13 -7 -8 -11 4 -14 2 -11 -8
3 -7 12 -16 20 -19 19 -7 18 -36 -1 -36 -26 0 -16 -15 18 -28 29 -11 34 -10
50 9 9 12 17 36 17 55 0 25 -4 34 -17 35 -16 0 -16 1 1 8 14 5 16 10 8 15 -7
4 -10 12 -6 17 3 6 -12 1 -35 -10 -23 -12 -41 -19 -41 -16 0 2 14 12 32 21
l32 16 -25 13 c-16 9 -25 10 -28 3 -2 -7 -6 -6 -11 1 -4 7 -6 -3 -6 -21z"/>
<path d="M385 680 c3 -5 11 -10 16 -10 6 0 7 5 4 10 -3 6 -11 10 -16 10 -6 0
-7 -4 -4 -10z"/>
<path d="M156 664 c-5 -12 -2 -15 11 -10 9 4 19 3 22 -2 3 -5 16 -12 27 -16
18 -5 22 -2 27 19 3 19 1 25 -9 21 -8 -3 -21 -9 -29 -12 -8 -3 -15 -1 -15 5 0
17 -27 13 -34 -5z"/>
<path d="M76 663 c-7 -8 -12 -9 -53 -11 -15 -1 -23 -8 -23 -20 0 -11 10 -23
23 -29 32 -14 88 13 83 41 -3 22 -18 31 -30 19z"/>
<path d="M200 615 c0 -13 6 -16 25 -13 14 3 28 1 31 -3 3 -5 13 -9 22 -9 12 1
10 5 -8 14 -48 26 -70 29 -70 11z"/>
<path d="M8 573 c7 -3 16 -2 19 1 4 3 -2 6 -13 5 -11 0 -14 -3 -6 -6z"/>
<path d="M1566 544 c-5 -12 -2 -15 10 -10 8 3 18 6 20 6 2 0 4 5 4 10 0 16
-27 11 -34 -6z"/>
<path d="M1890 544 c0 -8 5 -12 10 -9 6 3 10 10 10 16 0 5 -4 9 -10 9 -5 0
-10 -7 -10 -16z"/>
<path d="M2350 491 c0 -57 3 -71 15 -71 13 0 15 12 13 67 -2 42 -8 68 -15 71
-10 3 -13 -15 -13 -67z"/>
<path d="M2900 545 c0 -9 5 -15 11 -13 6 2 11 8 11 13 0 5 -5 11 -11 13 -6 2
-11 -4 -11 -13z"/>
<path d="M3070 545 c0 -8 5 -15 10 -15 6 0 10 7 10 15 0 8 -4 15 -10 15 -5 0
-10 -7 -10 -15z"/>
<path d="M3380 535 c0 -22 -3 -25 -24 -19 -51 12 -77 -68 -29 -92 13 -6 36 -9
53 -6 l30 4 0 69 c0 55 -3 69 -15 69 -9 0 -15 -9 -15 -25z m-2 -68 c4 -20 -25
-34 -40 -19 -15 15 -1 44 19 40 10 -2 19 -11 21 -21z"/>
<path d="M3620 501 c0 -34 0 -64 -1 -68 0 -5 7 -9 16 -11 14 -3 16 6 13 64 -2
43 -8 69 -15 72 -10 3 -13 -13 -13 -57z"/>
<path d="M4270 545 c0 -8 5 -15 10 -15 6 0 10 7 10 15 0 8 -4 15 -10 15 -5 0
-10 -7 -10 -15z"/>
<path d="M1046 534 c-9 -23 -8 -24 24 -24 24 0 30 4 30 21 0 18 -2 19 -15 9
-10 -9 -15 -9 -15 -1 0 17 -17 13 -24 -5z"/>
<path d="M1130 486 c0 -62 1 -64 28 -68 35 -5 62 1 62 13 0 5 -13 9 -30 9 -30
0 -30 1 -30 55 0 42 -3 55 -15 55 -12 0 -15 -14 -15 -64z"/>
<path d="M1400 540 c0 -5 9 -10 20 -10 18 0 20 -7 20 -55 0 -42 3 -55 15 -55
12 0 15 13 15 55 0 48 2 55 20 55 11 0 20 5 20 10 0 6 -25 10 -55 10 -30 0
-55 -4 -55 -10z"/>
<path d="M2470 530 c-14 -26 -6 -39 37 -56 18 -8 31 -19 28 -24 -8 -13 -42
-13 -51 1 -4 8 -9 8 -18 -1 -15 -15 9 -30 50 -30 61 0 71 52 14 73 -42 16 -41
41 1 32 24 -6 30 -4 27 6 -3 8 -21 15 -41 17 -28 2 -38 -1 -47 -18z"/>
<path d="M3850 485 c0 -51 3 -65 15 -65 8 0 15 7 15 15 0 8 9 15 21 15 36 0
59 19 59 48 0 39 -17 52 -67 52 l-43 0 0 -65z m78 18 c3 -19 -1 -23 -22 -23
-21 0 -26 5 -26 26 0 21 4 25 23 22 14 -2 23 -11 25 -25z"/>
<path d="M4439 546 c0 0 -2 -9 -4 -18 -4 -21 6 -23 23 -6 9 9 12 9 12 0 0 -7
5 -12 10 -12 6 0 10 8 10 19 0 13 -7 19 -25 19 -14 0 -25 -1 -26 -2z"/>
<path d="M13 533 c-18 -7 -17 -53 1 -53 8 0 16 13 18 30 5 30 3 32 -19 23z"/>
<path d="M4101 518 c-10 -16 -10 -23 -2 -26 6 -2 9 -8 6 -12 -3 -5 -3 -21 1
-35 4 -18 13 -25 30 -25 27 0 32 15 8 24 -18 7 -15 52 4 49 17 -4 15 4 -8 27
-25 25 -22 25 -39 -2z"/>
<path d="M1253 513 c-21 -8 -15 -26 7 -20 11 3 23 1 26 -4 3 -5 -4 -9 -14 -9
-25 0 -46 -25 -38 -45 3 -10 19 -15 46 -15 l40 0 0 44 c0 51 -23 67 -67 49z
m37 -63 c0 -5 -7 -10 -15 -10 -8 0 -15 5 -15 10 0 6 7 10 15 10 8 0 15 -4 15
-10z"/>
<path d="M1537 502 c-21 -23 -22 -56 -3 -71 17 -14 82 -11 78 4 -2 6 -14 9
-27 7 -12 -2 -26 2 -30 7 -4 7 7 11 29 11 28 0 36 4 36 18 0 41 -54 57 -83 24z
m47 -8 c22 -9 10 -23 -14 -17 -11 3 -17 9 -14 14 6 11 8 11 28 3z"/>
<path d="M1658 509 c-22 -12 -24 -62 -4 -78 19 -16 68 -10 74 8 3 9 -2 11 -17
6 -26 -8 -52 10 -44 31 3 8 18 14 34 14 31 0 39 14 13 24 -22 8 -36 7 -56 -5z"/>
<path d="M1755 511 c-3 -2 -5 -24 -5 -48 0 -32 4 -43 15 -43 9 0 15 9 15 23 0
31 15 51 34 44 10 -4 16 -18 16 -37 0 -20 5 -30 15 -30 10 0 15 10 15 31 0 52
-15 68 -61 66 -22 -1 -42 -3 -44 -6z"/>
<path d="M1880 470 c0 -38 4 -50 15 -50 11 0 15 12 15 50 0 38 -4 50 -15 50
-11 0 -15 -12 -15 -50z"/>
<path d="M1958 509 c-22 -12 -24 -62 -4 -78 17 -14 72 -11 68 4 -1 6 -10 10
-20 10 -30 0 -43 14 -32 34 6 13 17 17 35 14 27 -6 35 11 9 21 -22 8 -36 7
-56 -5z"/>
<path d="M2061 511 c-17 -11 1 -23 22 -15 8 3 18 1 21 -4 3 -5 -8 -12 -24 -16
-22 -4 -30 -11 -30 -26 0 -22 5 -25 58 -34 32 -5 32 -5 32 37 0 24 -5 48 -12
55 -14 14 -47 15 -67 3z m49 -61 c0 -5 -7 -10 -15 -10 -8 0 -15 5 -15 10 0 6
7 10 15 10 8 0 15 -4 15 -10z"/>
<path d="M2243 513 c-21 -8 -15 -25 7 -18 11 3 25 3 31 -1 7 -4 -1 -11 -22
-18 -24 -8 -34 -17 -34 -31 0 -16 9 -21 43 -26 50 -6 52 -5 52 33 0 56 -30 80
-77 61z m47 -63 c0 -5 -9 -10 -20 -10 -11 0 -20 5 -20 10 0 6 9 10 20 10 11 0
20 -4 20 -10z"/>
<path d="M2594 495 c-14 -21 -15 -31 -5 -51 9 -21 17 -25 46 -22 20 2 35 8 35
13 -1 6 -12 9 -25 7 -14 -2 -25 1 -25 7 0 6 16 11 35 11 39 0 42 6 19 38 -21
30 -59 29 -80 -3z m61 -5 c4 -6 -6 -10 -22 -10 -22 0 -25 2 -13 10 19 12 27
12 35 0z"/>
<path d="M2710 469 c0 -37 4 -49 15 -49 10 0 15 10 15 28 0 15 9 35 19 44 19
16 20 15 34 -25 19 -57 48 -62 66 -10 8 21 16 44 18 51 3 6 -2 12 -11 12 -10
0 -19 -11 -23 -30 -8 -44 -21 -46 -29 -5 -6 34 -7 35 -55 33 l-49 -1 0 -48z"/>
<path d="M2900 470 c0 -38 4 -50 15 -50 11 0 15 12 15 50 0 38 -4 50 -15 50
-11 0 -15 -12 -15 -50z"/>
<path d="M2968 509 c-22 -12 -24 -62 -4 -78 18 -15 68 -11 73 6 3 8 -6 11 -24
10 -22 -2 -29 3 -31 21 -3 19 1 22 27 22 33 0 42 14 15 24 -22 8 -36 7 -56 -5z"/>
<path d="M3070 470 c0 -38 4 -50 15 -50 11 0 15 12 15 50 0 38 -4 50 -15 50
-11 0 -15 -12 -15 -50z"/>
<path d="M3136 507 c-25 -19 -18 -68 13 -83 51 -26 97 25 67 71 -18 28 -52 32
-80 12z m58 -51 c-4 -9 -14 -16 -23 -14 -20 4 -27 38 -9 49 18 11 40 -13 32
-35z"/>
<path d="M3445 500 c-15 -16 -17 -26 -9 -48 8 -23 15 -27 47 -27 20 0 37 5 37
10 -1 6 -12 9 -25 7 -12 -2 -26 2 -30 7 -4 7 8 11 34 11 45 0 48 5 25 38 -19
28 -55 28 -79 2z m60 -10 c4 -6 -6 -10 -22 -10 -22 0 -25 2 -13 10 19 12 27
12 35 0z"/>
<path d="M3693 513 c-7 -2 -13 -9 -13 -15 0 -6 7 -7 16 -4 31 12 36 -7 5 -20
-47 -20 -38 -47 18 -55 49 -6 57 2 47 55 -8 41 -35 55 -73 39z m42 -63 c-3 -5
-13 -10 -21 -10 -8 0 -14 5 -14 10 0 6 9 10 21 10 11 0 17 -4 14 -10z"/>
<path d="M3991 511 c-17 -11 1 -23 22 -15 8 3 18 1 21 -5 3 -5 -8 -12 -24 -16
-25 -5 -30 -11 -28 -28 2 -18 11 -23 46 -25 l42 -3 0 38 c0 22 -5 44 -12 51
-14 14 -47 15 -67 3z m49 -61 c0 -5 -9 -10 -21 -10 -11 0 -17 5 -14 10 3 6 13
10 21 10 8 0 14 -4 14 -10z"/>
<path d="M4180 469 c0 -37 4 -49 15 -49 10 0 15 10 15 30 0 19 7 33 20 40 30
16 24 26 -15 27 l-35 1 0 -49z"/>
<path d="M4260 470 c0 -38 4 -50 15 -50 11 0 15 12 15 50 0 38 -4 50 -15 50
-11 0 -15 -12 -15 -50z"/>
<path d="M4331 511 c-17 -11 1 -23 22 -15 8 3 18 1 21 -4 3 -5 -8 -12 -24 -16
-24 -4 -30 -11 -30 -31 0 -23 4 -25 45 -25 l45 0 0 38 c0 21 -5 43 -12 50 -14
14 -47 15 -67 3z m49 -61 c0 -5 -9 -10 -21 -10 -11 0 -17 5 -14 10 3 6 13 10
21 10 8 0 14 -4 14 -10z"/>
<path d="M552 440 c0 -14 2 -19 5 -12 2 6 2 18 0 25 -3 6 -5 1 -5 -13z"/>
<path d="M200 410 c0 -5 5 -10 11 -10 5 0 7 5 4 10 -3 6 -8 10 -11 10 -2 0 -4
-4 -4 -10z"/>
<path d="M356 331 c-4 -5 -2 -12 3 -15 5 -4 12 -2 15 3 4 5 2 12 -3 15 -5 4
-12 2 -15 -3z"/>
<path d="M480 10 c0 -5 7 -10 15 -10 8 0 15 5 15 10 0 6 -7 10 -15 10 -8 0
-15 -4 -15 -10z"/>
</g>
</svg>
