<?xml version="1.0" encoding="UTF-8"?>
<svg xmlns="http://www.w3.org/2000/svg" xmlns:xlink="http://www.w3.org/1999/xlink" width="500px" height="206px" viewBox="0 0 499 206" version="1.1">
<g id="surface1">
<path style=" stroke:none;fill-rule:nonzero;fill:rgb(0%,0%,0%);fill-opacity:1;" d="M 291.910156 19.933594 L 288.886719 21.023438 L 288.703125 24.71875 L 288.523438 28.476562 L 284.769531 26.054688 L 281.019531 23.691406 L 277.269531 25.023438 L 273.457031 26.355469 L 273.335938 43.867188 L 273.15625 61.4375 L 268.921875 62.527344 C 266.621094 63.074219 264.503906 63.617188 264.261719 63.617188 C 263.960938 63.617188 263.777344 62.222656 263.777344 60.589844 C 263.777344 58.46875 264.019531 57.558594 264.5625 57.558594 C 264.988281 57.558594 266.742188 57.132812 268.4375 56.648438 C 272.429688 55.4375 272.851562 54.410156 272.851562 45.5 C 272.851562 35.867188 272.488281 35.019531 267.527344 32.597656 C 265.289062 31.566406 262.75 30.71875 261.902344 30.71875 C 260.996094 30.71875 257.847656 31.566406 254.824219 32.65625 L 249.320312 34.65625 L 249.078125 38.109375 C 248.957031 40.472656 248.835938 39.804688 248.773438 35.929688 L 248.652344 30.292969 L 240.183594 26.054688 C 235.523438 23.75 231.410156 21.8125 230.988281 21.8125 C 230.5625 21.8125 228.808594 22.417969 227.054688 23.144531 L 223.847656 24.476562 L 223.847656 30.71875 C 223.847656 37.625 223.910156 37.6875 227.78125 36.109375 C 228.929688 35.625 229.898438 35.445312 229.898438 35.746094 C 229.898438 35.988281 228.566406 36.714844 226.875 37.324219 L 223.847656 38.414062 L 223.847656 41.746094 C 223.847656 43.625 224.03125 46.59375 224.273438 48.347656 C 224.574219 51.257812 224.753906 51.5625 225.90625 51.257812 C 229.292969 50.289062 230.5625 50.347656 227.78125 51.378906 L 224.753906 52.53125 L 224.574219 59.375 L 224.394531 66.164062 L 226.570312 65.796875 C 227.78125 65.554688 229.171875 65.191406 229.65625 65.011719 C 230.140625 64.828125 230.503906 64.949219 230.503906 65.3125 C 230.503906 65.617188 229.171875 66.222656 227.476562 66.648438 L 224.453125 67.375 L 224.453125 73.976562 C 224.453125 77.734375 224.695312 80.582031 225.058594 80.582031 C 225.359375 80.582031 226.996094 80.28125 228.75 79.914062 L 231.894531 79.25 L 231.53125 72.949219 C 231.351562 69.496094 231.410156 66.527344 231.714844 66.34375 C 232.015625 66.164062 232.921875 66.34375 233.769531 66.707031 C 235.707031 67.617188 235.949219 70.222656 234.132812 70.707031 C 233.164062 70.949219 232.921875 71.554688 232.921875 73.554688 C 232.921875 75.007812 233.042969 76.28125 233.226562 76.460938 C 233.40625 76.644531 234.617188 76.582031 235.828125 76.28125 C 238.1875 75.675781 263.355469 69.980469 279.808594 66.285156 C 285.132812 65.070312 291.488281 63.617188 293.96875 63.011719 L 298.382812 61.921875 L 302.738281 63.859375 L 307.035156 65.859375 L 304.613281 66.527344 C 301.226562 67.496094 300.078125 67.433594 296.507812 65.980469 L 293.421875 64.648438 L 284.769531 66.34375 C 280.050781 67.253906 275.394531 68.402344 274.425781 68.828125 C 273.457031 69.3125 272.1875 69.675781 271.523438 69.675781 C 270.917969 69.675781 269.886719 70.585938 269.164062 71.617188 C 267.953125 73.613281 267.953125 73.613281 268.375 71.917969 C 268.738281 70.222656 268.738281 70.222656 266.441406 70.585938 C 264.203125 71.007812 263.050781 71.859375 261.660156 74.21875 C 261.238281 74.949219 258.757812 75.796875 253.492188 76.945312 L 245.929688 78.644531 L 244.902344 77.433594 C 243.8125 76.160156 243.632812 76.339844 243.753906 78.460938 C 243.8125 79.550781 243.753906 79.492188 243.207031 78.28125 C 242.480469 76.644531 241.03125 75.976562 240 76.824219 C 239.578125 77.1875 238.003906 77.554688 236.554688 77.675781 C 234.132812 77.855469 233.832031 78.039062 233.648438 79.492188 C 233.527344 80.402344 233.890625 81.914062 234.375 82.882812 C 234.859375 83.855469 235.101562 85.246094 234.917969 85.914062 C 234.738281 86.640625 235.039062 87.914062 235.585938 88.761719 C 236.128906 89.550781 236.554688 91.0625 236.554688 92.035156 C 236.554688 93.972656 235.644531 94.394531 229.59375 95.425781 C 225.785156 96.03125 225.238281 96.273438 224.753906 97.730469 L 224.273438 99.0625 L 224.03125 97.667969 C 223.789062 96.578125 223.484375 96.394531 222.152344 96.699219 C 218.464844 97.488281 218.402344 97.546875 218.402344 99.726562 C 218.402344 101 218.160156 101.726562 217.796875 101.484375 C 217.496094 101.304688 217.191406 100.273438 217.191406 99.242188 C 217.191406 97.609375 217.011719 97.425781 215.863281 97.789062 C 215.074219 97.972656 214.109375 98.152344 213.746094 98.152344 C 213.199219 98.152344 212.957031 99.183594 212.957031 101.183594 C 212.957031 102.816406 212.714844 104.210938 212.351562 104.210938 C 212.050781 104.210938 211.75 103 211.75 101.484375 C 211.75 98.941406 211.628906 98.757812 210.113281 98.757812 C 207.453125 98.757812 206.96875 99.425781 206.726562 103.605469 C 206.605469 105.785156 206.484375 102.695312 206.425781 96.757812 L 206.304688 86.035156 L 204.730469 85.429688 C 203.824219 85.066406 202.371094 85.003906 201.28125 85.308594 C 199.828125 85.671875 199.285156 86.277344 198.863281 87.792969 C 198.195312 90.578125 198.5 91.125 202.25 93.609375 C 205.152344 95.546875 205.457031 95.972656 205.214844 97.546875 C 204.910156 99.847656 204.550781 100.03125 200.796875 100.273438 C 199.164062 100.335938 197.652344 100.578125 197.46875 100.757812 C 197.226562 100.941406 196.925781 102.273438 196.804688 103.726562 C 196.503906 106.273438 196.5625 106.394531 198.984375 107.726562 C 201.765625 109.300781 201.765625 109.726562 199.042969 110.875 C 195.957031 112.148438 197.167969 112.996094 201.828125 112.816406 L 206 112.632812 L 208.90625 116.148438 L 211.75 119.660156 L 211.75 136.203125 C 211.75 146.382812 211.507812 152.621094 211.203125 152.378906 C 210.839844 152.199219 210.597656 149.652344 210.597656 146.746094 C 210.597656 143.835938 210.597656 136.445312 210.539062 130.265625 L 210.476562 119.054688 L 208.238281 116.390625 L 205.941406 113.722656 L 203.703125 116.8125 C 201.886719 119.238281 201.464844 120.390625 201.402344 122.75 L 201.28125 125.71875 L 200.859375 122.691406 C 200.496094 120.207031 200.675781 119.417969 201.585938 118.207031 C 202.1875 117.421875 202.613281 116.632812 202.429688 116.511719 C 202.308594 116.390625 200.980469 116.875 199.40625 117.664062 C 196.683594 118.933594 196.625 119.054688 196.625 121.78125 C 196.625 124.328125 196.804688 124.628906 198.4375 125.234375 C 200.253906 125.902344 200.253906 125.964844 200.253906 130.386719 C 200.253906 132.871094 200.554688 135.171875 200.917969 135.535156 C 201.222656 135.839844 201.402344 137.476562 201.28125 139.109375 L 201.101562 142.078125 L 200.980469 138.867188 C 200.859375 136.566406 200.617188 135.71875 199.949219 135.71875 C 197.773438 135.71875 197.46875 140.808594 199.589844 143.230469 C 200.375 144.140625 200.617188 146.261719 200.738281 154.742188 L 200.980469 165.222656 L 198.800781 166.496094 C 197.289062 167.40625 196.625 168.191406 196.625 169.222656 C 196.625 172.253906 200.253906 173.949219 207.03125 174.007812 C 210.78125 174.007812 212.171875 173.765625 213.867188 172.738281 C 215.074219 172.011719 217.070312 171.464844 218.34375 171.464844 L 220.640625 171.464844 L 220.339844 175.886719 C 220.097656 179.824219 220.21875 180.371094 221.429688 181.460938 C 222.515625 182.429688 223.425781 182.613281 227.113281 182.429688 L 231.53125 182.25 L 231.957031 185.339844 C 232.257812 187.761719 232.679688 188.609375 234.195312 189.703125 C 235.828125 190.851562 236.492188 190.972656 240.242188 190.609375 C 244.359375 190.1875 244.417969 190.1875 245.023438 191.761719 C 245.871094 194.003906 248.167969 194.671875 253.492188 194.183594 C 255.972656 193.941406 259.542969 193.761719 261.417969 193.820312 C 266.5625 194.003906 273.398438 192.246094 274.125 190.609375 C 274.910156 188.976562 277.996094 187.703125 280.839844 187.945312 C 282.351562 188.003906 283.683594 187.519531 285.617188 186.1875 C 287.070312 185.15625 289.851562 183.886719 291.730469 183.339844 C 295.539062 182.25 297.050781 180.734375 297.050781 177.949219 C 297.050781 176.976562 297.535156 175.523438 298.203125 174.738281 C 299.109375 173.585938 299.230469 172.859375 298.808594 170.554688 C 298.503906 169.042969 298.019531 167.285156 297.65625 166.679688 C 296.691406 164.859375 296.8125 164.800781 300.984375 164.800781 L 304.917969 164.800781 L 306.128906 162.316406 C 307.214844 160.195312 307.335938 159.589844 306.671875 157.710938 C 306.308594 156.5 305.039062 154.5 303.890625 153.226562 C 300.683594 149.652344 301.226562 148.742188 306.671875 148.683594 C 311.574219 148.683594 312.054688 148.320312 312.117188 144.503906 C 312.175781 143.109375 311.453125 142.019531 308.667969 139.351562 C 305.523438 136.382812 305.160156 135.839844 305.460938 134.203125 C 305.824219 132.386719 305.824219 132.386719 310.421875 132.203125 L 315.082031 132.023438 L 315.445312 130.144531 C 316.050781 126.992188 315.929688 126.75 311.574219 124.449219 C 308.003906 122.507812 307.277344 121.84375 306.972656 120.207031 C 306.308594 116.570312 306.671875 116.148438 311.753906 114.9375 L 316.414062 113.785156 L 316.414062 108.511719 L 312.117188 107.121094 C 307.699219 105.726562 306.128906 104.210938 306.914062 102.152344 C 307.09375 101.667969 309.03125 100.273438 311.269531 99.0625 L 315.261719 96.820312 L 315.082031 93.730469 L 314.898438 90.699219 L 309.9375 88.882812 C 307.15625 87.914062 304.917969 86.882812 304.917969 86.640625 C 304.917969 86.460938 305.644531 85.855469 306.492188 85.429688 C 307.335938 84.945312 309.152344 83.25 310.484375 81.613281 L 312.902344 78.703125 L 311.933594 76.097656 C 311.027344 73.734375 310.484375 73.25 306.792969 71.554688 C 304.554688 70.523438 302.375 69.675781 302.011719 69.675781 C 300.199219 69.675781 301.589844 68.523438 304.191406 67.859375 C 305.765625 67.433594 307.519531 67.011719 308.125 66.828125 C 309.03125 66.585938 309.152344 65.980469 309.03125 63.132812 C 308.851562 59.859375 308.730469 59.617188 306.613281 58.46875 L 304.3125 57.257812 L 304.3125 23.75 L 300.136719 21.265625 C 297.839844 19.933594 295.722656 18.78125 295.417969 18.84375 C 295.175781 18.84375 293.605469 19.328125 291.910156 19.933594 Z M 300.199219 22.476562 L 303.101562 24.355469 L 303.101562 40.414062 C 303.101562 55.5 303.042969 56.46875 302.074219 55.984375 C 301.46875 55.679688 299.835938 55.5 298.445312 55.558594 L 295.84375 55.558594 L 295.84375 38.109375 C 295.84375 25.203125 296.023438 20.601562 296.570312 20.601562 C 296.929688 20.601562 298.566406 21.449219 300.199219 22.476562 Z M 233.832031 24.660156 L 235.949219 25.6875 L 235.949219 31.324219 C 235.949219 34.414062 235.765625 36.957031 235.523438 36.957031 C 235.222656 36.957031 234.132812 36.414062 233.105469 35.746094 L 231.109375 34.535156 L 231.109375 29.082031 C 231.109375 26.113281 231.230469 23.628906 231.410156 23.628906 C 231.53125 23.628906 232.621094 24.113281 233.832031 24.660156 Z M 285.558594 27.6875 L 288.582031 29.386719 L 288.582031 39.078125 L 285.253906 32.898438 C 283.441406 29.507812 281.929688 26.539062 281.929688 26.355469 C 281.929688 25.8125 282.472656 25.992188 285.558594 27.6875 Z M 239.457031 32.597656 C 239.636719 37.867188 239.578125 38.171875 238.367188 38.171875 C 237.21875 38.171875 237.15625 37.808594 237.15625 32.355469 C 237.15625 27.144531 237.277344 26.597656 238.246094 26.78125 C 239.09375 26.960938 239.277344 27.808594 239.457031 32.597656 Z M 242.601562 33.382812 C 242.601562 37.382812 242.480469 38.050781 241.695312 37.808594 C 240.96875 37.503906 240.789062 36.351562 240.789062 32.65625 C 240.789062 28.660156 240.910156 27.992188 241.695312 28.234375 C 242.421875 28.535156 242.601562 29.6875 242.601562 33.382812 Z M 245.929688 30.414062 C 247.320312 31.082031 247.441406 31.382812 247.441406 35.566406 C 247.441406 37.988281 247.320312 39.988281 247.140625 39.988281 C 247.019531 39.988281 246.171875 39.683594 245.324219 39.261719 C 243.933594 38.59375 243.8125 38.292969 243.8125 34.109375 C 243.8125 31.6875 243.933594 29.6875 244.117188 29.6875 C 244.238281 29.6875 245.082031 29.992188 245.929688 30.414062 Z M 270.613281 35.625 C 271.523438 36.414062 271.644531 37.6875 271.644531 44.773438 C 271.644531 49.320312 271.402344 53.378906 271.097656 53.800781 C 270.855469 54.285156 268.980469 55.136719 267.042969 55.800781 C 263.65625 56.953125 263.414062 56.953125 260.933594 55.921875 C 259.480469 55.316406 258.332031 54.652344 258.332031 54.46875 C 258.332031 54.285156 259.480469 53.800781 260.933594 53.378906 C 265.53125 51.984375 265.59375 51.863281 265.59375 41.683594 L 265.59375 32.65625 L 267.589844 33.6875 C 268.617188 34.230469 270.007812 35.082031 270.613281 35.625 Z M 233.648438 37.324219 L 235.644531 38.230469 L 235.464844 44.714844 C 235.34375 48.289062 235.160156 51.316406 235.039062 51.4375 C 234.917969 51.5625 233.953125 51.015625 232.984375 50.289062 L 231.109375 49.015625 L 231.109375 42.652344 C 231.109375 39.199219 231.230469 36.351562 231.410156 36.351562 C 231.53125 36.351562 232.558594 36.777344 233.648438 37.324219 Z M 249.257812 54.53125 L 249.257812 66.585938 L 246.71875 67.253906 C 245.265625 67.617188 243.632812 68.039062 243.085938 68.222656 C 242.058594 68.523438 242 67.554688 242 53.679688 L 242 38.777344 L 249.257812 42.410156 Z M 258.210938 43.441406 C 257.96875 47.441406 256.519531 47.683594 256.519531 43.683594 C 256.519531 41.320312 256.761719 40.59375 257.484375 40.59375 C 258.210938 40.59375 258.332031 41.199219 258.210938 43.441406 Z M 285.195312 50.710938 L 288.582031 57.5 L 285.980469 58.164062 C 284.589844 58.527344 282.957031 58.953125 282.410156 59.132812 C 281.382812 59.4375 281.324219 58.769531 281.324219 51.4375 C 281.324219 47.015625 281.445312 43.5625 281.566406 43.683594 C 281.6875 43.804688 283.320312 46.957031 285.195312 50.710938 Z M 233.527344 51.804688 L 235.34375 52.773438 L 235.34375 66.042969 L 233.40625 65.253906 L 231.410156 64.464844 L 231.230469 57.679688 C 231.167969 53.921875 231.230469 50.894531 231.410156 50.894531 C 231.59375 50.894531 232.558594 51.316406 233.527344 51.804688 Z M 259.84375 56.46875 C 262.507812 57.742188 262.566406 57.863281 262.566406 60.710938 C 262.566406 63.496094 262.507812 63.558594 260.328125 64.164062 C 256.519531 65.253906 256.519531 65.253906 256.519531 59.980469 C 256.519531 57.316406 256.640625 55.136719 256.820312 55.136719 C 256.941406 55.136719 258.332031 55.742188 259.84375 56.46875 Z M 304.613281 58.347656 C 307.941406 60.105469 308.246094 60.46875 308.425781 62.527344 C 308.546875 63.800781 308.488281 64.828125 308.304688 64.828125 C 308.125 64.828125 306.1875 63.980469 304.011719 62.890625 C 300.199219 61.011719 300.078125 60.832031 300.078125 58.648438 C 300.078125 57.378906 300.257812 56.347656 300.5625 56.347656 C 300.804688 56.347656 302.617188 57.257812 304.613281 58.347656 Z M 298.203125 69.433594 C 297.535156 70.28125 292.089844 73.3125 291.304688 73.3125 C 291.125 73.3125 290.640625 72.402344 290.15625 71.3125 C 289.371094 69.496094 289.429688 69.3125 291.183594 67.433594 L 293 65.496094 L 295.964844 67.011719 C 298.503906 68.28125 298.867188 68.644531 298.203125 69.433594 Z M 274.003906 72.765625 C 272.914062 73.433594 272.851562 73.25 273.277344 71.554688 C 273.578125 70.28125 273.699219 70.28125 274.246094 71.191406 C 274.605469 71.917969 274.546875 72.402344 274.003906 72.765625 Z M 306.972656 72.644531 C 310 73.976562 310.847656 74.707031 311.089844 75.976562 C 311.269531 77.007812 311.148438 77.554688 310.664062 77.554688 C 309.515625 77.554688 303.464844 74.949219 302.980469 74.21875 C 302.4375 73.554688 302.316406 70.886719 302.800781 70.886719 C 302.980469 70.886719 304.855469 71.675781 306.972656 72.644531 Z M 275.695312 74.644531 C 277.8125 77.371094 283.378906 98.757812 282.230469 99.847656 C 282.046875 100.089844 278.964844 99.605469 275.394531 98.878906 C 270.191406 97.789062 268.617188 97.242188 267.226562 95.851562 L 265.53125 94.152344 L 269.886719 84.035156 C 272.246094 78.460938 274.425781 73.917969 274.667969 73.917969 C 274.910156 73.917969 275.394531 74.28125 275.695312 74.644531 Z M 309.878906 78.824219 C 310.96875 79.429688 310.90625 79.550781 309.03125 81.734375 C 307.941406 83.007812 306.25 84.460938 305.28125 84.945312 C 303.585938 85.730469 303.222656 85.730469 299.652344 84.21875 C 297.535156 83.308594 295.660156 82.460938 295.480469 82.277344 C 295.296875 82.035156 296.328125 81.128906 297.777344 80.097656 C 299.230469 79.128906 300.863281 77.734375 301.53125 77.066406 L 302.617188 75.796875 L 305.703125 77.007812 C 307.335938 77.675781 309.273438 78.460938 309.878906 78.824219 Z M 258.574219 82.824219 C 257.304688 85.730469 256.035156 88.519531 255.730469 88.882812 C 255.429688 89.308594 253.976562 89.671875 252.523438 89.671875 L 249.921875 89.671875 L 247.746094 85.066406 C 246.597656 82.519531 245.75 80.21875 245.992188 80.035156 C 246.597656 79.371094 260.449219 76.523438 260.632812 77.007812 C 260.753906 77.25 259.785156 79.855469 258.574219 82.824219 Z M 265.652344 79.792969 C 264.988281 81.066406 264.445312 81.914062 264.382812 81.671875 C 264.382812 80.945312 266.378906 76.945312 266.683594 77.1875 C 266.804688 77.3125 266.320312 78.460938 265.652344 79.792969 Z M 241.089844 83.007812 C 241.089844 84.097656 239.09375 84.582031 238.246094 83.734375 C 237.882812 83.371094 237.824219 82.824219 238.066406 82.398438 C 238.671875 81.429688 241.089844 81.914062 241.089844 83.007812 Z M 301.773438 86.15625 C 302.316406 86.640625 301.652344 87.125 299.109375 87.972656 C 297.234375 88.578125 295.601562 89.066406 295.539062 88.945312 C 295.480469 88.824219 295.175781 87.609375 294.933594 86.21875 L 294.511719 83.671875 L 297.777344 84.582031 C 299.53125 85.125 301.347656 85.855469 301.773438 86.15625 Z M 241.878906 85.550781 C 243.207031 86.882812 242.664062 87.246094 239.277344 87.246094 C 236.796875 87.246094 235.949219 87.003906 235.949219 86.398438 C 235.949219 85.914062 236.3125 85.367188 236.734375 85.246094 C 238.125 84.640625 241.152344 84.824219 241.878906 85.550781 Z M 262.023438 88.277344 C 261.359375 89.550781 260.8125 90.398438 260.753906 90.15625 C 260.753906 89.429688 262.75 85.429688 263.050781 85.671875 C 263.171875 85.792969 262.6875 86.945312 262.023438 88.277344 Z M 241.089844 90.882812 C 241.089844 93.425781 240.96875 93.609375 239.457031 93.789062 C 237.824219 93.972656 237.761719 93.910156 237.761719 91.246094 C 237.761719 88.578125 238.308594 87.792969 240.183594 88.035156 C 240.847656 88.15625 241.089844 88.945312 241.089844 90.882812 Z M 310.421875 89.972656 C 313.628906 91.003906 313.871094 91.246094 314.234375 93.183594 C 314.414062 94.394531 314.476562 95.425781 314.414062 95.546875 C 314.296875 95.609375 312.417969 95.125 310.242188 94.519531 C 307.15625 93.546875 306.1875 93.003906 305.886719 91.914062 C 305.28125 89.730469 305.460938 88.277344 306.308594 88.640625 C 306.671875 88.761719 308.546875 89.367188 310.421875 89.972656 Z M 265.652344 91.304688 C 264.925781 92.519531 264.804688 92.15625 265.351562 90.578125 C 265.59375 90.035156 265.894531 89.730469 266.015625 89.914062 C 266.199219 90.035156 266.015625 90.699219 265.652344 91.304688 Z M 247.5625 94.394531 C 246.839844 94.519531 245.808594 95.367188 245.324219 96.394531 C 244.117188 98.636719 243.933594 98.636719 244.054688 96.152344 C 244.117188 93.972656 245.082031 93.367188 247.382812 93.851562 C 248.894531 94.152344 248.894531 94.214844 247.5625 94.394531 Z M 239.757812 95.125 C 238.003906 95.367188 235.886719 95.789062 234.980469 95.972656 L 233.46875 96.394531 L 234.796875 98.636719 C 235.585938 99.847656 236.917969 102.089844 237.824219 103.546875 L 239.457031 106.210938 L 240.425781 104.332031 C 241.695312 101.847656 241.636719 101.304688 240.304688 103 C 238.914062 104.695312 238.066406 103.789062 237.582031 100.152344 C 237.21875 97.304688 238.125 95.851562 238.550781 98.578125 C 238.792969 100.152344 238.792969 100.152344 238.914062 98.273438 C 238.972656 96.757812 239.214844 96.335938 240.183594 96.335938 C 240.96875 96.335938 241.394531 96.757812 241.394531 97.546875 C 241.394531 98.152344 241.878906 99 242.480469 99.304688 C 243.449219 99.910156 243.449219 100.03125 242.480469 101.789062 C 241.273438 103.910156 241.089844 105.421875 242 105.421875 C 242.300781 105.421875 242.421875 105.847656 242.179688 106.332031 C 241.9375 107.121094 242.238281 107.242188 244.175781 106.9375 C 250.105469 106.089844 267.710938 104.210938 269.707031 104.210938 C 273.941406 104.210938 271.160156 104.695312 261.175781 105.726562 C 244.238281 107.421875 241.089844 107.96875 241.273438 109.242188 C 241.515625 110.511719 239.699219 110.632812 239.214844 109.363281 C 238.972656 108.816406 238.367188 108.574219 237.519531 108.757812 C 235.101562 109.300781 202.070312 112.148438 200.980469 111.96875 C 200.375 111.785156 204.367188 109.484375 210.476562 106.394531 C 218.101562 102.636719 221.429688 101.183594 222.457031 101.484375 C 223.242188 101.667969 223.847656 101.546875 223.847656 101.183594 C 223.847656 100.878906 224.152344 100.578125 224.515625 100.578125 C 224.875 100.578125 225.058594 100.941406 224.875 101.425781 C 224.632812 102.03125 226.269531 102.816406 230.988281 104.332031 C 234.554688 105.484375 237.519531 106.394531 237.640625 106.332031 C 238.1875 105.910156 232.074219 96.941406 231.289062 96.941406 C 229.65625 96.941406 230.804688 96.273438 233.953125 95.425781 C 235.523438 95.003906 238.246094 94.640625 239.878906 94.640625 L 242.90625 94.640625 Z M 250.890625 94.882812 C 250.710938 95.0625 250.164062 95.125 249.742188 94.941406 C 249.257812 94.761719 249.441406 94.578125 250.105469 94.578125 C 250.769531 94.519531 251.132812 94.699219 250.890625 94.882812 Z M 309.335938 95.546875 C 310.90625 96.09375 312.175781 96.757812 312.175781 96.941406 C 312.175781 97.121094 310.726562 97.972656 309.03125 98.820312 C 305.886719 100.335938 305.765625 100.335938 302.679688 99.363281 C 300.925781 98.878906 299.351562 98.214844 299.109375 97.972656 C 298.6875 97.609375 304.613281 94.519531 305.824219 94.519531 C 306.1875 94.519531 307.699219 95.003906 309.335938 95.546875 Z M 255.308594 95.730469 C 256.519531 96.09375 256.578125 96.214844 255.609375 96.214844 C 254.945312 96.214844 253.734375 95.972656 252.886719 95.730469 C 251.679688 95.367188 251.617188 95.246094 252.585938 95.246094 C 253.25 95.246094 254.460938 95.488281 255.308594 95.730469 Z M 252.160156 96.699219 C 252.523438 96.820312 252.886719 97.367188 252.886719 97.910156 C 252.886719 98.636719 252.585938 98.757812 251.859375 98.457031 C 251.253906 98.152344 249.863281 97.667969 248.835938 97.304688 C 247.746094 96.941406 246.839844 96.457031 246.839844 96.214844 C 246.839844 95.851562 250.40625 96.152344 252.160156 96.699219 Z M 260.085938 96.757812 C 260.085938 97.242188 248.046875 103.121094 248.046875 102.695312 C 248.046875 102.515625 250.226562 101.304688 252.886719 99.96875 C 255.609375 98.636719 257.605469 97.242188 257.425781 96.941406 C 257.242188 96.578125 257.726562 96.335938 258.574219 96.335938 C 259.421875 96.335938 260.148438 96.515625 260.085938 96.757812 Z M 236.554688 97.851562 C 236.554688 98.335938 236.3125 98.757812 236.007812 98.757812 C 235.707031 98.757812 235.34375 98.335938 235.101562 97.851562 C 234.917969 97.304688 235.101562 96.941406 235.644531 96.941406 C 236.128906 96.941406 236.554688 97.367188 236.554688 97.851562 Z M 305.402344 103.0625 L 305.582031 105.121094 L 301.289062 104.816406 C 298.929688 104.636719 297.050781 104.332031 297.050781 104.03125 C 297.050781 103.789062 297.050781 102.515625 297.050781 101.242188 L 297.050781 98.878906 L 301.167969 99.910156 C 305.097656 100.941406 305.21875 101 305.402344 103.0625 Z M 234.132812 102.152344 C 235.644531 104.574219 235.585938 104.9375 233.648438 104.394531 C 232.621094 104.152344 232.316406 103.605469 232.316406 102.03125 C 232.316406 100.878906 232.4375 99.96875 232.558594 99.96875 C 232.679688 99.96875 233.40625 100.941406 234.132812 102.152344 Z M 258.515625 102.03125 C 259.421875 104.03125 259.421875 104.089844 258.152344 104.453125 C 256.640625 104.816406 254.703125 103.304688 254.703125 101.789062 C 254.703125 99.183594 257.183594 99.363281 258.515625 102.03125 Z M 266.015625 101.910156 C 265.835938 102.394531 265.652344 102.210938 265.652344 101.546875 C 265.59375 100.878906 265.773438 100.515625 265.957031 100.757812 C 266.136719 100.941406 266.199219 101.484375 266.015625 101.910156 Z M 275.574219 101.425781 L 278.601562 102.210938 L 276.421875 102.636719 C 273.214844 103.304688 270.796875 102.878906 270.554688 101.605469 C 270.3125 100.335938 271.402344 100.273438 275.574219 101.425781 Z M 285.558594 102.394531 C 286.890625 102.816406 286.828125 102.878906 284.832031 102.9375 C 283.5625 103 282.53125 102.695312 282.53125 102.394531 C 282.53125 101.726562 283.378906 101.726562 285.558594 102.394531 Z M 281.203125 103.425781 C 280.597656 103.546875 279.507812 103.546875 278.78125 103.425781 C 277.996094 103.304688 278.480469 103.183594 279.808594 103.183594 C 281.140625 103.121094 281.746094 103.242188 281.203125 103.425781 Z M 276.363281 104.03125 C 275.757812 104.152344 274.667969 104.152344 273.941406 104.03125 C 273.15625 103.910156 273.640625 103.789062 274.96875 103.789062 C 276.300781 103.726562 276.90625 103.847656 276.363281 104.03125 Z M 286.285156 106.453125 C 287.128906 107.421875 288.824219 109.484375 290.035156 111.058594 L 292.210938 114.027344 L 292.210938 144.019531 L 295.296875 145.957031 C 296.992188 146.988281 298.808594 147.835938 299.410156 147.835938 C 300.804688 147.835938 301.289062 148.378906 300.863281 149.410156 C 300.621094 150.015625 299.472656 150.257812 296.691406 150.257812 C 292.878906 150.257812 292.816406 150.257812 292.816406 148.5625 C 292.816406 147.59375 292.394531 146.320312 291.910156 145.652344 C 291.183594 144.746094 291.0625 141.714844 291.003906 129.175781 L 291.003906 113.84375 L 287.855469 109.96875 C 286.164062 107.785156 284.410156 106.03125 284.046875 106.03125 C 283.078125 106.03125 281.140625 109.542969 281.566406 110.632812 C 281.929688 111.542969 281.019531 111.847656 280.414062 110.9375 C 279.992188 110.210938 283.199219 104.816406 284.105469 104.816406 C 284.410156 104.816406 285.4375 105.542969 286.285156 106.453125 Z M 315.082031 109.179688 C 315.867188 109.90625 316.050781 112.453125 315.324219 112.9375 C 315.019531 113.117188 313.144531 112.753906 311.089844 112.210938 C 307.335938 111.238281 307.335938 111.238281 307.335938 109 L 307.335938 106.757812 L 310.847656 107.664062 C 312.722656 108.148438 314.65625 108.816406 315.082031 109.179688 Z M 258.9375 108.878906 C 258.9375 112.511719 259.058594 112.511719 270.433594 111.90625 C 279.992188 111.421875 279.207031 111.785156 268.800781 112.695312 L 260.8125 113.421875 L 259.601562 117.054688 L 258.394531 120.632812 L 261.964844 128.628906 C 263.898438 133.050781 267.285156 140.566406 269.464844 145.410156 C 271.644531 150.199219 273.277344 154.257812 273.09375 154.4375 C 272.730469 154.804688 272.851562 154.984375 269.585938 147.53125 C 261.84375 129.839844 258.03125 121.78125 257.484375 121.78125 C 257.121094 121.78125 256.09375 122.207031 255.1875 122.628906 C 253.007812 123.78125 252.464844 122.871094 254.097656 120.632812 C 255.972656 117.90625 257.121094 114.148438 257.121094 110.511719 C 257.121094 108.027344 257.363281 107.242188 258.03125 107.242188 C 258.636719 107.242188 258.9375 107.847656 258.9375 108.878906 Z M 240.0625 111.117188 C 242.964844 111.664062 244.960938 112.390625 245.75 113.179688 C 246.960938 114.390625 246.960938 114.511719 245.992188 115.964844 C 244.597656 118.148438 243.207031 118.027344 243.207031 115.785156 C 243.207031 114.753906 242.90625 113.785156 242.601562 113.601562 C 242.238281 113.359375 239.699219 113.117188 236.976562 113.058594 C 231.53125 112.875 229.898438 112.390625 229.898438 111.117188 C 229.898438 110.027344 234.011719 110.027344 240.0625 111.117188 Z M 217.675781 113.601562 C 217.796875 114.574219 218.222656 115.601562 218.585938 115.84375 C 219.128906 116.207031 219.070312 116.449219 218.464844 116.875 C 217.253906 117.664062 217.980469 129.78125 219.554688 135.414062 C 220.21875 137.71875 220.582031 140.445312 220.398438 141.351562 C 220.15625 142.683594 220.460938 143.472656 221.851562 144.988281 C 222.878906 146.078125 224.453125 148.378906 225.359375 150.078125 C 226.328125 151.835938 227.296875 153.289062 227.597656 153.289062 C 227.839844 153.289062 228.082031 154.136719 228.082031 155.167969 C 228.082031 157.773438 229.113281 159.347656 230.746094 159.347656 C 231.53125 159.347656 232.316406 159.710938 232.5 160.195312 C 233.042969 161.527344 240.546875 166.679688 244.296875 168.191406 C 246.535156 169.101562 249.015625 169.648438 251.375 169.648438 C 253.917969 169.648438 254.761719 169.828125 254.097656 170.253906 C 253.613281 170.554688 251.859375 170.859375 250.164062 170.859375 C 239.035156 170.796875 228.507812 163.226562 221.488281 150.257812 C 218.34375 144.320312 216.226562 137.777344 215.074219 130.023438 C 214.167969 123.539062 213.867188 112.632812 214.589844 111.847656 C 214.832031 111.605469 215.558594 111.480469 216.285156 111.605469 C 217.132812 111.726562 217.554688 112.332031 217.675781 113.601562 Z M 310.058594 112.753906 C 313.328125 113.601562 313.144531 114.207031 309.335938 114.875 C 306.1875 115.359375 305.765625 115.359375 302.253906 114.453125 C 299.652344 113.722656 299.714844 113.359375 302.617188 112.695312 C 305.523438 111.96875 307.09375 112.027344 310.058594 112.753906 Z M 279.507812 112.9375 C 279.507812 113.058594 279.085938 113.480469 278.601562 113.90625 C 277.8125 114.574219 277.753906 114.511719 278.054688 113.664062 C 278.359375 112.816406 279.507812 112.269531 279.507812 112.9375 Z M 242.179688 117.054688 C 242.601562 118.933594 242.964844 119.296875 244.902344 119.660156 C 248.230469 120.269531 252.101562 122.75 253.917969 125.476562 C 254.761719 126.8125 255.308594 128.023438 255.125 128.203125 C 254.945312 128.445312 253.796875 128.023438 252.585938 127.296875 C 251.375 126.628906 249.921875 126.023438 249.320312 126.023438 C 248.714844 126.023438 247.867188 125.597656 247.441406 125.113281 C 247.019531 124.628906 246.113281 124.265625 245.386719 124.328125 C 243.8125 124.449219 239.035156 122.328125 237.582031 120.933594 C 236.796875 120.144531 236.734375 119.601562 237.15625 118.753906 C 237.519531 118.148438 237.761719 116.875 237.761719 116.027344 C 237.761719 114.574219 237.945312 114.453125 239.699219 114.632812 C 241.394531 114.816406 241.757812 115.117188 242.179688 117.054688 Z M 302.195312 115.300781 L 305.824219 116.085938 L 306.007812 118.933594 C 306.25 122.207031 306.128906 122.207031 300.5 121.117188 L 297.050781 120.390625 L 297.050781 117.480469 C 297.050781 114.148438 296.871094 114.207031 302.195312 115.300781 Z M 276.421875 115.664062 C 277.390625 116.269531 278.296875 135.355469 278.539062 157.832031 C 278.601562 167.464844 278.601562 167.769531 278.480469 159.226562 C 278.296875 148.804688 278.238281 148.441406 277.027344 148.621094 C 275.9375 148.742188 275.089844 147.167969 270.917969 137.898438 C 266.863281 129.054688 266.136719 126.933594 266.683594 126.085938 C 268.921875 123.054688 269.949219 121.238281 270.554688 119.054688 C 270.917969 117.722656 271.523438 116.269531 271.824219 115.84375 C 272.488281 114.996094 275.152344 114.875 276.421875 115.664062 Z M 236.25 118.328125 C 235.765625 121.359375 236.554688 122.328125 240.789062 123.902344 C 242.300781 124.507812 244.359375 125.296875 245.324219 125.71875 C 246.355469 126.085938 248.714844 127.054688 250.648438 127.839844 C 257.667969 130.628906 261.601562 134.992188 260.085938 138.382812 C 259.058594 140.566406 258.332031 140.324219 258.332031 137.898438 C 258.332031 136.261719 257.910156 135.535156 256.09375 134.140625 C 254.824219 133.234375 253.613281 132.082031 253.3125 131.660156 C 253.070312 131.292969 252.464844 131.050781 252.039062 131.234375 C 251.617188 131.414062 251.074219 131.171875 250.890625 130.6875 C 250.710938 130.082031 250.042969 129.902344 249.015625 130.082031 C 248.109375 130.265625 247.441406 130.144531 247.441406 129.71875 C 247.441406 129.355469 246.898438 129.054688 246.292969 129.054688 C 245.6875 129.054688 244.960938 128.628906 244.78125 128.082031 C 244.480469 127.296875 244.238281 127.234375 243.570312 127.78125 C 242.964844 128.265625 242.601562 128.324219 242.300781 127.839844 C 242.117188 127.539062 241.453125 127.234375 240.910156 127.234375 C 240.363281 127.234375 239.335938 126.507812 238.609375 125.597656 C 237.460938 124.144531 237.15625 124.023438 236.3125 124.75 C 235.402344 125.476562 235.039062 125.234375 235.28125 124.023438 C 235.34375 123.722656 235.101562 123.660156 234.796875 123.84375 C 234.496094 124.023438 233.953125 123.78125 233.527344 123.296875 C 232.921875 122.570312 232.921875 122.207031 233.527344 121.539062 C 234.011719 120.933594 234.011719 120.328125 233.648438 119.601562 C 232.921875 118.328125 234.375 115.722656 235.765625 115.722656 C 236.433594 115.722656 236.554688 116.269531 236.25 118.328125 Z M 265.59375 119.964844 C 263.898438 123.359375 264.082031 124.8125 266.925781 131.113281 C 274.003906 146.746094 275.757812 150.925781 275.210938 150.742188 C 274.847656 150.621094 271.945312 144.5625 268.800781 137.292969 L 262.992188 124.085938 L 264.5625 120.8125 C 265.472656 118.996094 266.320312 117.542969 266.5 117.542969 C 266.683594 117.542969 266.257812 118.632812 265.59375 119.964844 Z M 230.746094 119.296875 C 230.925781 119.601562 229.898438 120.8125 228.386719 122.085938 L 225.664062 124.265625 L 225.664062 118.753906 L 228.023438 118.753906 C 229.355469 118.753906 230.5625 118.996094 230.746094 119.296875 Z M 233.589844 125.113281 C 235.160156 126.628906 236.796875 127.839844 237.15625 127.839844 C 238.125 127.839844 237.882812 129.476562 236.855469 129.902344 C 236.3125 130.082031 235.464844 131.234375 234.980469 132.445312 C 234.011719 134.75 232.558594 134.929688 232.679688 132.75 C 232.679688 132.082031 232.5 131.476562 232.195312 131.476562 C 231.957031 131.476562 231.714844 132.023438 231.714844 132.75 C 231.714844 133.65625 231.410156 133.898438 230.804688 133.65625 C 230.320312 133.476562 229.898438 133.597656 229.898438 133.898438 C 229.898438 135.171875 228.082031 134.445312 228.023438 133.113281 L 227.902344 131.78125 L 227.660156 133.171875 C 227.539062 133.898438 227.175781 134.382812 226.875 134.203125 C 226.632812 134.019531 226.511719 133.292969 226.691406 132.507812 C 226.933594 131.597656 226.8125 131.355469 226.390625 131.78125 C 226.027344 132.082031 225.664062 133.050781 225.542969 133.898438 C 225.421875 134.992188 224.9375 135.476562 223.910156 135.597656 C 222.515625 135.839844 222.457031 135.71875 222.878906 133.292969 C 223.121094 131.902344 223.726562 129.902344 224.210938 128.8125 C 225.300781 126.691406 229.234375 122.386719 230.078125 122.386719 C 230.441406 122.386719 232.015625 123.601562 233.589844 125.113281 Z M 309.757812 124.207031 L 311.875 125.355469 L 309.453125 125.355469 C 307.941406 125.355469 306.429688 124.933594 305.523438 124.207031 L 304.011719 122.992188 L 305.824219 123.054688 C 306.855469 123.054688 308.609375 123.539062 309.757812 124.207031 Z M 225.058594 124.871094 C 225.058594 125.175781 224.816406 125.417969 224.453125 125.417969 C 224.152344 125.417969 223.847656 124.992188 223.847656 124.449219 C 223.847656 123.964844 224.152344 123.722656 224.453125 123.902344 C 224.816406 124.085938 225.058594 124.507812 225.058594 124.871094 Z M 204.488281 127.597656 C 204.851562 128.445312 205.09375 129.71875 205.09375 130.445312 C 205.09375 131.902344 203.035156 133.597656 202.070312 132.992188 C 201.402344 132.566406 201.222656 127.054688 201.886719 126.449219 C 202.734375 125.539062 203.945312 126.085938 204.488281 127.597656 Z M 314.296875 129.054688 C 314.296875 130.386719 313.992188 131.171875 313.570312 131.113281 C 313.144531 131.050781 311.453125 130.992188 309.757812 130.929688 L 306.734375 130.871094 L 306.734375 126.570312 L 310.542969 126.75 L 314.296875 126.933594 Z M 302.375 131.292969 C 304.917969 131.660156 304.976562 131.71875 304.554688 133.535156 C 304.375 134.566406 304.011719 135.597656 303.769531 135.839844 C 303.585938 136.019531 301.589844 136.082031 299.351562 135.898438 C 294.933594 135.535156 294.632812 135.234375 295.660156 131.597656 C 295.964844 130.324219 296.265625 130.203125 297.898438 130.507812 C 298.929688 130.75 300.925781 131.113281 302.375 131.292969 Z M 244.417969 132.75 C 243.996094 133.414062 243.570312 133.839844 243.390625 133.65625 C 242.90625 133.171875 243.691406 131.476562 244.417969 131.476562 C 244.839844 131.476562 244.839844 131.839844 244.417969 132.75 Z M 251.980469 133.898438 C 252.160156 134.203125 252.039062 134.507812 251.738281 134.507812 C 251.375 134.507812 251.074219 134.203125 251.074219 133.898438 C 251.074219 133.535156 251.195312 133.292969 251.316406 133.292969 C 251.496094 133.292969 251.800781 133.535156 251.980469 133.898438 Z M 231.957031 137.292969 C 232.316406 138.324219 231.351562 138.445312 230.746094 137.476562 C 230.441406 136.988281 230.140625 137.109375 229.777344 137.777344 C 229.050781 139.109375 228.082031 138.988281 228.082031 137.597656 C 228.082031 135.65625 231.230469 135.476562 231.957031 137.292969 Z M 233.832031 136.808594 C 233.832031 137.898438 232.621094 137.71875 232.4375 136.566406 C 232.257812 135.960938 232.5 135.65625 233.042969 135.839844 C 233.46875 136.019531 233.832031 136.445312 233.832031 136.808594 Z M 256.09375 136.808594 C 256.882812 137.71875 257 138.324219 256.457031 140.140625 C 256.09375 141.59375 255.609375 142.199219 255.066406 142.019531 C 254.582031 141.835938 253.554688 142.625 252.585938 143.835938 C 250.589844 146.503906 247.867188 148.199219 244.902344 148.742188 C 242.179688 149.230469 242 148.621094 244.175781 146.5625 C 245.023438 145.773438 246.414062 143.835938 247.199219 142.320312 C 248.714844 139.292969 249.921875 138.445312 251.011719 139.535156 C 251.496094 140.019531 251.859375 140.078125 252.160156 139.59375 C 252.402344 139.230469 253.433594 138.6875 254.402344 138.445312 L 256.214844 137.898438 L 254.582031 137.65625 C 252.949219 137.476562 252.464844 136.929688 253.3125 136.140625 C 253.976562 135.414062 255.066406 135.65625 256.09375 136.808594 Z M 243.8125 136.929688 C 243.8125 137.230469 243.511719 137.535156 243.148438 137.535156 C 242.84375 137.535156 242.722656 137.230469 242.90625 136.929688 C 243.085938 136.566406 243.390625 136.324219 243.570312 136.324219 C 243.691406 136.324219 243.8125 136.566406 243.8125 136.929688 Z M 249.257812 136.867188 C 249.257812 137.230469 249.015625 137.65625 248.652344 137.839844 C 248.351562 138.019531 248.046875 137.777344 248.046875 137.292969 C 248.046875 136.746094 248.351562 136.324219 248.652344 136.324219 C 249.015625 136.324219 249.257812 136.566406 249.257812 136.867188 Z M 252.28125 136.929688 C 252.28125 137.230469 252.039062 137.535156 251.679688 137.535156 C 251.375 137.535156 251.074219 137.230469 251.074219 136.929688 C 251.074219 136.566406 251.375 136.324219 251.679688 136.324219 C 252.039062 136.324219 252.28125 136.566406 252.28125 136.929688 Z M 307.941406 139.898438 L 310.664062 142.078125 L 307.035156 142.261719 C 303.464844 142.441406 303.34375 142.382812 300.378906 139.59375 L 297.355469 136.808594 L 301.289062 137.230469 C 304.554688 137.597656 305.703125 138.019531 307.941406 139.898438 Z M 225.359375 138.988281 C 226.027344 139.414062 227.839844 139.957031 229.476562 140.203125 C 232.195312 140.625 232.316406 140.746094 232.316406 142.5625 C 232.316406 147.410156 231.351562 148.015625 226.753906 146.261719 C 223.847656 145.167969 221.429688 142.683594 221.429688 140.929688 C 221.429688 140.019531 221.914062 140.324219 223.726562 142.261719 C 225.058594 143.65625 226.390625 144.804688 226.8125 144.804688 C 227.234375 144.804688 226.570312 143.898438 225.421875 142.746094 C 224.210938 141.65625 223.242188 140.140625 223.242188 139.414062 C 223.242188 137.960938 223.726562 137.839844 225.359375 138.988281 Z M 247.441406 140.203125 C 247.441406 140.382812 247.199219 140.6875 246.839844 140.867188 C 246.535156 141.050781 246.234375 140.929688 246.234375 140.625 C 246.234375 140.261719 246.535156 139.957031 246.839844 139.957031 C 247.199219 139.957031 247.441406 140.078125 247.441406 140.203125 Z M 207.269531 141.230469 C 207.816406 142.140625 206.484375 142.925781 205.03125 142.5625 C 204.125 142.320312 204.003906 142.078125 204.550781 141.414062 C 205.394531 140.382812 206.667969 140.324219 207.269531 141.230469 Z M 262.6875 146.019531 C 263.960938 148.5 265.53125 152.257812 266.257812 154.378906 C 267.46875 158.136719 267.527344 158.257812 266.441406 159.46875 C 264.625 161.40625 259.664062 163.648438 256.214844 164.011719 C 248.53125 164.800781 238.488281 158.195312 240.789062 153.894531 C 241.152344 153.226562 242.601562 152.5 244.417969 152.136719 C 249.558594 151.046875 250.890625 150.015625 256.941406 142.683594 C 259 140.261719 260.207031 140.929688 262.6875 146.019531 Z M 254.640625 144.019531 C 251.132812 148.742188 247.804688 150.804688 242.90625 151.289062 C 239.15625 151.714844 234.738281 151.105469 233.285156 150.078125 C 232.4375 149.472656 232.558594 149.351562 234.253906 149.410156 C 235.34375 149.472656 236.734375 149.714844 237.339844 149.957031 C 238.066406 150.257812 238.972656 149.957031 240.0625 148.988281 C 240.96875 148.199219 241.332031 147.957031 240.96875 148.441406 C 239.09375 150.5 240.96875 150.804688 245.992188 149.230469 C 248.167969 148.5625 250.042969 147.410156 251.800781 145.59375 C 254.339844 143.046875 256.214844 142.019531 254.640625 144.019531 Z M 207.9375 144.5625 C 208.117188 145.109375 207.574219 146.199219 206.546875 147.289062 C 205.578125 148.320312 204.367188 150.257812 203.824219 151.652344 C 202.914062 153.894531 202.914062 154.378906 203.761719 156.074219 C 204.550781 157.710938 205.03125 158.074219 207.574219 158.378906 C 210.296875 158.742188 210.539062 158.921875 210.902344 160.863281 C 211.082031 162.074219 211.507812 163.164062 211.808594 163.347656 C 212.714844 163.890625 212.414062 165.585938 211.507812 165.222656 C 211.082031 165.042969 210.417969 165.164062 210.113281 165.464844 C 209.75 165.828125 207.996094 165.953125 205.757812 165.648438 L 202.070312 165.222656 L 202.070312 143.59375 L 204.789062 143.59375 C 206.726562 143.59375 207.632812 143.898438 207.9375 144.5625 Z M 310.96875 145.714844 L 310.96875 147.835938 L 307.15625 147.835938 C 305.039062 147.835938 303.164062 147.714844 302.980469 147.53125 C 302.859375 147.351562 302.800781 146.441406 302.980469 145.410156 C 303.222656 143.59375 303.285156 143.59375 307.09375 143.59375 L 310.96875 143.59375 Z M 238.429688 146.199219 C 237.945312 146.683594 237.761719 146.625 237.761719 145.957031 C 237.761719 144.746094 238.550781 143.898438 238.851562 144.804688 C 239.035156 145.230469 238.792969 145.835938 238.429688 146.199219 Z M 243.207031 145.652344 C 243.207031 145.835938 242.964844 146.140625 242.601562 146.320312 C 242.300781 146.503906 242 146.382812 242 146.078125 C 242 145.714844 242.300781 145.410156 242.601562 145.410156 C 242.964844 145.410156 243.207031 145.53125 243.207031 145.652344 Z M 302.375 152.742188 C 304.011719 154.683594 306.066406 158.015625 306.128906 158.863281 C 306.128906 159.164062 304.375 159.347656 302.195312 159.347656 L 298.324219 159.347656 L 296.507812 156.742188 C 295.539062 155.289062 294.332031 153.773438 293.785156 153.347656 C 291.730469 151.589844 292.636719 150.863281 296.8125 150.863281 C 300.5 150.863281 300.863281 150.984375 302.375 152.742188 Z M 233.890625 154.925781 C 233.40625 155.832031 232.984375 156.4375 232.921875 156.195312 C 232.921875 155.46875 234.316406 152.683594 234.554688 152.925781 C 234.738281 153.046875 234.4375 153.953125 233.890625 154.925781 Z M 292.757812 158.863281 C 292.816406 161.527344 291.730469 162.375 288.039062 162.375 C 285.253906 162.375 285.195312 162.375 286.464844 159.890625 C 287.492188 158.015625 288.21875 158.074219 289.671875 160.074219 C 291.0625 162.011719 291.609375 161.226562 291.667969 157.042969 C 291.730469 153.894531 291.851562 153.410156 292.210938 154.804688 C 292.453125 155.773438 292.695312 157.652344 292.757812 158.863281 Z M 210.355469 157.164062 C 210.113281 157.710938 209.449219 157.894531 208.421875 157.652344 L 206.789062 157.347656 L 208.542969 155.953125 C 209.871094 154.863281 210.296875 154.804688 210.417969 155.46875 C 210.539062 156.015625 210.476562 156.742188 210.355469 157.164062 Z M 213.5625 159.285156 C 213.5625 159.648438 213.320312 160.074219 212.957031 160.257812 C 212.65625 160.4375 212.351562 160.195312 212.351562 159.710938 C 212.351562 159.164062 212.65625 158.742188 212.957031 158.742188 C 213.320312 158.742188 213.5625 158.984375 213.5625 159.285156 Z M 306.128906 160.863281 C 306.128906 161.042969 305.703125 161.890625 305.160156 162.679688 C 304.3125 164.011719 303.707031 164.195312 300.621094 164.195312 C 298.625 164.195312 297.050781 164.074219 297.050781 163.890625 C 297.050781 163.769531 297.355469 162.921875 297.777344 162.074219 C 298.382812 160.679688 298.746094 160.558594 302.316406 160.558594 C 304.375 160.558594 306.128906 160.679688 306.128906 160.863281 Z M 248.351562 164.195312 C 250.527344 164.859375 251.375 165.34375 250.46875 165.34375 C 249.621094 165.34375 247.867188 164.859375 246.535156 164.253906 C 243.390625 162.738281 243.875 162.738281 248.351562 164.195312 Z M 291.609375 168.433594 C 291.609375 172.859375 291.488281 173.28125 290.398438 173.28125 C 289.609375 173.28125 289.1875 172.859375 289.1875 172.191406 C 289.1875 171.585938 288.21875 169.527344 287.070312 167.585938 C 285.921875 165.648438 284.953125 163.953125 284.953125 163.832031 C 284.953125 163.710938 286.464844 163.589844 288.28125 163.589844 L 291.609375 163.589844 Z M 296.085938 165.890625 C 296.871094 167.164062 297.65625 169.285156 297.777344 170.617188 L 297.960938 172.980469 L 295.417969 173.160156 L 292.816406 173.34375 L 292.816406 168.496094 C 292.816406 162.800781 293.664062 162.074219 296.085938 165.890625 Z M 220.460938 168.070312 C 221.550781 169.464844 221.609375 169.769531 220.824219 170.3125 C 220.339844 170.617188 219.128906 170.796875 218.101562 170.738281 C 215.921875 170.554688 215.316406 168.554688 216.953125 166.980469 C 218.160156 165.707031 218.886719 165.953125 220.460938 168.070312 Z M 200.796875 167.769531 C 198.800781 169.40625 199.828125 170.253906 204.609375 170.859375 C 210.660156 171.585938 213.988281 170.617188 213.382812 168.3125 C 212.957031 166.800781 213.988281 166.921875 214.773438 168.496094 C 215.984375 170.738281 214.167969 172.496094 210.234375 172.980469 C 204.550781 173.707031 199.648438 172.554688 198.195312 170.070312 C 197.652344 169.164062 197.773438 168.738281 198.984375 167.769531 C 199.769531 167.164062 200.796875 166.617188 201.28125 166.617188 C 201.949219 166.617188 201.765625 166.980469 200.796875 167.769531 Z M 210.296875 167.464844 C 210.78125 167.949219 211.144531 168.796875 211.144531 169.285156 C 211.144531 170.070312 210.417969 170.253906 207.511719 170.253906 C 203.703125 170.253906 202.492188 169.285156 205.878906 168.859375 C 207.269531 168.675781 207.03125 168.617188 204.851562 168.554688 C 201.039062 168.433594 201.828125 167.40625 206 167.042969 C 207.695312 166.921875 209.085938 166.800781 209.207031 166.738281 C 209.328125 166.679688 209.8125 166.980469 210.296875 167.464844 Z M 281.019531 172.675781 C 281.203125 172.980469 280.960938 173.28125 280.476562 173.28125 C 279.929688 173.28125 279.507812 172.980469 279.507812 172.675781 C 279.507812 172.3125 279.75 172.070312 280.050781 172.070312 C 280.414062 172.070312 280.839844 172.3125 281.019531 172.675781 Z M 278.296875 173.28125 C 278.296875 173.585938 277.875 173.886719 277.328125 173.886719 C 276.847656 173.886719 276.605469 173.585938 276.785156 173.28125 C 276.964844 172.917969 277.390625 172.675781 277.753906 172.675781 C 278.054688 172.675781 278.296875 172.917969 278.296875 173.28125 Z M 296.992188 174.796875 C 296.449219 175.34375 295.601562 175.585938 295.054688 175.34375 C 293.363281 174.738281 293.90625 173.886719 295.964844 173.886719 C 297.71875 173.886719 297.839844 174.007812 296.992188 174.796875 Z M 283.925781 174.917969 C 283.5 175.039062 282.773438 175.039062 282.410156 174.917969 C 281.988281 174.738281 282.289062 174.617188 283.136719 174.617188 C 283.984375 174.617188 284.289062 174.738281 283.925781 174.917969 Z M 288.21875 174.917969 C 288.460938 175.222656 289.308594 175.402344 289.972656 175.402344 C 291.730469 175.402344 292.210938 178.371094 290.578125 179.039062 C 288.703125 179.765625 281.082031 180.066406 280.113281 179.402344 C 278.902344 178.554688 279.445312 178.25 283.199219 177.585938 C 285.800781 177.160156 286.042969 177.039062 284.347656 176.976562 C 283.199219 176.976562 281.019531 177.21875 279.566406 177.585938 C 276.300781 178.3125 275.574219 177.828125 278.296875 176.675781 C 279.386719 176.25 279.929688 175.765625 279.507812 175.585938 C 279.023438 175.464844 280.535156 175.464844 282.714844 175.585938 C 285.4375 175.765625 286.769531 175.644531 286.769531 175.160156 C 286.769531 174.371094 287.554688 174.25 288.21875 174.917969 Z M 276.664062 176.613281 C 273.699219 178.675781 277.148438 180.554688 283.984375 180.554688 C 289.851562 180.554688 292.574219 179.703125 293.058594 177.828125 C 293.542969 175.886719 295.117188 175.886719 295.601562 177.828125 C 296.628906 181.824219 289.730469 184.1875 280.476562 182.976562 C 276.484375 182.492188 273.519531 181.097656 272.972656 179.460938 C 272.671875 178.492188 275.574219 175.707031 276.90625 175.707031 C 277.8125 175.707031 277.753906 175.828125 276.664062 176.613281 Z M 230.503906 177.644531 C 231.53125 178.371094 232.316406 179.460938 232.316406 180.066406 C 232.316406 180.976562 231.773438 181.160156 228.628906 181.160156 C 226.632812 181.160156 225.058594 180.976562 225.179688 180.675781 C 226.027344 178.976562 227.839844 176.3125 228.265625 176.3125 C 228.507812 176.3125 229.535156 176.917969 230.503906 177.644531 Z M 269.828125 180.1875 C 269.828125 180.371094 269.585938 180.675781 269.222656 180.855469 C 268.921875 181.039062 268.617188 180.917969 268.617188 180.613281 C 268.617188 180.25 268.921875 179.945312 269.222656 179.945312 C 269.585938 179.945312 269.828125 180.066406 269.828125 180.1875 Z M 242.238281 182.671875 C 244.238281 183.523438 244.417969 183.824219 244.417969 186.007812 C 244.417969 188.792969 244.175781 188.976562 240.242188 189.460938 L 237.21875 189.824219 L 238.066406 187.460938 C 238.550781 186.128906 238.914062 184.371094 238.972656 183.402344 C 238.972656 181.523438 239.277344 181.460938 242.238281 182.671875 Z M 272.246094 185.761719 C 274.605469 189.882812 273.941406 190.972656 268.800781 191.335938 L 265.167969 191.578125 L 264.804688 188.367188 C 264.019531 182.128906 263.960938 182.308594 267.40625 182.492188 C 270.371094 182.671875 270.492188 182.734375 272.246094 185.761719 Z M 257.363281 188.003906 C 257.96875 190.246094 258.394531 192.1875 258.273438 192.308594 C 258.152344 192.429688 256.277344 192.671875 254.160156 192.914062 C 250.347656 193.335938 250.285156 193.335938 250.710938 191.945312 C 250.890625 191.15625 251.074219 189.15625 251.074219 187.398438 C 251.074219 184.308594 251.132812 184.25 253.070312 184.007812 C 256.035156 183.644531 256.09375 183.703125 257.363281 188.003906 Z M 282.53125 185.945312 C 282.53125 186.308594 282.230469 186.734375 281.929688 186.914062 C 281.019531 187.460938 279.328125 186.734375 279.808594 186.007812 C 280.292969 185.21875 282.53125 185.21875 282.53125 185.945312 Z M 282.53125 185.945312 "/>
<path style=" stroke:none;fill-rule:nonzero;fill:rgb(0%,0%,0%);fill-opacity:1;" d="M 212.351562 106.332031 L 204.789062 110.269531 L 210.839844 109.90625 C 214.167969 109.664062 217.070312 109.363281 217.3125 109.121094 C 217.554688 108.9375 217.796875 107.664062 217.980469 106.332031 L 218.222656 103.910156 L 218.28125 106.453125 L 218.402344 109.058594 L 223.847656 109.058594 L 223.847656 106.636719 C 223.847656 105.300781 224.152344 104.210938 224.453125 104.210938 C 224.816406 104.210938 225.058594 105.179688 225.058594 106.332031 C 225.058594 108.453125 225.058594 108.453125 227.660156 108.390625 C 229.050781 108.332031 231.835938 108.148438 233.832031 107.90625 L 237.460938 107.542969 L 229.234375 104.9375 C 224.632812 103.546875 220.703125 102.394531 220.460938 102.453125 C 220.15625 102.453125 216.527344 104.210938 212.351562 106.332031 Z M 212.777344 108.574219 C 212.59375 109.058594 212.414062 108.878906 212.414062 108.210938 C 212.351562 107.542969 212.535156 107.179688 212.714844 107.421875 C 212.898438 107.605469 212.957031 108.148438 212.777344 108.574219 Z M 212.777344 108.574219 "/>
<path style=" stroke:none;fill-rule:nonzero;fill:rgb(0%,0%,0%);fill-opacity:1;" d="M 219.128906 26.417969 L 217.070312 27.324219 L 217.3125 33.019531 C 217.375 36.109375 217.675781 38.898438 217.917969 39.140625 C 218.34375 39.5625 221.851562 38.414062 222.878906 37.503906 C 223.667969 36.835938 222.699219 25.445312 221.851562 25.507812 C 221.429688 25.507812 220.21875 25.933594 219.128906 26.417969 Z M 219.128906 26.417969 "/>
<path style=" stroke:none;fill-rule:nonzero;fill:rgb(0%,0%,0%);fill-opacity:1;" d="M 213.683594 28.78125 L 211.628906 29.6875 L 212.050781 35.566406 C 212.292969 38.835938 212.535156 41.503906 212.59375 41.5625 C 212.59375 41.625 213.5625 41.261719 214.652344 40.835938 L 216.589844 39.988281 L 216.589844 33.929688 C 216.589844 30.597656 216.40625 27.871094 216.164062 27.871094 C 215.863281 27.929688 214.773438 28.292969 213.683594 28.78125 Z M 213.683594 28.78125 "/>
<path style=" stroke:none;fill-rule:nonzero;fill:rgb(0%,0%,0%);fill-opacity:1;" d="M 207.996094 31.082031 C 206.304688 31.75 206.304688 31.75 206.304688 37.6875 C 206.304688 41.503906 206.546875 43.625 206.96875 43.625 C 207.753906 43.625 210.113281 42.410156 210.539062 41.804688 C 210.960938 41.078125 210.539062 30.292969 210.054688 30.355469 C 209.8125 30.414062 208.90625 30.71875 207.996094 31.082031 Z M 207.996094 31.082031 "/>
<path style=" stroke:none;fill-rule:nonzero;fill:rgb(0%,0%,0%);fill-opacity:1;" d="M 220.21875 39.683594 L 218.101562 40.414062 L 217.917969 47.078125 L 217.738281 53.800781 L 220.339844 53.015625 L 222.941406 52.289062 L 223.121094 46.046875 C 223.183594 42.59375 223.0625 39.625 222.820312 39.382812 C 222.578125 39.140625 221.367188 39.261719 220.21875 39.683594 Z M 220.21875 39.683594 "/>
<path style=" stroke:none;fill-rule:nonzero;fill:rgb(0%,0%,0%);fill-opacity:1;" d="M 214.046875 41.925781 L 212.351562 42.53125 L 212.351562 55.621094 L 214.472656 54.953125 L 216.589844 54.347656 L 216.589844 47.742188 C 216.589844 44.167969 216.40625 41.199219 216.164062 41.261719 C 215.863281 41.261719 214.953125 41.5625 214.046875 41.925781 Z M 214.046875 41.925781 "/>
<path style=" stroke:none;fill-rule:nonzero;fill:rgb(0%,0%,0%);fill-opacity:1;" d="M 208.300781 44.046875 L 206.304688 44.835938 L 206.304688 50.894531 C 206.304688 57.4375 206.425781 57.558594 209.570312 56.347656 C 211.082031 55.800781 211.144531 55.621094 211.144531 50.167969 C 211.144531 47.078125 210.902344 44.230469 210.660156 43.867188 C 210.355469 43.382812 209.691406 43.441406 208.300781 44.046875 Z M 208.300781 44.046875 "/>
<path style=" stroke:none;fill-rule:nonzero;fill:rgb(0%,0%,0%);fill-opacity:1;" d="M 219.792969 54.042969 L 217.796875 54.710938 L 217.796875 67.980469 L 220.035156 67.554688 C 221.308594 67.3125 222.515625 67.011719 222.757812 66.890625 C 223.0625 66.707031 223.242188 63.617188 223.242188 59.921875 C 223.242188 52.773438 223.304688 52.953125 219.792969 54.042969 Z M 219.792969 54.042969 "/>
<path style=" stroke:none;fill-rule:nonzero;fill:rgb(0%,0%,0%);fill-opacity:1;" d="M 214.046875 55.863281 L 212.351562 56.46875 L 212.351562 62.769531 C 212.351562 69.554688 212.351562 69.617188 215.863281 68.707031 C 217.011719 68.402344 217.191406 67.917969 217.191406 65.433594 C 217.191406 61.4375 216.46875 55.136719 216.042969 55.195312 C 215.863281 55.195312 214.953125 55.5 214.046875 55.863281 Z M 214.046875 55.863281 "/>
<path style=" stroke:none;fill-rule:nonzero;fill:rgb(0%,0%,0%);fill-opacity:1;" d="M 208.300781 57.679688 L 206.304688 58.347656 L 206.304688 64.585938 C 206.304688 71.371094 206.363281 71.492188 209.570312 70.28125 C 211.144531 69.738281 211.144531 69.617188 211.144531 63.316406 C 211.144531 59.800781 210.960938 56.953125 210.71875 57.011719 C 210.417969 57.074219 209.328125 57.378906 208.300781 57.679688 Z M 208.300781 57.679688 "/>
<path style=" stroke:none;fill-rule:nonzero;fill:rgb(0%,0%,0%);fill-opacity:1;" d="M 219.792969 68.585938 L 217.796875 69.253906 L 217.796875 75.492188 C 217.796875 82.339844 217.675781 82.15625 221.367188 81.429688 L 223.242188 81.007812 L 223.242188 74.464844 C 223.242188 67.3125 223.304688 67.496094 219.792969 68.585938 Z M 219.792969 68.585938 "/>
<path style=" stroke:none;fill-rule:nonzero;fill:rgb(0%,0%,0%);fill-opacity:1;" d="M 204.003906 71.191406 C 203.097656 73.128906 203.097656 74.828125 203.882812 76.402344 C 205.09375 78.523438 205.699219 77.554688 205.699219 73.613281 C 205.699219 69.433594 205.152344 68.644531 204.003906 71.191406 Z M 204.003906 71.191406 "/>
<path style=" stroke:none;fill-rule:nonzero;fill:rgb(0%,0%,0%);fill-opacity:1;" d="M 213.746094 70.28125 C 212.414062 70.828125 212.351562 71.191406 212.351562 77.007812 L 212.351562 83.128906 L 214.230469 82.761719 C 215.257812 82.582031 216.347656 82.398438 216.648438 82.398438 C 216.953125 82.398438 217.191406 79.550781 217.191406 76.039062 C 217.191406 69.132812 217.070312 68.949219 213.746094 70.28125 Z M 213.746094 70.28125 "/>
<path style=" stroke:none;fill-rule:nonzero;fill:rgb(0%,0%,0%);fill-opacity:1;" d="M 208.722656 71.433594 C 207.269531 71.859375 207.210938 72.039062 207.03125 78.097656 L 206.847656 84.339844 L 208.84375 83.914062 C 209.933594 83.671875 211.023438 83.308594 211.265625 83.066406 C 211.75 82.640625 211.144531 70.886719 210.597656 70.949219 C 210.417969 71.007812 209.570312 71.191406 208.722656 71.433594 Z M 208.722656 71.433594 "/>
<path style=" stroke:none;fill-rule:nonzero;fill:rgb(0%,0%,0%);fill-opacity:1;" d="M 226.933594 81.308594 L 224.273438 81.914062 L 224.632812 88.214844 C 224.816406 91.730469 225.058594 94.761719 225.238281 94.941406 C 225.421875 95.125 226.996094 95.0625 228.628906 94.820312 L 231.714844 94.394531 L 231.714844 87.488281 C 231.714844 79.734375 232.015625 80.160156 226.933594 81.308594 Z M 226.933594 81.308594 "/>
<path style=" stroke:none;fill-rule:nonzero;fill:rgb(0%,0%,0%);fill-opacity:1;" d="M 219.25 82.824219 C 217.980469 83.066406 217.917969 83.308594 218.222656 89.550781 C 218.402344 93.125 218.585938 96.09375 218.644531 96.152344 C 218.707031 96.214844 219.914062 96.09375 221.308594 95.910156 L 223.910156 95.546875 L 223.726562 89.125 C 223.546875 82.761719 223.546875 82.703125 222.035156 82.640625 C 221.1875 82.582031 219.914062 82.640625 219.25 82.824219 Z M 219.25 82.824219 "/>
<path style=" stroke:none;fill-rule:nonzero;fill:rgb(0%,0%,0%);fill-opacity:1;" d="M 213.382812 84.398438 C 212.414062 85.066406 212.351562 85.855469 212.714844 91.0625 C 213.078125 96.152344 213.261719 96.941406 214.230469 96.941406 C 217.011719 96.941406 217.191406 96.515625 217.191406 89.914062 C 217.191406 83.734375 217.191406 83.613281 215.800781 83.613281 C 215.015625 83.613281 213.925781 83.976562 213.382812 84.398438 Z M 213.382812 84.398438 "/>
<path style=" stroke:none;fill-rule:nonzero;fill:rgb(0%,0%,0%);fill-opacity:1;" d="M 207.695312 85.246094 C 207.148438 85.429688 206.910156 87.367188 206.910156 91.914062 C 206.910156 98.214844 206.910156 98.273438 208.300781 97.910156 C 209.027344 97.730469 210.113281 97.546875 210.71875 97.546875 C 211.628906 97.546875 211.75 96.820312 211.75 91.183594 L 211.75 84.824219 L 210.113281 84.882812 C 209.148438 84.882812 208.058594 85.066406 207.695312 85.246094 Z M 207.695312 85.246094 "/>
</g>
</svg>
