<?xml version="1.0" standalone="no"?>
<!DOCTYPE svg PUBLIC "-//W3C//DTD SVG 20010904//EN"
 "http://www.w3.org/TR/2001/REC-SVG-20010904/DTD/svg10.dtd">
<svg version="1.0" xmlns="http://www.w3.org/2000/svg"
 width="474.000000pt" height="653.000000pt" viewBox="0 0 474.000000 653.000000"
 preserveAspectRatio="xMidYMid meet">

<g transform="translate(0.000000,653.000000) scale(0.100000,-0.100000)"
fill="#000000" stroke="none">
<path d="M3720 6350 c0 -99 -4 -180 -9 -180 -5 0 -14 13 -21 29 -13 31 -21 36
-185 108 -122 54 -160 56 -270 15 l-80 -30 -3 -649 -2 -649 -163 -32 c-227
-45 -208 -50 -205 56 l3 87 107 36 c131 44 179 74 207 131 20 42 21 60 21 316
0 297 -3 318 -58 375 -39 41 -93 71 -222 122 -155 62 -203 59 -402 -19 -48
-19 -112 -40 -143 -47 l-55 -12 -2 -596 -3 -596 -2 480 -3 481 -55 19 -55 18
0 174 c0 103 -4 173 -10 173 -14 0 -328 192 -505 308 -27 18 -60 35 -71 38
-12 3 -64 -8 -115 -24 l-94 -30 -3 -246 c-1 -135 1 -246 6 -246 5 0 42 11 82
25 40 14 77 25 82 25 4 0 8 -15 8 -34 l0 -35 -88 -28 -87 -28 -3 -228 c-2
-211 -1 -227 15 -227 17 0 90 18 141 34 20 7 22 4 22 -33 0 -25 -5 -41 -12
-41 -6 0 -47 -9 -90 -21 l-78 -21 0 -229 c0 -262 -9 -242 100 -209 87 26 90
26 90 -14 0 -33 -2 -34 -52 -46 -29 -7 -70 -17 -90 -23 l-38 -10 0 -229 0
-230 27 6 c16 3 56 11 91 17 l62 12 0 229 0 230 32 -7 c76 -17 78 -19 78 -84
0 -61 -7 -71 -51 -71 -18 0 -20 -6 -17 -82 l3 -83 60 3 c71 4 294 35 415 57
179 34 1043 206 1200 240 411 88 682 115 840 81 72 -15 200 -69 200 -84 0 -12
-229 -56 -287 -56 -41 0 -57 5 -78 24 -14 13 -25 29 -25 36 0 26 -306 -15
-730 -97 -85 -17 -213 -41 -284 -55 -96 -18 -138 -30 -161 -48 -43 -33 -90
-127 -169 -336 -104 -274 -107 -282 -138 -333 -34 -53 -72 -84 -115 -93 -27
-5 -29 -3 -67 93 -82 208 -220 538 -227 547 -13 15 -139 -4 -146 -21 -3 -9 10
-49 30 -89 51 -102 48 -124 -17 -124 -19 0 -29 16 -66 101 l-43 101 -61 -7
c-33 -3 -62 -8 -64 -9 -1 -2 13 -40 33 -85 37 -88 39 -95 27 -87 -5 3 -44 -24
-88 -60 l-79 -64 -3 81 -3 81 -37 -6 c-20 -4 -61 -11 -89 -17 l-53 -10 0 -225
0 -224 40 6 c86 14 34 -16 -112 -65 -134 -45 -157 -56 -195 -93 l-43 -42 0 42
0 43 -32 -6 c-18 -3 -55 -9 -83 -13 l-49 -7 -26 -79 c-34 -104 -50 -109 -50
-17 0 38 -3 72 -7 74 -5 2 -46 -1 -93 -7 l-85 -11 -5 -104 -5 -104 -290 -128
c-238 -106 -291 -132 -293 -150 -2 -12 1 -19 6 -15 5 3 13 -13 16 -37 11 -71
-20 -67 329 -42 74 5 87 3 87 -10 0 -20 5 -19 40 6 21 16 36 20 57 15 31 -8
126 -104 179 -181 l34 -50 0 -717 c0 -715 0 -717 -21 -720 -19 -3 -20 -10 -22
-128 -2 -119 -3 -125 -22 -123 -11 2 -54 8 -96 14 -58 9 -96 9 -154 0 -43 -6
-80 -9 -83 -6 -3 3 -12 217 -20 477 -11 381 -17 475 -28 484 -9 8 -14 32 -14
77 0 73 6 97 25 97 21 0 25 -25 25 -166 l0 -134 80 0 c84 0 132 -15 144 -45
19 -49 -4 -126 -62 -212 -88 -131 -92 -175 -26 -288 l39 -66 50 6 c28 3 69 8
93 11 l42 6 0 669 c0 691 -2 734 -42 812 -32 64 -128 157 -161 157 -6 0 -10
-9 -82 -215 -78 -223 -75 -215 -89 -215 -7 0 -22 10 -34 23 -44 47 -21 138 70
276 27 40 47 75 46 77 -2 1 -48 -17 -103 -41 -55 -24 -106 -44 -114 -45 -10 0
-12 -8 -7 -32 4 -18 14 -71 22 -118 24 -142 23 -140 47 -137 17 2 21 -4 23
-28 1 -16 5 -351 8 -743 l6 -712 -22 -9 c-40 -16 -108 -71 -128 -104 -53 -87
-6 -168 135 -234 56 -25 71 -28 212 -31 169 -5 188 -1 337 68 87 40 192 70
245 70 26 0 31 -3 27 -17 -3 -10 -17 -74 -31 -143 -14 -69 -28 -132 -31 -142
-7 -24 73 -119 121 -142 38 -19 42 -19 140 -3 55 10 117 17 137 17 l37 0 -6
-144 -6 -143 54 -6 c30 -4 115 -9 189 -12 74 -3 158 -8 186 -11 l52 -5 6 -71
c9 -83 14 -100 30 -91 10 6 406 41 479 43 22 0 27 -4 27 -25 0 -18 5 -25 19
-25 11 0 21 4 23 8 2 5 125 37 273 71 149 34 276 64 283 66 6 3 12 16 12 29 0
18 6 27 23 31 12 3 144 28 292 56 318 60 404 88 476 158 58 56 68 89 46 152
-26 72 -22 86 38 147 30 31 60 71 66 90 11 33 8 42 -51 159 -35 68 -61 125
-59 127 2 1 50 8 105 14 112 13 177 31 242 68 35 21 50 40 86 112 41 81 50
109 47 138 0 7 -42 61 -92 120 -99 118 -133 175 -124 204 11 34 144 70 261 70
125 0 138 14 181 188 l28 114 -21 17 c-12 9 -77 56 -144 105 l-123 90 6 70 c6
80 27 132 64 160 21 16 42 18 124 17 110 -1 159 14 159 49 0 11 5 20 10 20 6
0 10 49 10 126 0 117 -2 128 -22 145 -19 17 -136 58 -254 88 -40 11 -41 12
-48 64 -3 28 -6 82 -6 119 l0 68 150 75 c174 87 161 61 127 255 l-22 125 -140
12 c-77 6 -153 13 -169 15 -28 3 -30 7 -51 90 l-21 88 123 122 c86 85 123 128
123 144 0 13 -16 67 -35 121 -37 104 -74 153 -118 153 -58 1 -295 29 -320 39
-22 8 -38 32 -74 106 -25 53 -44 98 -41 100 5 6 86 20 278 49 58 9 117 19 133
22 l27 6 0 127 0 127 -60 29 c-33 16 -60 33 -61 39 0 6 0 311 1 677 l1 667
-33 5 c-18 3 -116 18 -218 33 -102 16 -186 32 -188 36 -2 4 -26 8 -53 8 l-49
0 0 -180z m360 83 l120 -48 0 -628 0 -629 -122 7 c-68 4 -126 9 -130 12 -12 7
-10 1333 2 1333 6 0 64 -21 130 -47z m-2513 -8 l43 -26 0 -214 c0 -118 -2
-215 -5 -215 -20 0 -87 36 -95 51 -15 27 -13 429 2 429 6 0 31 -11 55 -25z
m144 -90 l44 -24 5 -198 c3 -109 3 -203 0 -209 -8 -19 -73 7 -87 36 -9 18 -13
84 -13 223 0 108 2 197 4 197 2 0 24 -11 47 -25z m1797 -70 c72 -33 155 -114
183 -178 20 -45 23 -71 26 -200 2 -82 0 -153 -3 -159 -6 -10 -26 26 -213 385
-85 164 -90 177 -69 177 13 0 47 -11 76 -25z m-1638 -22 l50 -28 0 -157 0
-156 -31 -11 c-18 -6 -43 -11 -55 -11 l-24 0 0 195 c0 107 2 195 5 195 3 0 27
-12 55 -27z m163 -100 l37 -23 0 -140 c0 -77 -2 -140 -4 -140 -2 0 -25 9 -50
20 l-46 19 0 151 c0 118 3 150 13 144 6 -4 29 -18 50 -31z m898 -149 c75 -37
125 -88 134 -137 4 -19 5 -144 3 -278 -3 -275 -9 -298 -77 -345 -54 -37 -188
-77 -236 -70 -21 2 -84 27 -140 55 -55 27 -111 53 -125 57 -20 6 -11 10 47 20
139 23 206 77 246 197 20 56 21 84 21 304 l0 242 31 -6 c16 -3 60 -21 96 -39z
m-1360 -85 l49 -21 0 -229 c0 -200 -2 -229 -15 -229 -20 0 -78 29 -87 44 -9
13 -11 456 -2 456 3 0 28 -10 55 -21z m479 -117 l125 -48 0 -469 0 -469 -100
-18 c-55 -9 -115 -20 -132 -23 l-33 -6 0 541 c0 297 3 540 8 540 4 0 64 -22
132 -48z m474 -53 c46 -18 56 -26 56 -46 0 -51 -76 -163 -111 -163 -5 0 -9 52
-9 115 0 63 2 115 4 115 2 0 29 -10 60 -21z m1014 -306 c89 -164 164 -306 167
-315 5 -13 -1 -18 -32 -24 -21 -3 -91 -17 -157 -30 -65 -13 -125 -24 -132 -24
-12 0 -14 60 -14 345 0 190 2 345 4 345 2 0 76 -134 164 -297z m-1964 -63 l46
-19 0 -226 0 -225 -27 6 c-16 4 -39 10 -53 14 l-25 6 -3 232 c-1 139 1 232 7
232 5 0 30 -9 55 -20z m1109 -232 l47 -21 0 -103 0 -102 -127 -24 c-71 -13
-131 -23 -135 -21 -9 5 -11 347 -2 355 5 5 92 -28 217 -84z m1468 -62 c46 -19
105 -43 132 -55 l47 -20 0 -66 c0 -50 -3 -65 -15 -65 -24 0 -224 80 -240 96
-10 11 -15 36 -15 80 0 35 2 64 4 64 2 0 41 -15 87 -34z m-241 -437 c39 -78
70 -149 70 -158 0 -11 -31 -28 -102 -56 -57 -22 -106 -40 -110 -40 -10 0 -168
317 -168 337 0 11 13 21 38 27 62 18 125 29 165 30 l37 1 70 -141z m-714 -256
c40 -53 104 -215 149 -378 37 -134 83 -390 73 -400 -10 -10 -648 127 -648 139
0 12 84 220 149 367 54 124 124 245 164 287 42 44 71 40 113 -15z m1132 32
c62 -19 99 -60 126 -140 11 -30 17 -57 15 -59 -6 -4 -278 29 -284 36 -3 2 -20
44 -39 91 l-34 87 82 0 c45 0 105 -7 134 -15z m45 -247 c37 0 70 -4 72 -7 2
-4 -20 -36 -48 -71 -69 -86 -133 -120 -226 -120 -91 0 -201 11 -201 20 0 15
90 130 115 146 49 32 98 44 160 39 33 -3 91 -6 128 -7z m-2466 -30 c47 -31
103 -112 126 -182 24 -70 23 -76 -19 -76 -34 0 -35 1 -30 28 6 27 4 28 -161
103 -199 91 -193 93 -193 -47 l0 -93 -44 -6 c-78 -12 -116 9 -116 64 1 69 98
171 206 217 80 34 173 30 231 -8z m-141 -169 c-3 -17 -6 -49 -6 -70 0 -37 -2
-39 -30 -39 l-30 0 0 70 0 70 36 0 c36 0 36 -1 30 -31z m121 -83 c-4 -9 -13
-16 -22 -16 -11 0 -15 10 -15 37 l0 37 21 -21 c13 -12 19 -28 16 -37z m2241
28 c100 -7 102 -7 108 -33 3 -14 12 -49 20 -78 8 -28 14 -53 14 -56 0 -2 -54
-7 -119 -11 -98 -6 -125 -4 -149 8 -33 17 -56 68 -67 145 l-6 44 48 -6 c26 -4
94 -9 151 -13z m-1863 -123 c61 -11 337 -71 615 -135 486 -111 628 -141 790
-168 69 -12 75 -15 78 -38 l3 -26 -268 -22 c-147 -12 -349 -29 -448 -37 -231
-19 -353 -29 -720 -60 -165 -14 -628 -52 -1030 -85 -959 -79 -1079 -89 -1147
-96 -55 -6 -58 -5 -58 16 0 46 94 105 272 171 110 40 388 165 649 290 300 144
397 175 627 205 154 19 493 12 637 -15z m2305 -119 l55 -7 13 -103 c8 -57 12
-106 9 -108 -9 -9 -277 12 -288 23 -6 6 -13 45 -16 86 -5 62 -3 81 12 103 19
29 22 29 215 6z m-25 -271 c16 -6 3 -16 -70 -54 l-90 -47 -128 2 -128 3 98 52
98 52 100 0 c55 0 109 -4 120 -8z m-1008 -93 c63 -59 154 -171 192 -239 l31
-56 0 -906 0 -907 -24 0 c-13 0 -26 -5 -28 -11 -4 -11 -147 -43 -155 -36 -2 2
13 29 33 60 l36 56 39 -19 c21 -11 41 -20 44 -20 3 0 5 400 5 888 l0 888 -25
50 c-29 58 -74 109 -85 97 -5 -4 -10 -19 -12 -33 -3 -22 -9 -26 -58 -32 -78
-9 -230 -9 -230 0 1 4 13 22 29 39 25 31 33 33 107 39 43 3 88 8 99 9 11 2 27
4 35 4 8 1 -9 24 -40 57 l-55 55 -54 -58 -53 -58 22 45 c43 86 72 130 86 130
8 0 35 -19 61 -42z m-968 -66 c5 -10 13 -42 17 -72 l7 -53 136 6 c75 4 208 11
296 18 239 16 240 16 237 0 -15 -69 -15 -71 7 -71 19 0 21 -6 21 -50 l0 -50
38 0 c89 0 138 -69 129 -180 -11 -127 -98 -560 -136 -675 l-26 -80 -3 468 -2
467 -25 0 -25 0 0 -530 c0 -291 4 -530 9 -530 4 0 15 17 24 38 14 34 15 -13
16 -560 l1 -598 -25 0 -25 0 -1 458 c-1 251 -4 490 -8 531 l-6 75 -24 -52
c-14 -29 -30 -52 -37 -52 -22 0 -74 77 -128 192 -68 143 -256 614 -256 640 0
11 16 48 35 82 19 34 50 109 68 167 26 81 39 107 58 116 15 8 67 13 134 13
152 0 155 2 155 59 l0 47 -73 2 c-129 5 -443 -18 -505 -36 -55 -17 -57 -19
-69 -62 -16 -64 -16 -178 2 -237 8 -28 37 -98 64 -154 27 -57 79 -176 116
-264 113 -270 151 -355 218 -495 36 -74 70 -155 76 -180 14 -60 14 -132 0
-167 l-12 -28 -17 40 c-10 22 -131 307 -270 633 l-253 592 -66 -72 -67 -71
-54 57 c-86 91 -86 90 -39 111 140 64 210 248 165 438 -9 38 -16 72 -16 78 0
5 29 9 65 9 52 0 66 -3 74 -18z m1785 -9 c3 -8 6 -57 6 -109 l0 -95 -146 3
-146 3 -4 50 c-2 28 -6 76 -10 108 l-6 58 150 -2 c123 -1 152 -4 156 -16z
m-2429 -64 c53 -19 85 -67 85 -129 0 -52 -21 -93 -35 -69 -5 7 -11 29 -14 48
-5 30 -11 35 -51 46 -25 7 -94 27 -155 43 -264 73 -243 66 -210 74 52 12 336
3 380 -13z m-935 -94 l0 -55 98 6 c53 3 155 9 227 14 71 5 134 5 138 1 5 -5 7
-17 5 -27 -2 -15 -38 -23 -228 -55 -124 -21 -227 -38 -228 -38 -4 -1 3 -76 18
-201 5 -41 17 -142 25 -225 8 -82 18 -165 21 -182 3 -23 1 -33 -8 -33 -7 0
-39 -23 -71 -50 -32 -28 -62 -50 -66 -50 -4 0 -15 60 -25 133 -9 72 -24 177
-31 232 -61 434 -65 468 -55 480 5 7 8 26 6 44 -6 49 14 61 100 61 l74 0 0
-55z m748 -63 c10 -7 8 -15 -10 -37 l-22 -28 25 -19 c59 -46 59 -47 59 -98 0
-27 -4 -50 -8 -50 -7 0 -137 87 -161 107 -3 2 3 19 12 38 9 20 17 49 17 65 0
28 3 30 38 30 20 0 43 -4 50 -8z m-178 -21 c0 -10 -9 -30 -21 -44 -25 -33 -18
-48 52 -111 65 -58 183 -131 314 -195 511 -248 577 -288 643 -385 48 -72 45
-116 -12 -172 -24 -24 -47 -44 -52 -44 -5 0 -9 38 -9 84 0 69 -4 90 -20 113
-21 27 -308 179 -565 297 -205 94 -375 207 -419 279 -12 20 -21 51 -21 74 0
35 6 46 45 82 49 45 65 51 65 22z m318 2 c-17 -20 -35 -2 330 -336 79 -72 139
-133 134 -135 -5 -1 -94 36 -198 84 -104 48 -209 95 -233 106 -25 12 -39 23
-33 27 16 10 -25 181 -43 181 -12 0 -27 66 -18 83 2 4 20 7 40 7 34 0 35 -1
21 -17z m887 -85 c-11 -52 -49 -141 -62 -145 -7 -3 -16 18 -24 53 -15 66 -2
103 41 115 48 13 52 11 45 -23z m1923 -33 c1 -1 -1 -51 -5 -111 l-8 -109 -149
-3 -149 -4 5 94 c7 107 11 122 40 135 18 8 257 6 266 -2z m-3311 -23 c6 -4 14
-18 18 -32 5 -22 -6 -36 -89 -113 -52 -48 -97 -83 -100 -78 -10 16 -19 128
-12 155 7 30 50 55 115 66 25 4 48 8 51 9 3 0 10 -3 17 -7z m188 -197 c88 -65
181 -121 290 -176 88 -44 172 -93 186 -108 33 -35 65 -118 74 -192 9 -69 -12
-124 -50 -139 -43 -16 -201 -13 -218 5 -36 35 -49 205 -21 270 8 20 14 38 12
39 -16 11 -140 58 -143 54 -8 -8 -9 -133 -2 -149 6 -13 -12 -34 -78 -90 l-85
-73 25 -22 c29 -25 33 -49 8 -42 -10 3 -89 25 -175 48 l-158 44 0 32 0 32 119
28 c66 16 118 30 116 32 -2 2 -78 -9 -169 -24 l-166 -28 -1 -40 c0 -38 -1 -39
-10 -16 -6 14 -9 70 -7 125 3 91 7 106 38 165 23 43 75 107 155 191 66 70 122
127 125 128 3 0 64 -42 135 -94z m-1144 -43 c4 -4 10 -48 14 -98 l7 -91 -43
-36 c-23 -21 -46 -37 -51 -37 -4 0 -8 64 -8 141 l0 141 38 -7 c20 -3 40 -10
43 -13z m3919 -69 c0 -23 -28 -194 -32 -198 -2 -1 -70 -5 -151 -8 -134 -4
-147 -3 -143 12 2 9 10 55 16 104 7 48 13 88 14 88 1 2 200 15 254 17 34 2 42
-1 42 -15z m-1962 -303 c19 -11 40 -37 48 -57 58 -139 -146 -429 -382 -543
-176 -85 -391 -82 -569 7 -70 36 -141 86 -128 90 7 3 59 -7 116 -21 84 -21
129 -26 228 -26 210 0 349 44 459 146 89 83 150 230 150 363 0 57 2 61 23 61
12 0 37 -9 55 -20z m1977 -41 c110 -12 201 -22 202 -23 1 -1 -4 -20 -10 -44
-8 -30 -15 -41 -27 -38 -455 132 -478 139 -405 131 22 -3 130 -14 240 -26z
m-3305 -76 c6 -27 23 -63 36 -80 33 -44 176 -162 244 -202 l55 -32 -40 6 c-79
13 -205 83 -277 155 l-68 68 0 59 c0 55 13 88 30 78 4 -3 13 -26 20 -52z m316
-77 c120 -30 221 -53 225 -51 3 3 -7 -36 -23 -85 -33 -101 -21 -95 -133 -65
-59 17 -156 73 -203 118 -54 51 -109 137 -88 137 2 0 102 -24 222 -54z m3220
-3 c-12 -80 -45 -135 -96 -160 -57 -27 -240 -41 -240 -18 0 7 9 54 21 104 l21
90 51 5 c29 3 86 10 127 14 133 16 123 19 116 -35z m-1963 -51 c10 -31 51
-133 91 -227 144 -335 149 -348 153 -410 6 -78 -14 -110 -94 -153 -210 -112
-566 -99 -762 28 -91 59 -154 153 -167 252 l-6 43 86 17 c103 19 196 61 275
123 58 46 89 79 186 200 93 116 169 183 210 184 6 1 18 -25 28 -57z m-1435
-206 c83 -64 152 -121 152 -126 0 -4 14 -11 30 -15 29 -6 40 -20 20 -27 -12
-4 59 -208 72 -208 5 0 25 34 45 75 19 41 39 75 43 75 30 0 70 -15 70 -26 0
-8 -21 -55 -46 -105 -44 -89 -45 -91 -28 -117 10 -15 47 -56 83 -91 189 -183
432 -291 653 -291 190 0 289 49 540 267 46 40 87 73 91 73 17 0 -31 -65 -88
-118 -104 -97 -291 -204 -450 -258 -107 -36 -327 -46 -438 -19 -289 69 -540
307 -771 730 -79 145 -162 322 -144 308 7 -6 82 -63 166 -127z m2849 47 c113
-26 122 -30 117 -48 -17 -52 -25 -65 -41 -65 -10 0 -74 -7 -142 -15 -69 -8
-127 -13 -129 -10 -4 4 18 84 39 143 5 12 14 22 21 22 7 0 68 -12 135 -27z
m203 -289 c102 -128 101 -123 16 -149 -112 -34 -214 -7 -292 76 -55 60 -118
148 -110 156 8 8 178 29 247 32 l47 1 92 -116z m86 -201 c-22 -94 -116 -157
-259 -174 -49 -6 -91 -8 -94 -5 -8 8 56 114 86 142 43 42 109 61 215 63 l58 1
-6 -27z m-3731 -208 c81 -10 105 -16 105 -27 0 -7 -36 -8 -109 -3 -175 11
-295 -18 -322 -79 -26 -55 22 -111 103 -122 40 -5 48 -2 115 47 40 29 70 56
67 61 -3 4 -41 8 -85 8 -72 0 -79 2 -79 20 0 18 7 20 64 20 34 0 91 3 124 6
48 5 63 4 66 -7 2 -8 10 -36 18 -62 7 -27 21 -53 30 -58 18 -10 24 -54 10 -76
-15 -24 -101 -35 -235 -31 -123 3 -137 6 -192 33 -48 24 -64 39 -82 73 -53
105 40 184 237 201 47 5 92 7 100 5 8 -1 38 -5 65 -9z m3256 -24 c5 -15 21
-48 35 -72 14 -24 39 -72 56 -107 l31 -64 -20 -26 c-24 -32 -48 -40 -128 -41
l-60 -1 3 162 c3 170 5 178 50 178 16 0 26 -8 33 -29z m-139 -68 c7 -209 -10
-296 -47 -248 -18 25 -122 253 -127 280 -3 17 6 21 67 31 114 19 105 24 107
-63z m-2906 28 c41 -25 65 -75 52 -112 -10 -30 -81 -84 -97 -74 -21 12 -12 62
14 79 14 9 25 25 25 34 0 10 -11 29 -25 42 -47 44 -26 66 31 31z m247 -102
c-10 -3 -45 -10 -77 -14 l-59 -7 44 51 44 50 33 -36 c29 -33 31 -38 15 -44z
m2852 -239 c-21 -22 -43 -40 -48 -40 -15 0 -79 42 -73 47 6 7 113 31 141 32
15 1 12 -7 -20 -39z m-335 10 c73 -10 112 -28 134 -63 18 -28 0 -29 -81 -7
-160 44 -321 35 -450 -24 -102 -48 -121 -99 -56 -156 80 -71 156 -76 268 -19
36 18 65 36 65 40 0 3 -45 14 -100 24 -108 18 -119 28 -74 64 23 18 41 21 136
21 61 0 107 -4 104 -9 -10 -16 22 -32 79 -38 45 -5 60 -11 80 -35 46 -54 45
-126 -1 -169 -25 -24 -27 -24 -237 -24 -194 0 -218 2 -277 23 -104 35 -170
103 -170 173 0 64 66 131 166 168 99 37 267 50 414 31z m-2154 -82 c45 -30 49
-36 49 -73 l0 -39 -100 -16 c-55 -9 -102 -15 -104 -14 -5 4 93 174 100 174 4
0 29 -15 55 -32z m2419 -31 c40 -38 45 -49 45 -87 0 -37 -6 -48 -44 -86 -24
-24 -48 -44 -55 -44 -16 0 -14 53 5 100 16 39 15 43 -2 83 -20 43 -23 57 -17
70 8 14 24 6 68 -36z m-910 -294 c44 -75 81 -140 83 -144 2 -4 -59 -22 -135
-39 -76 -18 -143 -35 -149 -37 -12 -5 -19 46 -30 219 l-7 108 34 15 c19 8 54
14 79 14 l45 0 80 -136z m-1024 69 c5 -14 10 -52 12 -85 l2 -60 -100 -23 c-55
-13 -105 -24 -111 -24 -15 0 53 221 72 236 23 19 114 -14 125 -44z m502 -146
c21 -65 35 -122 30 -127 -10 -10 -234 -62 -240 -55 -9 9 29 291 40 299 7 4 39
6 72 5 l59 -3 39 -119z"/>
<path d="M1870 3773 c-30 -2 -128 -9 -218 -16 l-163 -12 142 -198 c78 -109
146 -194 150 -190 10 10 169 397 169 412 0 6 -6 10 -12 9 -7 -1 -38 -3 -68 -5z
m-87 -147 c7 -84 0 -176 -12 -176 -11 0 -65 61 -95 105 -20 30 -26 52 -26 92
l0 52 48 4 c26 2 54 4 63 5 13 2 17 -13 22 -82z"/>
<path d="M2000 3724 c-41 -65 -169 -374 -155 -374 5 0 676 317 681 322 9 9
-420 98 -472 98 -18 0 -32 -12 -54 -46z m80 -159 l0 -55 -49 -24 c-27 -14 -51
-22 -55 -19 -3 4 -6 20 -6 37 0 24 10 40 47 73 27 23 51 42 56 43 4 0 7 -25 7
-55z"/>
<path d="M1230 3644 c-128 -63 -151 -77 -136 -86 10 -5 75 -29 144 -53 70 -24
199 -68 287 -99 87 -31 163 -55 168 -53 9 3 -225 334 -251 354 -29 21 -52 14
-212 -63z m100 -69 c0 -47 -1 -48 -37 -39 -18 5 -23 14 -23 39 0 24 5 35 18
38 39 10 42 7 42 -38z"/>
<path d="M2580 3634 c-70 -18 -137 -47 -249 -109 -57 -31 -145 -76 -196 -99
-51 -24 -95 -48 -99 -55 -22 -35 160 -38 436 -6 277 31 660 67 792 73 l141 7
0 25 c0 20 -5 26 -30 28 -59 6 -244 45 -464 98 -231 56 -254 59 -331 38z m448
-115 c89 -17 160 -34 158 -36 -2 -3 -77 -10 -165 -17 l-160 -12 -21 48 c-25
59 -25 61 3 55 12 -3 95 -20 185 -38z m-575 -59 c16 -22 27 -40 25 -41 -17 -5
-248 -23 -248 -19 0 7 172 99 185 99 6 0 23 -17 38 -39z"/>
<path d="M955 3510 c-48 -12 -393 -154 -472 -193 -73 -37 -143 -91 -143 -109
0 -11 88 -7 305 12 142 13 865 70 888 70 12 0 17 8 17 30 0 25 -4 30 -24 30
-39 0 -148 37 -266 91 -106 47 -212 80 -255 78 -11 -1 -33 -5 -50 -9z m123
-67 c5 -10 9 -45 8 -78 l-1 -60 -32 -3 -33 -3 0 80 c0 79 0 81 25 81 13 0 28
-8 33 -17z m-238 -103 l0 -60 -30 0 c-29 0 -30 1 -30 50 0 36 5 52 18 59 35
21 42 13 42 -49z m464 30 c38 -14 35 -50 -4 -50 -27 0 -30 3 -30 30 0 34 -1
34 34 20z"/>
<path d="M1195 6411 c-17 -4 -43 -16 -58 -26 -51 -33 -57 -66 -57 -301 l0
-213 83 28 82 28 3 246 c2 195 0 247 -10 246 -7 -1 -27 -4 -43 -8z"/>
<path d="M910 6288 c-75 -38 -80 -58 -80 -300 l0 -207 90 32 90 32 0 233 0
232 -28 0 c-15 0 -48 -10 -72 -22z"/>
<path d="M700 6200 c-34 -11 -67 -32 -87 -54 l-33 -36 0 -205 c0 -113 3 -205
8 -205 4 0 46 12 95 26 l87 27 0 234 c0 128 -3 233 -7 233 -5 -1 -33 -9 -63
-20z"/>
<path d="M1188 5846 c-101 -27 -108 -46 -108 -296 0 -110 3 -200 8 -200 4 0
43 11 87 23 l80 23 3 232 c2 182 0 232 -10 231 -7 0 -34 -6 -60 -13z"/>
<path d="M915 5741 l-80 -28 -3 -221 c-1 -122 -1 -222 0 -222 2 0 41 11 88 24
l85 23 3 227 c1 124 -1 226 -5 225 -5 0 -44 -13 -88 -28z"/>
<path d="M663 5653 l-73 -25 0 -215 c0 -199 1 -214 18 -209 9 2 50 14 90 26
l72 21 0 214 c0 247 10 229 -107 188z"/>
<path d="M1199 5320 c-111 -19 -119 -38 -119 -295 0 -107 2 -195 4 -195 7 0
138 30 159 36 16 5 17 25 17 235 0 126 -3 228 -7 228 -5 -1 -29 -5 -54 -9z"/>
<path d="M935 5241 c-43 -11 -73 -29 -85 -51 -6 -11 -10 -102 -10 -220 l0
-201 36 7 c20 4 57 12 83 18 l46 12 3 222 2 222 -22 -1 c-13 -1 -36 -4 -53 -8z"/>
<path d="M668 5154 l-78 -25 0 -209 c0 -241 -11 -221 105 -192 l70 18 3 217
c2 170 0 217 -10 216 -7 0 -48 -12 -90 -25z"/>
<path d="M1163 4778 l-83 -20 0 -224 0 -224 45 0 c61 0 113 23 125 55 12 30
14 436 3 434 -5 -1 -45 -10 -90 -21z"/>
<path d="M923 4716 l-83 -20 0 -219 0 -219 48 6 c133 19 132 16 132 275 0 104
-3 191 -7 193 -5 2 -45 -5 -90 -16z"/>
<path d="M658 4652 l-68 -16 0 -214 c0 -175 2 -213 13 -209 8 3 48 11 90 18
l77 13 0 213 0 213 -22 -1 c-13 -1 -53 -8 -90 -17z"/>
<path d="M1205 4265 c-5 -2 -36 -9 -67 -15 l-58 -11 0 -220 c0 -205 1 -220 18
-215 9 2 50 10 90 16 l72 12 0 219 0 219 -22 -1 c-13 0 -27 -2 -33 -4z"/>
<path d="M391 4206 c-21 -25 -72 -206 -65 -229 3 -12 42 -59 86 -104 67 -69
79 -87 74 -105 -4 -13 -11 -54 -16 -91 -4 -38 -11 -71 -14 -75 -4 -3 -55 -9
-114 -12 l-107 -5 -6 -50 c-3 -27 -10 -85 -14 -129 l-7 -79 154 81 153 80 6
359 c4 197 6 359 5 359 0 1 -28 4 -62 8 -47 5 -64 3 -73 -8z"/>
<path d="M925 4209 c-96 -21 -85 8 -85 -229 l0 -210 49 0 c71 0 108 16 120 52
6 18 11 110 11 214 l0 184 -27 -1 c-16 -1 -46 -5 -68 -10z"/>
<path d="M665 4156 l-70 -11 -3 -208 -2 -208 34 7 c20 3 59 9 88 13 l53 6 3
208 c2 193 1 207 -15 206 -10 -1 -49 -7 -88 -13z"/>
</g>
</svg>
